<?xml version="1.0" encoding="utf-8" standalone="no"?>
<!DOCTYPE svg PUBLIC "-//W3C//DTD SVG 1.1//EN"
  "http://www.w3.org/Graphics/SVG/1.1/DTD/svg11.dtd">
<svg xmlns:xlink="http://www.w3.org/1999/xlink" width="432pt" height="288pt" viewBox="0 0 432 288" xmlns="http://www.w3.org/2000/svg" version="1.1">
 <metadata>
  <rdf:RDF xmlns:dc="http://purl.org/dc/elements/1.1/" xmlns:cc="http://creativecommons.org/ns#" xmlns:rdf="http://www.w3.org/1999/02/22-rdf-syntax-ns#">
   <cc:Work>
    <dc:type rdf:resource="http://purl.org/dc/dcmitype/StillImage"/>
    <dc:date>2022-01-14T16:24:43.189963</dc:date>
    <dc:format>image/svg+xml</dc:format>
    <dc:creator>
     <cc:Agent>
      <dc:title>Matplotlib v3.5.0, https://matplotlib.org/</dc:title>
     </cc:Agent>
    </dc:creator>
   </cc:Work>
  </rdf:RDF>
 </metadata>
 <defs>
  <style type="text/css">*{stroke-linejoin: round; stroke-linecap: butt}</style>
 </defs>
 <g id="figure_1">
  <g id="patch_1">
   <path d="M 0 288 
L 432 288 
L 432 0 
L 0 0 
z
" style="fill: #ffffff"/>
  </g>
  <g id="axes_1">
   <g id="patch_2">
    <path d="M 54 252 
L 388.8 252 
L 388.8 34.56 
L 54 34.56 
z
" style="fill: #ffffff"/>
   </g>
   <g id="matplotlib.axis_1">
    <g id="xtick_1">
     <g id="text_1">
      <!-- W2V-BiLSTM -->
      <g style="fill: #262626" transform="translate(56.242781 269.748312)scale(0.132 -0.132)">
       <defs>
        <path id="ArialMT-57" d="M 1294 0 
L 78 4581 
L 700 4581 
L 1397 1578 
Q 1509 1106 1591 641 
Q 1766 1375 1797 1488 
L 2669 4581 
L 3400 4581 
L 4056 2263 
Q 4303 1400 4413 641 
Q 4500 1075 4641 1638 
L 5359 4581 
L 5969 4581 
L 4713 0 
L 4128 0 
L 3163 3491 
Q 3041 3928 3019 4028 
Q 2947 3713 2884 3491 
L 1913 0 
L 1294 0 
z
" transform="scale(0.015625)"/>
        <path id="ArialMT-32" d="M 3222 541 
L 3222 0 
L 194 0 
Q 188 203 259 391 
Q 375 700 629 1000 
Q 884 1300 1366 1694 
Q 2113 2306 2375 2664 
Q 2638 3022 2638 3341 
Q 2638 3675 2398 3904 
Q 2159 4134 1775 4134 
Q 1369 4134 1125 3890 
Q 881 3647 878 3216 
L 300 3275 
Q 359 3922 746 4261 
Q 1134 4600 1788 4600 
Q 2447 4600 2831 4234 
Q 3216 3869 3216 3328 
Q 3216 3053 3103 2787 
Q 2991 2522 2730 2228 
Q 2469 1934 1863 1422 
Q 1356 997 1212 845 
Q 1069 694 975 541 
L 3222 541 
z
" transform="scale(0.015625)"/>
        <path id="ArialMT-56" d="M 1803 0 
L 28 4581 
L 684 4581 
L 1875 1253 
Q 2019 853 2116 503 
Q 2222 878 2363 1253 
L 3600 4581 
L 4219 4581 
L 2425 0 
L 1803 0 
z
" transform="scale(0.015625)"/>
        <path id="ArialMT-2d" d="M 203 1375 
L 203 1941 
L 1931 1941 
L 1931 1375 
L 203 1375 
z
" transform="scale(0.015625)"/>
        <path id="ArialMT-42" d="M 469 0 
L 469 4581 
L 2188 4581 
Q 2713 4581 3030 4442 
Q 3347 4303 3526 4014 
Q 3706 3725 3706 3409 
Q 3706 3116 3547 2856 
Q 3388 2597 3066 2438 
Q 3481 2316 3704 2022 
Q 3928 1728 3928 1328 
Q 3928 1006 3792 729 
Q 3656 453 3456 303 
Q 3256 153 2954 76 
Q 2653 0 2216 0 
L 469 0 
z
M 1075 2656 
L 2066 2656 
Q 2469 2656 2644 2709 
Q 2875 2778 2992 2937 
Q 3109 3097 3109 3338 
Q 3109 3566 3000 3739 
Q 2891 3913 2687 3977 
Q 2484 4041 1991 4041 
L 1075 4041 
L 1075 2656 
z
M 1075 541 
L 2216 541 
Q 2509 541 2628 563 
Q 2838 600 2978 687 
Q 3119 775 3209 942 
Q 3300 1109 3300 1328 
Q 3300 1584 3169 1773 
Q 3038 1963 2805 2039 
Q 2572 2116 2134 2116 
L 1075 2116 
L 1075 541 
z
" transform="scale(0.015625)"/>
        <path id="ArialMT-69" d="M 425 3934 
L 425 4581 
L 988 4581 
L 988 3934 
L 425 3934 
z
M 425 0 
L 425 3319 
L 988 3319 
L 988 0 
L 425 0 
z
" transform="scale(0.015625)"/>
        <path id="ArialMT-4c" d="M 469 0 
L 469 4581 
L 1075 4581 
L 1075 541 
L 3331 541 
L 3331 0 
L 469 0 
z
" transform="scale(0.015625)"/>
        <path id="ArialMT-53" d="M 288 1472 
L 859 1522 
Q 900 1178 1048 958 
Q 1197 738 1509 602 
Q 1822 466 2213 466 
Q 2559 466 2825 569 
Q 3091 672 3220 851 
Q 3350 1031 3350 1244 
Q 3350 1459 3225 1620 
Q 3100 1781 2813 1891 
Q 2628 1963 1997 2114 
Q 1366 2266 1113 2400 
Q 784 2572 623 2826 
Q 463 3081 463 3397 
Q 463 3744 659 4045 
Q 856 4347 1234 4503 
Q 1613 4659 2075 4659 
Q 2584 4659 2973 4495 
Q 3363 4331 3572 4012 
Q 3781 3694 3797 3291 
L 3216 3247 
Q 3169 3681 2898 3903 
Q 2628 4125 2100 4125 
Q 1550 4125 1298 3923 
Q 1047 3722 1047 3438 
Q 1047 3191 1225 3031 
Q 1400 2872 2139 2705 
Q 2878 2538 3153 2413 
Q 3553 2228 3743 1945 
Q 3934 1663 3934 1294 
Q 3934 928 3725 604 
Q 3516 281 3123 101 
Q 2731 -78 2241 -78 
Q 1619 -78 1198 103 
Q 778 284 539 648 
Q 300 1013 288 1472 
z
" transform="scale(0.015625)"/>
        <path id="ArialMT-54" d="M 1659 0 
L 1659 4041 
L 150 4041 
L 150 4581 
L 3781 4581 
L 3781 4041 
L 2266 4041 
L 2266 0 
L 1659 0 
z
" transform="scale(0.015625)"/>
        <path id="ArialMT-4d" d="M 475 0 
L 475 4581 
L 1388 4581 
L 2472 1338 
Q 2622 884 2691 659 
Q 2769 909 2934 1394 
L 4031 4581 
L 4847 4581 
L 4847 0 
L 4263 0 
L 4263 3834 
L 2931 0 
L 2384 0 
L 1059 3900 
L 1059 0 
L 475 0 
z
" transform="scale(0.015625)"/>
       </defs>
       <use xlink:href="#ArialMT-57"/>
       <use xlink:href="#ArialMT-32" x="94.384766"/>
       <use xlink:href="#ArialMT-56" x="150"/>
       <use xlink:href="#ArialMT-2d" x="211.199219"/>
       <use xlink:href="#ArialMT-42" x="244.5"/>
       <use xlink:href="#ArialMT-69" x="311.199219"/>
       <use xlink:href="#ArialMT-4c" x="333.416016"/>
       <use xlink:href="#ArialMT-53" x="389.03125"/>
       <use xlink:href="#ArialMT-54" x="455.730469"/>
       <use xlink:href="#ArialMT-4d" x="516.814453"/>
      </g>
     </g>
    </g>
    <g id="xtick_2">
     <g id="text_2">
      <!-- mBERT -->
      <g style="fill: #262626" transform="translate(156.5655 269.748312)scale(0.132 -0.132)">
       <defs>
        <path id="ArialMT-6d" d="M 422 0 
L 422 3319 
L 925 3319 
L 925 2853 
Q 1081 3097 1340 3245 
Q 1600 3394 1931 3394 
Q 2300 3394 2536 3241 
Q 2772 3088 2869 2813 
Q 3263 3394 3894 3394 
Q 4388 3394 4653 3120 
Q 4919 2847 4919 2278 
L 4919 0 
L 4359 0 
L 4359 2091 
Q 4359 2428 4304 2576 
Q 4250 2725 4106 2815 
Q 3963 2906 3769 2906 
Q 3419 2906 3187 2673 
Q 2956 2441 2956 1928 
L 2956 0 
L 2394 0 
L 2394 2156 
Q 2394 2531 2256 2718 
Q 2119 2906 1806 2906 
Q 1569 2906 1367 2781 
Q 1166 2656 1075 2415 
Q 984 2175 984 1722 
L 984 0 
L 422 0 
z
" transform="scale(0.015625)"/>
        <path id="ArialMT-45" d="M 506 0 
L 506 4581 
L 3819 4581 
L 3819 4041 
L 1113 4041 
L 1113 2638 
L 3647 2638 
L 3647 2100 
L 1113 2100 
L 1113 541 
L 3925 541 
L 3925 0 
L 506 0 
z
" transform="scale(0.015625)"/>
        <path id="ArialMT-52" d="M 503 0 
L 503 4581 
L 2534 4581 
Q 3147 4581 3465 4457 
Q 3784 4334 3975 4021 
Q 4166 3709 4166 3331 
Q 4166 2844 3850 2509 
Q 3534 2175 2875 2084 
Q 3116 1969 3241 1856 
Q 3506 1613 3744 1247 
L 4541 0 
L 3778 0 
L 3172 953 
Q 2906 1366 2734 1584 
Q 2563 1803 2427 1890 
Q 2291 1978 2150 2013 
Q 2047 2034 1813 2034 
L 1109 2034 
L 1109 0 
L 503 0 
z
M 1109 2559 
L 2413 2559 
Q 2828 2559 3062 2645 
Q 3297 2731 3419 2920 
Q 3541 3109 3541 3331 
Q 3541 3656 3305 3865 
Q 3069 4075 2559 4075 
L 1109 4075 
L 1109 2559 
z
" transform="scale(0.015625)"/>
       </defs>
       <use xlink:href="#ArialMT-6d"/>
       <use xlink:href="#ArialMT-42" x="83.300781"/>
       <use xlink:href="#ArialMT-45" x="150"/>
       <use xlink:href="#ArialMT-52" x="216.699219"/>
       <use xlink:href="#ArialMT-54" x="287.166016"/>
      </g>
     </g>
    </g>
    <g id="xtick_3">
     <g id="text_3">
      <!-- HeBERT -->
      <g style="fill: #262626" transform="translate(237.326437 269.748312)scale(0.132 -0.132)">
       <defs>
        <path id="ArialMT-48" d="M 513 0 
L 513 4581 
L 1119 4581 
L 1119 2700 
L 3500 2700 
L 3500 4581 
L 4106 4581 
L 4106 0 
L 3500 0 
L 3500 2159 
L 1119 2159 
L 1119 0 
L 513 0 
z
" transform="scale(0.015625)"/>
        <path id="ArialMT-65" d="M 2694 1069 
L 3275 997 
Q 3138 488 2766 206 
Q 2394 -75 1816 -75 
Q 1088 -75 661 373 
Q 234 822 234 1631 
Q 234 2469 665 2931 
Q 1097 3394 1784 3394 
Q 2450 3394 2872 2941 
Q 3294 2488 3294 1666 
Q 3294 1616 3291 1516 
L 816 1516 
Q 847 969 1125 678 
Q 1403 388 1819 388 
Q 2128 388 2347 550 
Q 2566 713 2694 1069 
z
M 847 1978 
L 2700 1978 
Q 2663 2397 2488 2606 
Q 2219 2931 1791 2931 
Q 1403 2931 1139 2672 
Q 875 2413 847 1978 
z
" transform="scale(0.015625)"/>
       </defs>
       <use xlink:href="#ArialMT-48"/>
       <use xlink:href="#ArialMT-65" x="72.216797"/>
       <use xlink:href="#ArialMT-42" x="127.832031"/>
       <use xlink:href="#ArialMT-45" x="194.53125"/>
       <use xlink:href="#ArialMT-52" x="261.230469"/>
       <use xlink:href="#ArialMT-54" x="331.697266"/>
      </g>
     </g>
    </g>
    <g id="xtick_4">
     <g id="text_4">
      <!-- AlephBERT -->
      <g style="fill: #262626" transform="translate(312.583594 269.748312)scale(0.132 -0.132)">
       <defs>
        <path id="ArialMT-41" d="M -9 0 
L 1750 4581 
L 2403 4581 
L 4278 0 
L 3588 0 
L 3053 1388 
L 1138 1388 
L 634 0 
L -9 0 
z
M 1313 1881 
L 2866 1881 
L 2388 3150 
Q 2169 3728 2063 4100 
Q 1975 3659 1816 3225 
L 1313 1881 
z
" transform="scale(0.015625)"/>
        <path id="ArialMT-6c" d="M 409 0 
L 409 4581 
L 972 4581 
L 972 0 
L 409 0 
z
" transform="scale(0.015625)"/>
        <path id="ArialMT-70" d="M 422 -1272 
L 422 3319 
L 934 3319 
L 934 2888 
Q 1116 3141 1344 3267 
Q 1572 3394 1897 3394 
Q 2322 3394 2647 3175 
Q 2972 2956 3137 2557 
Q 3303 2159 3303 1684 
Q 3303 1175 3120 767 
Q 2938 359 2589 142 
Q 2241 -75 1856 -75 
Q 1575 -75 1351 44 
Q 1128 163 984 344 
L 984 -1272 
L 422 -1272 
z
M 931 1641 
Q 931 1000 1190 694 
Q 1450 388 1819 388 
Q 2194 388 2461 705 
Q 2728 1022 2728 1688 
Q 2728 2322 2467 2637 
Q 2206 2953 1844 2953 
Q 1484 2953 1207 2617 
Q 931 2281 931 1641 
z
" transform="scale(0.015625)"/>
        <path id="ArialMT-68" d="M 422 0 
L 422 4581 
L 984 4581 
L 984 2938 
Q 1378 3394 1978 3394 
Q 2347 3394 2619 3248 
Q 2891 3103 3008 2847 
Q 3125 2591 3125 2103 
L 3125 0 
L 2563 0 
L 2563 2103 
Q 2563 2525 2380 2717 
Q 2197 2909 1863 2909 
Q 1613 2909 1392 2779 
Q 1172 2650 1078 2428 
Q 984 2206 984 1816 
L 984 0 
L 422 0 
z
" transform="scale(0.015625)"/>
       </defs>
       <use xlink:href="#ArialMT-41"/>
       <use xlink:href="#ArialMT-6c" x="66.699219"/>
       <use xlink:href="#ArialMT-65" x="88.916016"/>
       <use xlink:href="#ArialMT-70" x="144.53125"/>
       <use xlink:href="#ArialMT-68" x="200.146484"/>
       <use xlink:href="#ArialMT-42" x="255.761719"/>
       <use xlink:href="#ArialMT-45" x="322.460938"/>
       <use xlink:href="#ArialMT-52" x="389.160156"/>
       <use xlink:href="#ArialMT-54" x="459.626953"/>
      </g>
     </g>
    </g>
   </g>
   <g id="matplotlib.axis_2">
    <g id="ytick_1">
     <g id="line2d_1">
      <path d="M 54 223.638261 
L 388.8 223.638261 
" clip-path="url(#p3fc3db4105)" style="fill: none; stroke: #cccccc; stroke-width: 0.8; stroke-linecap: round"/>
     </g>
     <g id="text_5">
      <!-- 0.80 -->
      <g style="fill: #262626" transform="translate(20.011563 228.362417)scale(0.132 -0.132)">
       <defs>
        <path id="ArialMT-30" d="M 266 2259 
Q 266 3072 433 3567 
Q 600 4063 929 4331 
Q 1259 4600 1759 4600 
Q 2128 4600 2406 4451 
Q 2684 4303 2865 4023 
Q 3047 3744 3150 3342 
Q 3253 2941 3253 2259 
Q 3253 1453 3087 958 
Q 2922 463 2592 192 
Q 2263 -78 1759 -78 
Q 1097 -78 719 397 
Q 266 969 266 2259 
z
M 844 2259 
Q 844 1131 1108 757 
Q 1372 384 1759 384 
Q 2147 384 2411 759 
Q 2675 1134 2675 2259 
Q 2675 3391 2411 3762 
Q 2147 4134 1753 4134 
Q 1366 4134 1134 3806 
Q 844 3388 844 2259 
z
" transform="scale(0.015625)"/>
        <path id="ArialMT-2e" d="M 581 0 
L 581 641 
L 1222 641 
L 1222 0 
L 581 0 
z
" transform="scale(0.015625)"/>
        <path id="ArialMT-38" d="M 1131 2484 
Q 781 2613 612 2850 
Q 444 3088 444 3419 
Q 444 3919 803 4259 
Q 1163 4600 1759 4600 
Q 2359 4600 2725 4251 
Q 3091 3903 3091 3403 
Q 3091 3084 2923 2848 
Q 2756 2613 2416 2484 
Q 2838 2347 3058 2040 
Q 3278 1734 3278 1309 
Q 3278 722 2862 322 
Q 2447 -78 1769 -78 
Q 1091 -78 675 323 
Q 259 725 259 1325 
Q 259 1772 486 2073 
Q 713 2375 1131 2484 
z
M 1019 3438 
Q 1019 3113 1228 2906 
Q 1438 2700 1772 2700 
Q 2097 2700 2305 2904 
Q 2513 3109 2513 3406 
Q 2513 3716 2298 3927 
Q 2084 4138 1766 4138 
Q 1444 4138 1231 3931 
Q 1019 3725 1019 3438 
z
M 838 1322 
Q 838 1081 952 856 
Q 1066 631 1291 507 
Q 1516 384 1775 384 
Q 2178 384 2440 643 
Q 2703 903 2703 1303 
Q 2703 1709 2433 1975 
Q 2163 2241 1756 2241 
Q 1359 2241 1098 1978 
Q 838 1716 838 1322 
z
" transform="scale(0.015625)"/>
       </defs>
       <use xlink:href="#ArialMT-30"/>
       <use xlink:href="#ArialMT-2e" x="55.615234"/>
       <use xlink:href="#ArialMT-38" x="83.398438"/>
       <use xlink:href="#ArialMT-30" x="139.013672"/>
      </g>
     </g>
    </g>
    <g id="ytick_2">
     <g id="line2d_2">
      <path d="M 54 176.368696 
L 388.8 176.368696 
" clip-path="url(#p3fc3db4105)" style="fill: none; stroke: #cccccc; stroke-width: 0.8; stroke-linecap: round"/>
     </g>
     <g id="text_6">
      <!-- 0.85 -->
      <g style="fill: #262626" transform="translate(20.011563 181.092852)scale(0.132 -0.132)">
       <defs>
        <path id="ArialMT-35" d="M 266 1200 
L 856 1250 
Q 922 819 1161 601 
Q 1400 384 1738 384 
Q 2144 384 2425 690 
Q 2706 997 2706 1503 
Q 2706 1984 2436 2262 
Q 2166 2541 1728 2541 
Q 1456 2541 1237 2417 
Q 1019 2294 894 2097 
L 366 2166 
L 809 4519 
L 3088 4519 
L 3088 3981 
L 1259 3981 
L 1013 2750 
Q 1425 3038 1878 3038 
Q 2478 3038 2890 2622 
Q 3303 2206 3303 1553 
Q 3303 931 2941 478 
Q 2500 -78 1738 -78 
Q 1113 -78 717 272 
Q 322 622 266 1200 
z
" transform="scale(0.015625)"/>
       </defs>
       <use xlink:href="#ArialMT-30"/>
       <use xlink:href="#ArialMT-2e" x="55.615234"/>
       <use xlink:href="#ArialMT-38" x="83.398438"/>
       <use xlink:href="#ArialMT-35" x="139.013672"/>
      </g>
     </g>
    </g>
    <g id="ytick_3">
     <g id="line2d_3">
      <path d="M 54 129.09913 
L 388.8 129.09913 
" clip-path="url(#p3fc3db4105)" style="fill: none; stroke: #cccccc; stroke-width: 0.8; stroke-linecap: round"/>
     </g>
     <g id="text_7">
      <!-- 0.90 -->
      <g style="fill: #262626" transform="translate(20.011563 133.823287)scale(0.132 -0.132)">
       <defs>
        <path id="ArialMT-39" d="M 350 1059 
L 891 1109 
Q 959 728 1153 556 
Q 1347 384 1650 384 
Q 1909 384 2104 503 
Q 2300 622 2425 820 
Q 2550 1019 2634 1356 
Q 2719 1694 2719 2044 
Q 2719 2081 2716 2156 
Q 2547 1888 2255 1720 
Q 1963 1553 1622 1553 
Q 1053 1553 659 1965 
Q 266 2378 266 3053 
Q 266 3750 677 4175 
Q 1088 4600 1706 4600 
Q 2153 4600 2523 4359 
Q 2894 4119 3086 3673 
Q 3278 3228 3278 2384 
Q 3278 1506 3087 986 
Q 2897 466 2520 194 
Q 2144 -78 1638 -78 
Q 1100 -78 759 220 
Q 419 519 350 1059 
z
M 2653 3081 
Q 2653 3566 2395 3850 
Q 2138 4134 1775 4134 
Q 1400 4134 1122 3828 
Q 844 3522 844 3034 
Q 844 2597 1108 2323 
Q 1372 2050 1759 2050 
Q 2150 2050 2401 2323 
Q 2653 2597 2653 3081 
z
" transform="scale(0.015625)"/>
       </defs>
       <use xlink:href="#ArialMT-30"/>
       <use xlink:href="#ArialMT-2e" x="55.615234"/>
       <use xlink:href="#ArialMT-39" x="83.398438"/>
       <use xlink:href="#ArialMT-30" x="139.013672"/>
      </g>
     </g>
    </g>
    <g id="ytick_4">
     <g id="line2d_4">
      <path d="M 54 81.829565 
L 388.8 81.829565 
" clip-path="url(#p3fc3db4105)" style="fill: none; stroke: #cccccc; stroke-width: 0.8; stroke-linecap: round"/>
     </g>
     <g id="text_8">
      <!-- 0.95 -->
      <g style="fill: #262626" transform="translate(20.011563 86.553721)scale(0.132 -0.132)">
       <use xlink:href="#ArialMT-30"/>
       <use xlink:href="#ArialMT-2e" x="55.615234"/>
       <use xlink:href="#ArialMT-39" x="83.398438"/>
       <use xlink:href="#ArialMT-35" x="139.013672"/>
      </g>
     </g>
    </g>
    <g id="ytick_5">
     <g id="line2d_5">
      <path d="M 54 34.56 
L 388.8 34.56 
" clip-path="url(#p3fc3db4105)" style="fill: none; stroke: #cccccc; stroke-width: 0.8; stroke-linecap: round"/>
     </g>
     <g id="text_9">
      <!-- 1.00 -->
      <g style="fill: #262626" transform="translate(20.011563 39.284156)scale(0.132 -0.132)">
       <defs>
        <path id="ArialMT-31" d="M 2384 0 
L 1822 0 
L 1822 3584 
Q 1619 3391 1289 3197 
Q 959 3003 697 2906 
L 697 3450 
Q 1169 3672 1522 3987 
Q 1875 4303 2022 4600 
L 2384 4600 
L 2384 0 
z
" transform="scale(0.015625)"/>
       </defs>
       <use xlink:href="#ArialMT-31"/>
       <use xlink:href="#ArialMT-2e" x="55.615234"/>
       <use xlink:href="#ArialMT-30" x="83.398438"/>
       <use xlink:href="#ArialMT-30" x="139.013672"/>
      </g>
     </g>
    </g>
    <g id="text_10">
     <!-- F1 -->
     <g style="fill: #262626" transform="translate(13.149563 151.6815)rotate(-90)scale(0.144 -0.144)">
      <defs>
       <path id="ArialMT-46" d="M 525 0 
L 525 4581 
L 3616 4581 
L 3616 4041 
L 1131 4041 
L 1131 2622 
L 3281 2622 
L 3281 2081 
L 1131 2081 
L 1131 0 
L 525 0 
z
" transform="scale(0.015625)"/>
      </defs>
      <use xlink:href="#ArialMT-46"/>
      <use xlink:href="#ArialMT-31" x="61.083984"/>
     </g>
    </g>
   </g>
   <g id="patch_3">
    <path d="M 62.37 100.661839 
L 129.33 100.661839 
L 129.33 65.275425 
L 62.37 65.275425 
L 62.37 100.661839 
z
" clip-path="url(#p3fc3db4105)" style="fill: #176d9c; stroke: #303030; stroke-width: 1.2; stroke-linejoin: miter"/>
   </g>
   <g id="patch_4">
    <path d="M 146.07 109.711036 
L 213.03 109.711036 
L 213.03 72.653928 
L 146.07 72.653928 
L 146.07 109.711036 
z
" clip-path="url(#p3fc3db4105)" style="fill: #c38820; stroke: #303030; stroke-width: 1.2; stroke-linejoin: miter"/>
   </g>
   <g id="patch_5">
    <path d="M 229.77 76.603721 
L 296.73 76.603721 
L 296.73 54.684341 
L 229.77 54.684341 
L 229.77 76.603721 
z
" clip-path="url(#p3fc3db4105)" style="fill: #158b6a; stroke: #303030; stroke-width: 1.2; stroke-linejoin: miter"/>
   </g>
   <g id="patch_6">
    <path d="M 313.47 74.707241 
L 380.43 74.707241 
L 380.43 52.641377 
L 313.47 52.641377 
L 313.47 74.707241 
z
" clip-path="url(#p3fc3db4105)" style="fill: #ba611b; stroke: #303030; stroke-width: 1.2; stroke-linejoin: miter"/>
   </g>
   <g id="line2d_6">
    <path d="M 95.85 100.661839 
L 95.85 129.34772 
" clip-path="url(#p3fc3db4105)" style="fill: none; stroke: #303030; stroke-width: 1.2; stroke-linecap: round"/>
   </g>
   <g id="line2d_7">
    <path d="M 95.85 65.275425 
L 95.85 42.928984 
" clip-path="url(#p3fc3db4105)" style="fill: none; stroke: #303030; stroke-width: 1.2; stroke-linecap: round"/>
   </g>
   <g id="line2d_8">
    <path d="M 79.11 129.34772 
L 112.59 129.34772 
" clip-path="url(#p3fc3db4105)" style="fill: none; stroke: #303030; stroke-width: 1.2; stroke-linecap: round"/>
   </g>
   <g id="line2d_9">
    <path d="M 79.11 42.928984 
L 112.59 42.928984 
" clip-path="url(#p3fc3db4105)" style="fill: none; stroke: #303030; stroke-width: 1.2; stroke-linecap: round"/>
   </g>
   <g id="line2d_10">
    <defs>
     <path id="m60b669bd28" d="M 0 3.535534 
L 2.12132 0 
L 0 -3.535534 
L -2.12132 0 
z
" style="stroke: #303030; stroke-linejoin: miter"/>
    </defs>
    <g clip-path="url(#p3fc3db4105)">
     <use xlink:href="#m60b669bd28" x="95.85" y="180.030286" style="fill: #303030; stroke: #303030; stroke-linejoin: miter"/>
     <use xlink:href="#m60b669bd28" x="95.85" y="160.650152" style="fill: #303030; stroke: #303030; stroke-linejoin: miter"/>
     <use xlink:href="#m60b669bd28" x="95.85" y="173.1843" style="fill: #303030; stroke: #303030; stroke-linejoin: miter"/>
     <use xlink:href="#m60b669bd28" x="95.85" y="157.811742" style="fill: #303030; stroke: #303030; stroke-linejoin: miter"/>
     <use xlink:href="#m60b669bd28" x="95.85" y="189.409326" style="fill: #303030; stroke: #303030; stroke-linejoin: miter"/>
     <use xlink:href="#m60b669bd28" x="95.85" y="185.81909" style="fill: #303030; stroke: #303030; stroke-linejoin: miter"/>
     <use xlink:href="#m60b669bd28" x="95.85" y="269.310867" style="fill: #303030; stroke: #303030; stroke-linejoin: miter"/>
    </g>
   </g>
   <g id="line2d_11">
    <path d="M 179.55 109.711036 
L 179.55 151.41021 
" clip-path="url(#p3fc3db4105)" style="fill: none; stroke: #303030; stroke-width: 1.2; stroke-linecap: round"/>
   </g>
   <g id="line2d_12">
    <path d="M 179.55 72.653928 
L 179.55 49.932489 
" clip-path="url(#p3fc3db4105)" style="fill: none; stroke: #303030; stroke-width: 1.2; stroke-linecap: round"/>
   </g>
   <g id="line2d_13">
    <path d="M 162.81 151.41021 
L 196.29 151.41021 
" clip-path="url(#p3fc3db4105)" style="fill: none; stroke: #303030; stroke-width: 1.2; stroke-linecap: round"/>
   </g>
   <g id="line2d_14">
    <path d="M 162.81 49.932489 
L 196.29 49.932489 
" clip-path="url(#p3fc3db4105)" style="fill: none; stroke: #303030; stroke-width: 1.2; stroke-linecap: round"/>
   </g>
   <g id="line2d_15">
    <g clip-path="url(#p3fc3db4105)">
     <use xlink:href="#m60b669bd28" x="179.55" y="186.674322" style="fill: #303030; stroke: #303030; stroke-linejoin: miter"/>
     <use xlink:href="#m60b669bd28" x="179.55" y="165.752024" style="fill: #303030; stroke: #303030; stroke-linejoin: miter"/>
     <use xlink:href="#m60b669bd28" x="179.55" y="172.10992" style="fill: #303030; stroke: #303030; stroke-linejoin: miter"/>
     <use xlink:href="#m60b669bd28" x="179.55" y="221.46602" style="fill: #303030; stroke: #303030; stroke-linejoin: miter"/>
     <use xlink:href="#m60b669bd28" x="179.55" y="203.121416" style="fill: #303030; stroke: #303030; stroke-linejoin: miter"/>
     <use xlink:href="#m60b669bd28" x="179.55" y="202.089584" style="fill: #303030; stroke: #303030; stroke-linejoin: miter"/>
     <use xlink:href="#m60b669bd28" x="179.55" y="214.522264" style="fill: #303030; stroke: #303030; stroke-linejoin: miter"/>
    </g>
   </g>
   <g id="line2d_16">
    <path d="M 263.25 76.603721 
L 263.25 107.570073 
" clip-path="url(#p3fc3db4105)" style="fill: none; stroke: #303030; stroke-width: 1.2; stroke-linecap: round"/>
   </g>
   <g id="line2d_17">
    <path d="M 263.25 54.684341 
L 263.25 41.155424 
" clip-path="url(#p3fc3db4105)" style="fill: none; stroke: #303030; stroke-width: 1.2; stroke-linecap: round"/>
   </g>
   <g id="line2d_18">
    <path d="M 246.51 107.570073 
L 279.99 107.570073 
" clip-path="url(#p3fc3db4105)" style="fill: none; stroke: #303030; stroke-width: 1.2; stroke-linecap: round"/>
   </g>
   <g id="line2d_19">
    <path d="M 246.51 41.155424 
L 279.99 41.155424 
" clip-path="url(#p3fc3db4105)" style="fill: none; stroke: #303030; stroke-width: 1.2; stroke-linecap: round"/>
   </g>
   <g id="line2d_20">
    <g clip-path="url(#p3fc3db4105)">
     <use xlink:href="#m60b669bd28" x="263.25" y="159.99726" style="fill: #303030; stroke: #303030; stroke-linejoin: miter"/>
     <use xlink:href="#m60b669bd28" x="263.25" y="129.41301" style="fill: #303030; stroke: #303030; stroke-linejoin: miter"/>
     <use xlink:href="#m60b669bd28" x="263.25" y="127.322944" style="fill: #303030; stroke: #303030; stroke-linejoin: miter"/>
     <use xlink:href="#m60b669bd28" x="263.25" y="134.530215" style="fill: #303030; stroke: #303030; stroke-linejoin: miter"/>
     <use xlink:href="#m60b669bd28" x="263.25" y="140.133519" style="fill: #303030; stroke: #303030; stroke-linejoin: miter"/>
     <use xlink:href="#m60b669bd28" x="263.25" y="155.151324" style="fill: #303030; stroke: #303030; stroke-linejoin: miter"/>
     <use xlink:href="#m60b669bd28" x="263.25" y="111.137007" style="fill: #303030; stroke: #303030; stroke-linejoin: miter"/>
     <use xlink:href="#m60b669bd28" x="263.25" y="165.200893" style="fill: #303030; stroke: #303030; stroke-linejoin: miter"/>
     <use xlink:href="#m60b669bd28" x="263.25" y="226.791437" style="fill: #303030; stroke: #303030; stroke-linejoin: miter"/>
    </g>
   </g>
   <g id="line2d_21">
    <path d="M 346.95 74.707241 
L 346.95 98.706823 
" clip-path="url(#p3fc3db4105)" style="fill: none; stroke: #303030; stroke-width: 1.2; stroke-linecap: round"/>
   </g>
   <g id="line2d_22">
    <path d="M 346.95 52.641377 
L 346.95 40.068223 
" clip-path="url(#p3fc3db4105)" style="fill: none; stroke: #303030; stroke-width: 1.2; stroke-linecap: round"/>
   </g>
   <g id="line2d_23">
    <path d="M 330.21 98.706823 
L 363.69 98.706823 
" clip-path="url(#p3fc3db4105)" style="fill: none; stroke: #303030; stroke-width: 1.2; stroke-linecap: round"/>
   </g>
   <g id="line2d_24">
    <path d="M 330.21 40.068223 
L 363.69 40.068223 
" clip-path="url(#p3fc3db4105)" style="fill: none; stroke: #303030; stroke-width: 1.2; stroke-linecap: round"/>
   </g>
   <g id="line2d_25">
    <g clip-path="url(#p3fc3db4105)">
     <use xlink:href="#m60b669bd28" x="346.95" y="154.132972" style="fill: #303030; stroke: #303030; stroke-linejoin: miter"/>
     <use xlink:href="#m60b669bd28" x="346.95" y="118.268938" style="fill: #303030; stroke: #303030; stroke-linejoin: miter"/>
     <use xlink:href="#m60b669bd28" x="346.95" y="120.76403" style="fill: #303030; stroke: #303030; stroke-linejoin: miter"/>
     <use xlink:href="#m60b669bd28" x="346.95" y="129.20964" style="fill: #303030; stroke: #303030; stroke-linejoin: miter"/>
     <use xlink:href="#m60b669bd28" x="346.95" y="108.566804" style="fill: #303030; stroke: #303030; stroke-linejoin: miter"/>
     <use xlink:href="#m60b669bd28" x="346.95" y="145.726123" style="fill: #303030; stroke: #303030; stroke-linejoin: miter"/>
     <use xlink:href="#m60b669bd28" x="346.95" y="110.664453" style="fill: #303030; stroke: #303030; stroke-linejoin: miter"/>
     <use xlink:href="#m60b669bd28" x="346.95" y="157.105137" style="fill: #303030; stroke: #303030; stroke-linejoin: miter"/>
     <use xlink:href="#m60b669bd28" x="346.95" y="228.657925" style="fill: #303030; stroke: #303030; stroke-linejoin: miter"/>
    </g>
   </g>
   <g id="line2d_26">
    <path d="M 62.37 81.432594 
L 129.33 81.432594 
" clip-path="url(#p3fc3db4105)" style="fill: none; stroke: #303030; stroke-width: 1.2; stroke-linecap: round"/>
   </g>
   <g id="line2d_27">
    <path d="M 146.07 90.338625 
L 213.03 90.338625 
" clip-path="url(#p3fc3db4105)" style="fill: none; stroke: #303030; stroke-width: 1.2; stroke-linecap: round"/>
   </g>
   <g id="line2d_28">
    <path d="M 229.77 62.500302 
L 296.73 62.500302 
" clip-path="url(#p3fc3db4105)" style="fill: none; stroke: #303030; stroke-width: 1.2; stroke-linecap: round"/>
   </g>
   <g id="line2d_29">
    <path d="M 313.47 61.087595 
L 380.43 61.087595 
" clip-path="url(#p3fc3db4105)" style="fill: none; stroke: #303030; stroke-width: 1.2; stroke-linecap: round"/>
   </g>
   <g id="patch_7">
    <path d="M 54 252 
L 54 34.56 
" style="fill: none; stroke: #cccccc; stroke-linejoin: miter; stroke-linecap: square"/>
   </g>
   <g id="patch_8">
    <path d="M 388.8 252 
L 388.8 34.56 
" style="fill: none; stroke: #cccccc; stroke-linejoin: miter; stroke-linecap: square"/>
   </g>
   <g id="patch_9">
    <path d="M 54 252 
L 388.8 252 
" style="fill: none; stroke: #cccccc; stroke-linejoin: miter; stroke-linecap: square"/>
   </g>
   <g id="patch_10">
    <path d="M 54 34.56 
L 388.8 34.56 
" style="fill: none; stroke: #cccccc; stroke-linejoin: miter; stroke-linecap: square"/>
   </g>
  </g>
 </g>
 <defs>
  <clipPath id="p3fc3db4105">
   <rect x="54" y="34.56" width="334.8" height="217.44"/>
  </clipPath>
 </defs>
</svg>
