<?xml version="1.0" encoding="utf-8"?>
<!-- Generator: Adobe Illustrator 22.0.0, SVG Export Plug-In . SVG Version: 6.00 Build 0)  -->
<svg version="1.1" id="Layer_1" xmlns="http://www.w3.org/2000/svg" xmlns:xlink="http://www.w3.org/1999/xlink" x="0px" y="0px"
	 viewBox="0 0 392.7 360" style="enable-background:new 0 0 392.7 360;" xml:space="preserve">
<style type="text/css">
	.st0{fill:#FFFFFF;}
	.st1{clip-path:url(#SVGID_8_);fill:none;stroke:#CCCCCC;stroke-width:0.8;stroke-linecap:round;stroke-linejoin:round;}
	.st2{fill:#262626;}
	.st3{clip-path:url(#SVGID_10_);fill:none;stroke:#CCCCCC;stroke-width:0.8;stroke-linecap:round;stroke-linejoin:round;}
	.st4{clip-path:url(#SVGID_12_);fill:none;stroke:#CCCCCC;stroke-width:0.8;stroke-linecap:round;stroke-linejoin:round;}
	.st5{clip-path:url(#SVGID_14_);fill:none;stroke:#CCCCCC;stroke-width:0.8;stroke-linecap:round;stroke-linejoin:round;}
	.st6{clip-path:url(#SVGID_16_);fill:none;stroke:#CCCCCC;stroke-width:0.8;stroke-linecap:round;stroke-linejoin:round;}
	.st7{fill:none;stroke:#CCCCCC;stroke-linecap:square;}
	.st8{clip-path:url(#SVGID_24_);fill:none;stroke:#CCCCCC;stroke-width:0.8;stroke-linecap:round;stroke-linejoin:round;}
	.st9{clip-path:url(#SVGID_26_);fill:none;stroke:#CCCCCC;stroke-width:0.8;stroke-linecap:round;stroke-linejoin:round;}
	.st10{clip-path:url(#SVGID_28_);fill:none;stroke:#CCCCCC;stroke-width:0.8;stroke-linecap:round;stroke-linejoin:round;}
	.st11{clip-path:url(#SVGID_30_);fill:none;stroke:#CCCCCC;stroke-width:0.8;stroke-linecap:round;stroke-linejoin:round;}
	.st12{clip-path:url(#SVGID_32_);fill:none;stroke:#CCCCCC;stroke-width:0.8;stroke-linecap:round;stroke-linejoin:round;}
	.st13{clip-path:url(#SVGID_34_);fill:none;stroke:#CCCCCC;stroke-width:0.8;stroke-linecap:round;stroke-linejoin:round;}
	.st14{clip-path:url(#SVGID_36_);fill:none;stroke:#CCCCCC;stroke-width:0.8;stroke-linecap:round;stroke-linejoin:round;}
	.st15{clip-path:url(#SVGID_38_);fill:none;stroke:#CCCCCC;stroke-width:0.8;stroke-linecap:round;stroke-linejoin:round;}
	.st16{clip-path:url(#SVGID_40_);}
	.st17{fill:#DE8F05;fill-opacity:0.8;stroke:#DE8F05;stroke-linejoin:round;stroke-opacity:0.8;}
	.st18{clip-path:url(#SVGID_42_);}
	.st19{fill:#DE8F05;fill-opacity:0.15;stroke:#FFFFFF;stroke-width:0.8;stroke-linejoin:round;stroke-opacity:0.15;}
	.st20{clip-path:url(#SVGID_44_);fill:none;stroke:#DE8F05;stroke-width:1.8;stroke-linecap:round;stroke-linejoin:round;}
</style>
<g id="figure_1">
	<g id="patch_1">
		<path class="st0" d="M-4.3,0v360"/>
		<path class="st0" d="M392.7,360V0"/>
	</g>
	<g id="axes_1">
		<g id="patch_2">
			<path class="st0" d="M61.4,32.6V306"/>
		</g>
		<g id="matplotlib.axis_1">
			<g id="xtick_1">
				<g id="line2d_1">
					<g>
						<defs>
							<line id="SVGID_1_" x1="61.4" y1="306" x2="61.4" y2="32.6"/>
						</defs>
						<clipPath id="SVGID_2_">
							<use xlink:href="#SVGID_1_"  style="overflow:visible;"/>
						</clipPath>
					</g>
				</g>
			</g>
			<g id="xtick_2">
				<g id="line2d_2">
					<g>
						<defs>
							<line id="SVGID_3_" x1="61.4" y1="306" x2="61.4" y2="32.6"/>
						</defs>
						<clipPath id="SVGID_4_">
							<use xlink:href="#SVGID_3_"  style="overflow:visible;"/>
						</clipPath>
					</g>
				</g>
			</g>
			<g id="xtick_3">
				<g id="line2d_3">
					<g>
						<defs>
							<line id="SVGID_5_" x1="61.4" y1="306" x2="61.4" y2="32.6"/>
						</defs>
						<clipPath id="SVGID_6_">
							<use xlink:href="#SVGID_5_"  style="overflow:visible;"/>
						</clipPath>
					</g>
				</g>
			</g>
			<g id="xtick_4">
			</g>
			<g id="xtick_5">
			</g>
			<g id="xtick_6">
			</g>
			<g id="xtick_7">
			</g>
			<g id="xtick_8">
			</g>
			<g id="xtick_9">
			</g>
			<g id="xtick_10">
			</g>
			<g id="xtick_11">
			</g>
			<g id="xtick_12">
			</g>
			<g id="xtick_13">
			</g>
			<g id="xtick_14">
			</g>
			<g id="xtick_15">
			</g>
			<g id="xtick_16">
			</g>
			<g id="xtick_17">
			</g>
			<g id="xtick_18">
			</g>
			<g id="xtick_19">
			</g>
			<g id="xtick_20">
			</g>
			<g id="xtick_21">
			</g>
			<g id="xtick_22">
			</g>
		</g>
		<g id="matplotlib.axis_2">
			<g id="ytick_1">
				<g id="line2d_4">
					<g>
						<defs>
							<line id="SVGID_7_" x1="61.4" y1="306" x2="61.4" y2="32.6"/>
						</defs>
						<clipPath id="SVGID_8_">
							<use xlink:href="#SVGID_7_"  style="overflow:visible;"/>
						</clipPath>
						<path class="st1" d="M61.4,287.8"/>
					</g>
				</g>
				<g id="text_5">
					<g transform="translate(33.738563 292.496065)scale(0.132 -0.132)">
						<g>
							<path id="ArialMT-30_3_" class="st2" d="M-28.7,35.3c0,8.5,0.9,15.3,2.6,20.4c1.7,5.2,4.3,9.1,7.8,11.9
								c3.4,2.8,7.8,4.2,13,4.2c3.8,0,7.2-0.8,10.1-2.3c2.9-1.5,5.3-3.8,7.2-6.7c1.9-2.9,3.4-6.5,4.5-10.6C17.5,48,18,42.4,18,35.3
								c0-8.4-0.9-15.2-2.6-20.3c-1.7-5.2-4.3-9.1-7.7-12c-3.4-2.8-7.8-4.2-13-4.2c-6.9,0-12.3,2.5-16.3,7.4
								C-26.3,12.2-28.7,21.9-28.7,35.3z M-19.6,35.3c0-11.7,1.4-19.6,4.1-23.5C-12.8,7.9-9.4,6-5.3,6c4,0,7.4,2,10.2,5.9
								S9,23.6,9,35.3c0,11.8-1.4,19.6-4.1,23.5c-2.7,3.9-6.2,5.8-10.3,5.8c-4,0-7.3-1.7-9.7-5.1C-18.1,55.1-19.6,47.1-19.6,35.3z"
								/>
						</g>
						<g>
							<path id="ArialMT-2e" class="st2" d="M31.9,0v10h10V0H31.9z"/>
						</g>
						<g>
							<path id="ArialMT-38" class="st2" d="M68.2,38.8c-3.6,1.3-6.3,3.3-8.1,5.7c-1.8,2.5-2.6,5.4-2.6,8.9c0,5.2,1.9,9.6,5.6,13.1
								c3.8,3.6,8.7,5.3,14.9,5.3c6.3,0,11.3-1.8,15.1-5.5c3.8-3.6,5.7-8,5.7-13.3c0-3.3-0.9-6.2-2.6-8.7c-1.7-2.4-4.4-4.3-7.9-5.7
								c4.4-1.4,7.7-3.7,10-6.9c2.3-3.2,3.4-7,3.4-11.4c0-6.1-2.2-11.3-6.5-15.4c-4.3-4.2-10-6.3-17.1-6.3S65.5,0.9,61.1,5
								c-4.3,4.2-6.5,9.4-6.5,15.7c0,4.7,1.2,8.6,3.5,11.7C60.5,35.5,63.9,37.7,68.2,38.8z M66.5,53.7c0-3.4,1.1-6.2,3.3-8.3
								c2.2-2.1,5-3.2,8.5-3.2c3.4,0,6.2,1.1,8.3,3.2c2.2,2.1,3.3,4.8,3.3,7.8c0,3.2-1.1,5.9-3.4,8.1c-2.2,2.2-5,3.3-8.3,3.3
								c-3.4,0-6.1-1.1-8.4-3.2C67.6,59.3,66.5,56.7,66.5,53.7z M63.7,20.7c0-2.5,0.6-4.9,1.8-7.3s3-4.2,5.3-5.5
								C73.1,6.6,75.6,6,78.3,6c4.2,0,7.7,1.3,10.4,4c2.7,2.7,4.1,6.1,4.1,10.3c0,4.2-1.4,7.7-4.2,10.5C85.8,33.6,82.2,35,78,35
								c-4.1,0-7.6-1.4-10.3-4.1C65,28.2,63.7,24.8,63.7,20.7z"/>
						</g>
						<g>
							<path id="ArialMT-30_4_" class="st2" d="M110.3,35.3c0,8.5,0.9,15.3,2.6,20.4c1.7,5.2,4.3,9.1,7.8,11.9
								c3.4,2.8,7.8,4.2,13,4.2c3.8,0,7.2-0.8,10.1-2.3c2.9-1.5,5.3-3.8,7.2-6.7c1.9-2.9,3.4-6.5,4.5-10.6c1.1-4.2,1.6-9.8,1.6-16.9
								c0-8.4-0.9-15.2-2.6-20.3c-1.7-5.2-4.3-9.1-7.7-12c-3.4-2.8-7.8-4.2-13-4.2c-6.9,0-12.3,2.5-16.2,7.4
								C112.7,12.2,110.3,21.9,110.3,35.3z M119.4,35.3c0-11.7,1.4-19.6,4.1-23.5c2.8-3.9,6.1-5.8,10.2-5.8c4,0,7.4,2,10.2,5.9
								s4.1,11.7,4.1,23.4c0,11.8-1.4,19.6-4.1,23.5c-2.8,3.9-6.2,5.8-10.3,5.8c-4,0-7.3-1.7-9.7-5.1
								C120.9,55.1,119.4,47.1,119.4,35.3z"/>
						</g>
					</g>
				</g>
			</g>
			<g id="ytick_2">
				<g id="line2d_5">
					<g>
						<defs>
							<line id="SVGID_9_" x1="61.4" y1="306" x2="61.4" y2="32.6"/>
						</defs>
						<clipPath id="SVGID_10_">
							<use xlink:href="#SVGID_9_"  style="overflow:visible;"/>
						</clipPath>
						<path class="st3" d="M61.4,233.1"/>
					</g>
				</g>
				<g id="text_6">
					<g transform="translate(33.738563 237.824723)scale(0.132 -0.132)">
						<g>
							<path id="ArialMT-30_5_" class="st2" d="M-28.7,35.3c0,8.5,0.9,15.3,2.6,20.4c1.7,5.2,4.3,9.1,7.8,11.9
								c3.4,2.8,7.8,4.2,13,4.2c3.8,0,7.2-0.8,10.1-2.3c2.9-1.5,5.3-3.8,7.2-6.7c1.9-2.9,3.4-6.5,4.5-10.6C17.5,48,18,42.4,18,35.3
								c0-8.4-0.9-15.2-2.6-20.3c-1.7-5.2-4.3-9.1-7.7-12c-3.4-2.8-7.8-4.2-13-4.2c-6.9,0-12.3,2.5-16.3,7.4
								C-26.3,12.2-28.7,21.9-28.7,35.3z M-19.6,35.3c0-11.7,1.4-19.6,4.1-23.5C-12.8,7.9-9.4,6-5.3,6c4,0,7.4,2,10.2,5.9
								S9,23.6,9,35.3c0,11.8-1.4,19.6-4.1,23.5c-2.7,3.9-6.2,5.8-10.3,5.8c-4,0-7.3-1.7-9.7-5.1C-18.1,55.1-19.6,47.1-19.6,35.3z"
								/>
						</g>
						<g>
							<path id="ArialMT-2e_1_" class="st2" d="M31.9,0v10h10V0H31.9z"/>
						</g>
						<g>
							<path id="ArialMT-38_1_" class="st2" d="M68.2,38.8c-3.6,1.3-6.3,3.3-8.1,5.7c-1.8,2.5-2.6,5.4-2.6,8.9
								c0,5.2,1.9,9.6,5.6,13.1c3.8,3.6,8.7,5.3,14.9,5.3c6.3,0,11.3-1.8,15.1-5.5c3.8-3.6,5.7-8,5.7-13.3c0-3.3-0.9-6.2-2.6-8.7
								c-1.7-2.4-4.4-4.3-7.9-5.7c4.4-1.4,7.7-3.7,10-6.9c2.3-3.2,3.4-7,3.4-11.4c0-6.1-2.2-11.3-6.5-15.4c-4.3-4.2-10-6.3-17.1-6.3
								S65.5,0.9,61.1,5c-4.3,4.2-6.5,9.4-6.5,15.7c0,4.7,1.2,8.6,3.5,11.7C60.5,35.5,63.9,37.7,68.2,38.8z M66.5,53.7
								c0-3.4,1.1-6.2,3.3-8.3c2.2-2.1,5-3.2,8.5-3.2c3.4,0,6.2,1.1,8.3,3.2c2.2,2.1,3.3,4.8,3.3,7.8c0,3.2-1.1,5.9-3.4,8.1
								c-2.2,2.2-5,3.3-8.3,3.3c-3.4,0-6.1-1.1-8.4-3.2C67.6,59.3,66.5,56.7,66.5,53.7z M63.7,20.7c0-2.5,0.6-4.9,1.8-7.3
								s3-4.2,5.3-5.5C73.1,6.6,75.6,6,78.3,6c4.2,0,7.7,1.3,10.4,4c2.7,2.7,4.1,6.1,4.1,10.3c0,4.2-1.4,7.7-4.2,10.5
								C85.8,33.6,82.2,35,78,35c-4.1,0-7.6-1.4-10.3-4.1C65,28.2,63.7,24.8,63.7,20.7z"/>
						</g>
						<g>
							<path id="ArialMT-35" class="st2" d="M110.3,18.7l9.2,0.8c0.7-4.5,2.3-7.9,4.8-10.1c2.5-2.3,5.5-3.4,9-3.4
								c4.2,0,7.8,1.6,10.7,4.8c2.9,3.2,4.4,7.4,4.4,12.7c0,5-1.4,9-4.2,11.9c-2.8,2.9-6.5,4.4-11.1,4.4c-2.8,0-5.4-0.6-7.7-1.9
								c-2.3-1.3-4.1-2.9-5.4-5l-8.3,1.1l6.9,36.8h35.6v-8.4h-28.6L122,43c4.3,3,8.8,4.5,13.5,4.5c6.3,0,11.5-2.2,15.8-6.5
								c4.3-4.3,6.5-9.9,6.5-16.7c0-6.5-1.9-12.1-5.7-16.8c-4.6-5.8-10.9-8.7-18.8-8.7c-6.5,0-11.8,1.8-16,5.5
								C113.3,7.9,110.9,12.7,110.3,18.7z"/>
						</g>
					</g>
				</g>
			</g>
			<g id="ytick_3">
				<g id="line2d_6">
					<g>
						<defs>
							<line id="SVGID_11_" x1="61.4" y1="306" x2="61.4" y2="32.6"/>
						</defs>
						<clipPath id="SVGID_12_">
							<use xlink:href="#SVGID_11_"  style="overflow:visible;"/>
						</clipPath>
						<path class="st4" d="M61.4,178.4"/>
					</g>
				</g>
				<g id="text_7">
					<g transform="translate(33.738563 183.15338)scale(0.132 -0.132)">
						<g>
							<path id="ArialMT-30_6_" class="st2" d="M-28.7,35.3c0,8.5,0.9,15.3,2.6,20.4c1.7,5.2,4.3,9.1,7.8,11.9
								c3.4,2.8,7.8,4.2,13,4.2c3.8,0,7.2-0.8,10.1-2.3c2.9-1.5,5.3-3.8,7.2-6.7c1.9-2.9,3.4-6.5,4.5-10.6C17.5,48,18,42.4,18,35.3
								c0-8.4-0.9-15.2-2.6-20.3c-1.7-5.2-4.3-9.1-7.7-12c-3.4-2.8-7.8-4.2-13-4.2c-6.9,0-12.3,2.5-16.3,7.4
								C-26.3,12.2-28.7,21.9-28.7,35.3z M-19.6,35.3c0-11.7,1.4-19.6,4.1-23.5C-12.8,7.9-9.4,6-5.3,6c4,0,7.4,2,10.2,5.9
								S9,23.6,9,35.3c0,11.8-1.4,19.6-4.1,23.5c-2.7,3.9-6.2,5.8-10.3,5.8c-4,0-7.3-1.7-9.7-5.1C-18.1,55.1-19.6,47.1-19.6,35.3z"
								/>
						</g>
						<g>
							<path id="ArialMT-2e_2_" class="st2" d="M31.9,0v10h10V0H31.9z"/>
						</g>
						<g>
							<path id="ArialMT-39" class="st2" d="M56,16.5l8.5,0.8c0.7-4,2.1-6.8,4.1-8.6S73.2,6,76.4,6c2.7,0,5.1,0.6,7.1,1.9
								c2,1.2,3.7,2.9,5,5c1.3,2.1,2.4,4.9,3.3,8.4c0.9,3.5,1.3,7.1,1.3,10.8c0,0.4,0,1,0,1.7c-1.8-2.8-4.2-5.1-7.2-6.8
								c-3-1.7-6.3-2.6-9.9-2.6c-5.9,0-10.9,2.1-15,6.4c-4.1,4.3-6.1,10-6.1,17c0,7.3,2.1,13.1,6.4,17.5s9.6,6.6,16.1,6.6
								c4.7,0,8.9-1.3,12.8-3.8c3.9-2.5,6.8-6.1,8.8-10.7c2-4.6,3-11.3,3-20.1c0-9.1-1-16.4-3-21.8c-2-5.4-4.9-9.5-8.9-12.4
								C86,0.2,81.4-1.2,76.2-1.2c-5.6,0-10.2,1.6-13.7,4.7C58.9,6.6,56.8,10.9,56,16.5z M92,48.1c0,5.1-1.3,9.1-4,12
								c-2.7,3-5.9,4.4-9.7,4.4c-3.9,0-7.3-1.6-10.2-4.8s-4.3-7.3-4.3-12.4c0-4.6,1.4-8.3,4.1-11.1C70.6,33.5,74,32,78.1,32
								c4.1,0,7.4,1.4,10,4.3C90.7,39.2,92,43.1,92,48.1z"/>
						</g>
						<g>
							<path id="ArialMT-30_7_" class="st2" d="M110.3,35.3c0,8.5,0.9,15.3,2.6,20.4c1.7,5.2,4.3,9.1,7.8,11.9
								c3.4,2.8,7.8,4.2,13,4.2c3.8,0,7.2-0.8,10.1-2.3c2.9-1.5,5.3-3.8,7.2-6.7c1.9-2.9,3.4-6.5,4.5-10.6c1.1-4.2,1.6-9.8,1.6-16.9
								c0-8.4-0.9-15.2-2.6-20.3c-1.7-5.2-4.3-9.1-7.7-12c-3.4-2.8-7.8-4.2-13-4.2c-6.9,0-12.3,2.5-16.2,7.4
								C112.7,12.2,110.3,21.9,110.3,35.3z M119.4,35.3c0-11.7,1.4-19.6,4.1-23.5c2.8-3.9,6.1-5.8,10.2-5.8c4,0,7.4,2,10.2,5.9
								s4.1,11.7,4.1,23.4c0,11.8-1.4,19.6-4.1,23.5c-2.8,3.9-6.2,5.8-10.3,5.8c-4,0-7.3-1.7-9.7-5.1
								C120.9,55.1,119.4,47.1,119.4,35.3z"/>
						</g>
					</g>
				</g>
			</g>
			<g id="ytick_4">
				<g id="line2d_7">
					<g>
						<defs>
							<line id="SVGID_13_" x1="61.4" y1="306" x2="61.4" y2="32.6"/>
						</defs>
						<clipPath id="SVGID_14_">
							<use xlink:href="#SVGID_13_"  style="overflow:visible;"/>
						</clipPath>
						<path class="st5" d="M61.4,123.8"/>
					</g>
				</g>
				<g id="text_8">
					<g transform="translate(33.738563 128.482037)scale(0.132 -0.132)">
						<g>
							<path id="ArialMT-30_8_" class="st2" d="M-28.7,35.3c0,8.5,0.9,15.3,2.6,20.4c1.7,5.2,4.3,9.1,7.8,11.9
								c3.4,2.8,7.8,4.2,13,4.2c3.8,0,7.2-0.8,10.1-2.3c2.9-1.5,5.3-3.8,7.2-6.7c1.9-2.9,3.4-6.5,4.5-10.6C17.5,48,18,42.4,18,35.3
								c0-8.4-0.9-15.2-2.6-20.3c-1.7-5.2-4.3-9.1-7.7-12c-3.4-2.8-7.8-4.2-13-4.2c-6.9,0-12.3,2.5-16.3,7.4
								C-26.3,12.2-28.7,21.9-28.7,35.3z M-19.6,35.3c0-11.8,1.4-19.6,4.1-23.5C-12.8,7.9-9.4,6-5.3,6c4,0,7.4,2,10.2,5.9
								S9,23.6,9,35.3c0,11.8-1.4,19.6-4.1,23.5c-2.7,3.9-6.2,5.8-10.3,5.8c-4,0-7.3-1.7-9.7-5.1C-18.1,55.1-19.6,47.1-19.6,35.3z"
								/>
						</g>
						<g>
							<path id="ArialMT-2e_3_" class="st2" d="M31.9,0v10h10V0H31.9z"/>
						</g>
						<g>
							<path id="ArialMT-39_1_" class="st2" d="M56,16.5l8.5,0.8c0.7-4,2.1-6.8,4.1-8.6S73.2,6,76.4,6c2.7,0,5.1,0.6,7.1,1.9
								c2,1.2,3.7,2.9,5,5c1.3,2.1,2.4,4.9,3.3,8.4c0.9,3.5,1.3,7.1,1.3,10.8c0,0.4,0,1,0,1.8c-1.8-2.8-4.2-5.1-7.2-6.8
								c-3-1.7-6.3-2.6-9.9-2.6c-5.9,0-10.9,2.1-15,6.4c-4.1,4.3-6.1,10-6.1,17c0,7.3,2.1,13.1,6.4,17.5s9.6,6.6,16.1,6.6
								c4.7,0,8.9-1.3,12.8-3.8c3.9-2.5,6.8-6.1,8.8-10.7c2-4.6,3-11.3,3-20.1c0-9.1-1-16.4-3-21.8c-2-5.4-4.9-9.5-8.9-12.4
								C86,0.2,81.4-1.2,76.2-1.2c-5.6,0-10.2,1.6-13.7,4.7C58.9,6.6,56.8,10.9,56,16.5z M92,48.1c0,5.1-1.3,9.1-4,12
								c-2.7,3-5.9,4.4-9.7,4.4c-3.9,0-7.3-1.6-10.2-4.8s-4.3-7.3-4.3-12.4c0-4.6,1.4-8.3,4.1-11.1C70.6,33.5,74,32,78.1,32
								c4.1,0,7.4,1.4,10,4.3C90.7,39.2,92,43.1,92,48.1z"/>
						</g>
						<g>
							<path id="ArialMT-35_1_" class="st2" d="M110.3,18.7l9.2,0.8c0.7-4.5,2.3-7.9,4.8-10.1c2.5-2.3,5.5-3.4,9-3.4
								c4.2,0,7.8,1.6,10.7,4.8c2.9,3.2,4.4,7.4,4.4,12.7c0,5-1.4,9-4.2,11.9c-2.8,2.9-6.5,4.4-11.1,4.4c-2.8,0-5.4-0.6-7.7-1.9
								c-2.3-1.3-4.1-2.9-5.4-5l-8.3,1.1l6.9,36.8h35.6v-8.4h-28.6L122,43c4.3,3,8.8,4.5,13.5,4.5c6.3,0,11.5-2.2,15.8-6.5
								c4.3-4.3,6.5-9.9,6.5-16.7c0-6.5-1.9-12.1-5.7-16.8c-4.6-5.8-10.9-8.7-18.8-8.7c-6.5,0-11.8,1.8-16,5.5
								C113.3,7.9,110.9,12.7,110.3,18.7z"/>
						</g>
					</g>
				</g>
			</g>
			<g id="ytick_5">
				<g id="line2d_8">
					<g>
						<defs>
							<line id="SVGID_15_" x1="61.4" y1="306" x2="61.4" y2="32.6"/>
						</defs>
						<clipPath id="SVGID_16_">
							<use xlink:href="#SVGID_15_"  style="overflow:visible;"/>
						</clipPath>
						<path class="st6" d="M61.4,69.1"/>
					</g>
				</g>
				<g id="text_9">
					<g transform="translate(33.738563 73.810694)scale(0.132 -0.132)">
						<g>
							<path id="ArialMT-31_6_" class="st2" d="M4.4,0h-8.8v56c-2.1-2-4.9-4-8.3-6s-6.5-3.5-9.3-4.5v8.5C-17,56.2-12.7,59-9,62.3
								c3.7,3.3,6.3,6.5,7.8,9.6h5.7V0z"/>
						</g>
						<g>
							<path id="ArialMT-2e_4_" class="st2" d="M31.9,0v10h10V0H31.9z"/>
						</g>
						<g>
							<path id="ArialMT-30_9_" class="st2" d="M54.7,35.3c0,8.5,0.9,15.3,2.6,20.4c1.7,5.2,4.3,9.1,7.8,11.9
								c3.4,2.8,7.8,4.2,13,4.2c3.8,0,7.2-0.8,10.1-2.3c2.9-1.5,5.3-3.8,7.2-6.7c1.9-2.9,3.4-6.5,4.5-10.6c1.1-4.2,1.6-9.8,1.6-16.9
								c0-8.4-0.9-15.2-2.6-20.3c-1.7-5.2-4.3-9.1-7.7-12c-3.4-2.8-7.8-4.2-13-4.2c-6.9,0-12.3,2.5-16.3,7.4
								C57.1,12.2,54.7,21.9,54.7,35.3z M63.8,35.3c0-11.7,1.4-19.6,4.1-23.5C70.6,7.9,74,6,78.1,6c4,0,7.4,2,10.2,5.9
								s4.1,11.7,4.1,23.4c0,11.8-1.4,19.6-4.1,23.5c-2.8,3.9-6.2,5.8-10.3,5.8c-4,0-7.3-1.7-9.7-5.1C65.3,55.1,63.8,47.1,63.8,35.3
								z"/>
						</g>
						<g>
							<path id="ArialMT-30_10_" class="st2" d="M110.3,35.3c0,8.5,0.9,15.3,2.6,20.4c1.7,5.2,4.3,9.1,7.8,11.9
								c3.4,2.8,7.8,4.2,13,4.2c3.8,0,7.2-0.8,10.1-2.3c2.9-1.5,5.3-3.8,7.2-6.7c1.9-2.9,3.4-6.5,4.5-10.6c1.1-4.2,1.6-9.8,1.6-16.9
								c0-8.4-0.9-15.2-2.6-20.3c-1.7-5.2-4.3-9.1-7.7-12c-3.4-2.8-7.8-4.2-13-4.2c-6.9,0-12.3,2.5-16.2,7.4
								C112.7,12.2,110.3,21.9,110.3,35.3z M119.4,35.3c0-11.7,1.4-19.6,4.1-23.5c2.8-3.9,6.1-5.8,10.2-5.8c4,0,7.4,2,10.2,5.9
								s4.1,11.7,4.1,23.4c0,11.8-1.4,19.6-4.1,23.5c-2.8,3.9-6.2,5.8-10.3,5.8c-4,0-7.3-1.7-9.7-5.1
								C120.9,55.1,119.4,47.1,119.4,35.3z"/>
						</g>
					</g>
				</g>
			</g>
			<g id="text_10">
				<g transform="translate(26.876562 177.681188)rotate(-90)scale(0.144 -0.144)">
					<g>
						<path id="ArialMT-46" class="st2" d="M8.2,30.1v71.6h48.3v-8.4H17.7V71.1h33.6v-8.5H17.7V30.1H8.2z"/>
					</g>
					<g>
						<path id="ArialMT-31_7_" class="st2" d="M98.3,30.1h-8.8v56c-2.1-2-4.9-4-8.3-6c-3.4-2-6.5-3.5-9.3-4.5V84
							c4.9,2.3,9.2,5.1,12.9,8.4c3.7,3.3,6.3,6.5,7.8,9.6h5.7V30.1z"/>
					</g>
				</g>
			</g>
		</g>
		<g id="PathCollection_1">
			<g>
				<defs>
					<line id="SVGID_17_" x1="61.4" y1="306" x2="61.4" y2="32.6"/>
				</defs>
				<clipPath id="SVGID_18_">
					<use xlink:href="#SVGID_17_"  style="overflow:visible;"/>
				</clipPath>
			</g>
		</g>
		<g id="PolyCollection_1">
			<g>
				<defs>
					<line id="SVGID_19_" x1="61.4" y1="306" x2="61.4" y2="32.6"/>
				</defs>
				<clipPath id="SVGID_20_">
					<use xlink:href="#SVGID_19_"  style="overflow:visible;"/>
				</clipPath>
			</g>
		</g>
		<g id="line2d_9">
			<g>
				<defs>
					<line id="SVGID_21_" x1="61.4" y1="306" x2="61.4" y2="32.6"/>
				</defs>
				<clipPath id="SVGID_22_">
					<use xlink:href="#SVGID_21_"  style="overflow:visible;"/>
				</clipPath>
			</g>
		</g>
		<g id="patch_3">
			<path class="st7" d="M61.4,32.6"/>
			<path class="st7" d="M61.4,306"/>
		</g>
		<g id="patch_4">
			<path class="st7" d="M61.4,306"/>
		</g>
	</g>
	<g id="axes_2">
		<g id="patch_5">
			<path class="st0" d="M66.5,306h310.6V32.6H66.5V306z"/>
		</g>
		<g id="matplotlib.axis_3">
			<g id="xtick_23">
				<g id="line2d_10">
					<g>
						<defs>
							<rect id="SVGID_23_" x="66.5" y="32.6" width="310.6" height="273.5"/>
						</defs>
						<clipPath id="SVGID_24_">
							<use xlink:href="#SVGID_23_"  style="overflow:visible;"/>
						</clipPath>
						<path class="st8" d="M78.8,306V32.6"/>
					</g>
				</g>
				<g id="text_12">
					<g transform="translate(396.99119 323.755688)scale(0.132 -0.132)">
						<g>
							<path id="ArialMT-31_8_" class="st2" d="M-2442.5,0h-8.8v56c-2.1-2-4.9-4-8.3-6s-6.5-3.5-9.3-4.5v8.5
								c4.9,2.3,9.2,5.1,12.9,8.4c3.7,3.3,6.3,6.5,7.8,9.6h5.7V0z"/>
						</g>
						<g>
							<path id="ArialMT-3a_3_" class="st2" d="M-2415.2,41.8v10h10v-10H-2415.2z M-2415.2,0v10h10V0H-2415.2z"/>
						</g>
						<g>
							<path id="ArialMT-31_9_" class="st2" d="M-2359.1,0h-8.8v56c-2.1-2-4.9-4-8.3-6s-6.5-3.5-9.3-4.5v8.5
								c4.9,2.3,9.2,5.1,12.9,8.4c3.7,3.3,6.3,6.5,7.8,9.6h5.7V0z"/>
						</g>
					</g>
				</g>
			</g>
			<g id="xtick_24">
				<g id="line2d_11">
					<g>
						<defs>
							<rect id="SVGID_25_" x="66.5" y="32.6" width="310.6" height="273.5"/>
						</defs>
						<clipPath id="SVGID_26_">
							<use xlink:href="#SVGID_25_"  style="overflow:visible;"/>
						</clipPath>
						<path class="st9" d="M203.9,306V32.6"/>
					</g>
				</g>
				<g id="text_13">
					<g transform="translate(518.370524 323.755688)scale(0.132 -0.132)">
						<g>
							<path id="ArialMT-31_10_" class="st2" d="M-2442.5,0h-8.8v56c-2.1-2-4.9-4-8.3-6s-6.5-3.5-9.3-4.5v8.5
								c4.9,2.3,9.2,5.1,12.9,8.4c3.7,3.3,6.3,6.5,7.8,9.6h5.7V0z"/>
						</g>
						<g>
							<path id="ArialMT-3a_4_" class="st2" d="M-2415.2,41.8v10h10v-10H-2415.2z M-2415.2,0v10h10V0H-2415.2z"/>
						</g>
						<g>
							<path id="ArialMT-31_11_" class="st2" d="M-2359.1,0h-8.8v56c-2.1-2-4.9-4-8.3-6s-6.5-3.5-9.3-4.5v8.5
								c4.9,2.3,9.2,5.1,12.9,8.4c3.7,3.3,6.3,6.5,7.8,9.6h5.7V0z"/>
						</g>
						<g>
							<path id="ArialMT-30_11_" class="st2" d="M-2336.6,35.3c0,8.5,0.9,15.3,2.6,20.4c1.7,5.2,4.3,9.1,7.8,11.9
								c3.4,2.8,7.8,4.2,13,4.2c3.8,0,7.2-0.8,10.1-2.3c2.9-1.5,5.3-3.8,7.2-6.7c1.9-2.9,3.4-6.5,4.5-10.6c1.1-4.2,1.6-9.8,1.6-16.9
								c0-8.4-0.9-15.2-2.6-20.3c-1.7-5.2-4.3-9.1-7.7-12c-3.4-2.8-7.8-4.2-13-4.2c-6.9,0-12.3,2.5-16.3,7.4
								C-2334.3,12.2-2336.6,21.9-2336.6,35.3z M-2327.6,35.3c0-11.7,1.4-19.6,4.1-23.5c2.8-3.9,6.1-5.8,10.2-5.8
								c4,0,7.4,2,10.2,5.9s4.1,11.7,4.1,23.4c0,11.8-1.4,19.6-4.1,23.5c-2.8,3.9-6.2,5.8-10.3,5.8c-4,0-7.3-1.7-9.7-5.1
								C-2326.1,55.1-2327.6,47.1-2327.6,35.3z"/>
						</g>
					</g>
				</g>
			</g>
			<g id="xtick_25">
				<g id="line2d_12">
					<g>
						<defs>
							<rect id="SVGID_27_" x="66.5" y="32.6" width="310.6" height="273.5"/>
						</defs>
						<clipPath id="SVGID_28_">
							<use xlink:href="#SVGID_27_"  style="overflow:visible;"/>
						</clipPath>
						<path class="st10" d="M328.9,306V32.6"/>
					</g>
				</g>
				<g id="text_14">
					<g transform="translate(639.749858 323.755688)scale(0.132 -0.132)">
						<g>
							<path id="ArialMT-31_12_" class="st2" d="M-2442.5,0h-8.8v56c-2.1-2-4.9-4-8.3-6s-6.5-3.5-9.3-4.5v8.5
								c4.9,2.3,9.2,5.1,12.9,8.4c3.7,3.3,6.3,6.5,7.8,9.6h5.7V0z"/>
						</g>
						<g>
							<path id="ArialMT-3a_5_" class="st2" d="M-2415.2,41.8v10h10v-10H-2415.2z M-2415.2,0v10h10V0H-2415.2z"/>
						</g>
						<g>
							<path id="ArialMT-31_13_" class="st2" d="M-2359.1,0h-8.8v56c-2.1-2-4.9-4-8.3-6s-6.5-3.5-9.3-4.5v8.5
								c4.9,2.3,9.2,5.1,12.9,8.4c3.7,3.3,6.3,6.5,7.8,9.6h5.7V0z"/>
						</g>
						<g>
							<path id="ArialMT-30_12_" class="st2" d="M-2336.6,35.3c0,8.5,0.9,15.3,2.6,20.4c1.7,5.2,4.3,9.1,7.8,11.9
								c3.4,2.8,7.8,4.2,13,4.2c3.8,0,7.2-0.8,10.1-2.3c2.9-1.5,5.3-3.8,7.2-6.7c1.9-2.9,3.4-6.5,4.5-10.6c1.1-4.2,1.6-9.8,1.6-16.9
								c0-8.4-0.9-15.2-2.6-20.3c-1.7-5.2-4.3-9.1-7.7-12c-3.4-2.8-7.8-4.2-13-4.2c-6.9,0-12.3,2.5-16.3,7.4
								C-2334.3,12.2-2336.6,21.9-2336.6,35.3z M-2327.6,35.3c0-11.7,1.4-19.6,4.1-23.5c2.8-3.9,6.1-5.8,10.2-5.8
								c4,0,7.4,2,10.2,5.9s4.1,11.7,4.1,23.4c0,11.8-1.4,19.6-4.1,23.5c-2.8,3.9-6.2,5.8-10.3,5.8c-4,0-7.3-1.7-9.7-5.1
								C-2326.1,55.1-2327.6,47.1-2327.6,35.3z"/>
						</g>
						<g>
							<path id="ArialMT-30_13_" class="st2" d="M-2281,35.3c0,8.5,0.9,15.3,2.6,20.4c1.7,5.2,4.3,9.1,7.8,11.9
								c3.4,2.8,7.8,4.2,13,4.2c3.8,0,7.2-0.8,10.1-2.3c2.9-1.5,5.3-3.8,7.2-6.7c1.9-2.9,3.4-6.5,4.5-10.6c1.1-4.2,1.6-9.8,1.6-16.9
								c0-8.4-0.9-15.2-2.6-20.3c-1.7-5.2-4.3-9.1-7.7-12c-3.4-2.8-7.8-4.2-13-4.2c-6.9,0-12.3,2.5-16.3,7.4
								C-2278.7,12.2-2281,21.9-2281,35.3z M-2272,35.3c0-11.7,1.4-19.6,4.1-23.5c2.8-3.9,6.1-5.8,10.2-5.8c4,0,7.4,2,10.2,5.9
								s4.1,11.7,4.1,23.4c0,11.8-1.4,19.6-4.1,23.5c-2.8,3.9-6.2,5.8-10.3,5.8c-4,0-7.3-1.7-9.7-5.1
								C-2270.5,55.1-2272,47.1-2272,35.3z"/>
						</g>
					</g>
				</g>
			</g>
			<g id="xtick_26">
			</g>
			<g id="xtick_27">
			</g>
			<g id="xtick_28">
			</g>
			<g id="xtick_29">
			</g>
			<g id="xtick_30">
			</g>
			<g id="xtick_31">
			</g>
			<g id="xtick_32">
			</g>
			<g id="xtick_33">
			</g>
			<g id="xtick_34">
			</g>
			<g id="xtick_35">
			</g>
			<g id="xtick_36">
			</g>
			<g id="xtick_37">
			</g>
			<g id="xtick_38">
			</g>
			<g id="xtick_39">
			</g>
			<g id="xtick_40">
			</g>
			<g id="xtick_41">
			</g>
			<g id="xtick_42">
			</g>
			<g id="xtick_43">
			</g>
			<g id="xtick_44">
			</g>
			<g id="text_15">
				<g transform="translate(493.53125 340.861938)scale(0.144 -0.144)">
					<g>
						<path id="ArialMT-52_2_" class="st2" d="M-2265.3,0v71.6h31.7c6.4,0,11.2-0.6,14.5-1.9c3.3-1.3,6-3.6,8-6.8
							c2-3.3,3-6.8,3-10.8c0-5.1-1.6-9.4-4.9-12.8c-3.3-3.5-8.4-5.7-15.2-6.6c2.5-1.2,4.4-2.4,5.7-3.6c2.8-2.5,5.4-5.7,7.9-9.5
							l12.5-19.5h-11.9l-9.5,14.9c-2.8,4.3-5.1,7.6-6.8,9.9c-1.8,2.3-3.4,3.9-4.8,4.8c-1.4,0.9-2.9,1.6-4.3,1.9
							c-1.1,0.2-2.8,0.3-5.3,0.3h-11V0H-2265.3z M-2255.8,40h20.4c4.3,0,7.7,0.4,10.1,1.3c2.4,0.9,4.3,2.3,5.6,4.3
							c1.3,2,1.9,4.1,1.9,6.4c0,3.4-1.2,6.2-3.7,8.3c-2.5,2.2-6.3,3.3-11.7,3.3h-22.7V40z"/>
					</g>
					<g>
						<path id="ArialMT-61_3_" class="st2" d="M-2160.5,6.4c-3.3-2.8-6.4-4.7-9.4-5.9c-3-1.1-6.2-1.7-9.7-1.7
							c-5.7,0-10.1,1.4-13.1,4.2s-4.6,6.3-4.6,10.7c0,2.5,0.6,4.9,1.7,7c1.2,2.1,2.7,3.8,4.5,5.1s4,2.2,6.3,2.9
							c1.7,0.5,4.3,0.9,7.8,1.3c7.1,0.8,12.3,1.8,15.7,3c0,1.2,0,2,0,2.3c0,3.6-0.8,6.1-2.5,7.6c-2.2,2-5.6,3-10,3
							c-4.1,0-7.2-0.7-9.2-2.2s-3.4-4-4.4-7.7l-8.6,1.2c0.8,3.7,2.1,6.6,3.9,8.9c1.8,2.3,4.4,4,7.8,5.2c3.4,1.2,7.3,1.8,11.8,1.8
							c4.4,0,8-0.5,10.8-1.6c2.8-1,4.8-2.4,6.1-3.9c1.3-1.6,2.2-3.6,2.7-6c0.3-1.5,0.4-4.2,0.4-8.1V21.7c0-8.2,0.2-13.3,0.6-15.5
							c0.4-2.2,1.1-4.2,2.2-6.2h-9.2C-2159.7,1.8-2160.2,4-2160.5,6.4z M-2161.2,26c-3.2-1.3-8-2.4-14.4-3.3
							c-3.6-0.5-6.2-1.1-7.7-1.8c-1.5-0.6-2.6-1.6-3.5-2.8c-0.8-1.3-1.2-2.6-1.2-4.2c0-2.3,0.9-4.3,2.7-5.9c1.8-1.6,4.4-2.3,7.8-2.3
							c3.4,0,6.4,0.7,9,2.2c2.6,1.5,4.6,3.5,5.8,6.1c0.9,2,1.4,4.9,1.4,8.8V26z"/>
					</g>
					<g>
						<path id="ArialMT-74_1_" class="st2" d="M-2119.5,7.9l1.3-7.8c-2.5-0.5-4.7-0.8-6.6-0.8c-3.2,0-5.7,0.5-7.4,1.5
							c-1.8,1-3,2.3-3.7,4s-1.1,5.1-1.1,10.4V45h-6.4v6.8h6.4v12.8l8.7,5.3V51.9h8.8V45h-8.8V14.7c0-2.5,0.2-4.1,0.5-4.8
							c0.3-0.7,0.8-1.3,1.5-1.7c0.7-0.4,1.7-0.6,3-0.6C-2122.4,7.5-2121.1,7.6-2119.5,7.9z"/>
					</g>
					<g>
						<path id="ArialMT-69_1_" class="st2" d="M-2110.9,61.5v10.1h8.8V61.5H-2110.9z M-2110.9,0v51.9h8.8V0H-2110.9z"/>
					</g>
					<g>
						<path id="ArialMT-6f_3_" class="st2" d="M-2092,25.9c0,9.6,2.7,16.7,8,21.3c4.5,3.8,9.9,5.8,16.3,5.8c7.1,0,12.9-2.3,17.5-7
							c4.5-4.7,6.8-11.1,6.8-19.4c0-6.7-1-11.9-3-15.8c-2-3.8-4.9-6.8-8.8-8.9c-3.8-2.1-8-3.2-12.5-3.2c-7.3,0-13.1,2.3-17.6,7
							C-2089.8,10.5-2092,17.2-2092,25.9z M-2083,25.9c0-6.6,1.4-11.6,4.3-14.9s6.5-5,10.9-5c4.4,0,8,1.7,10.9,5
							c2.9,3.3,4.3,8.4,4.3,15.2c0,6.4-1.5,11.3-4.4,14.6s-6.5,5-10.9,5c-4.4,0-8-1.6-10.9-4.9C-2081.5,37.5-2083,32.6-2083,25.9z"
							/>
					</g>
					<g>
						<path id="ArialMT-20_5_" class="st2" d="M-2039.7,0"/>
					</g>
					<g>
						<path id="ArialMT-28_2_" class="st2" d="M-1988.5-21c-4.9,6.1-9,13.3-12.3,21.5c-3.3,8.2-5,16.7-5,25.5
							c0,7.8,1.3,15.2,3.8,22.3c2.9,8.2,7.5,16.4,13.6,24.6h6.3c-3.9-6.8-6.5-11.6-7.8-14.5c-2-4.5-3.6-9.2-4.7-14.1
							c-1.4-6.1-2.1-12.2-2.1-18.4c0-15.7,4.9-31.3,14.6-46.9H-1988.5z"/>
					</g>
					<g>
						<path id="ArialMT-4c_1_" class="st2" d="M-1971.3,0v71.6h9.5V8.5h35.3V0H-1971.3z"/>
					</g>
					<g>
						<path id="ArialMT-6f_4_" class="st2" d="M-1919.7,25.9c0,9.6,2.7,16.7,8,21.3c4.5,3.8,9.9,5.8,16.3,5.8c7.1,0,12.9-2.3,17.5-7
							c4.5-4.7,6.8-11.1,6.8-19.4c0-6.7-1-11.9-3-15.8c-2-3.8-4.9-6.8-8.8-8.9c-3.8-2.1-8-3.2-12.5-3.2c-7.3,0-13.1,2.3-17.6,7
							C-1917.4,10.5-1919.7,17.2-1919.7,25.9z M-1910.6,25.9c0-6.6,1.4-11.6,4.3-14.9c2.9-3.3,6.5-5,10.9-5c4.4,0,8,1.7,10.9,5
							c2.9,3.3,4.3,8.4,4.3,15.2c0,6.4-1.5,11.3-4.4,14.6c-2.9,3.3-6.5,5-10.9,5c-4.4,0-8-1.6-10.9-4.9
							C-1909.2,37.5-1910.6,32.6-1910.6,25.9z"/>
					</g>
					<g>
						<path id="ArialMT-67_1_" class="st2" d="M-1862.4-4.3l8.5-1.3c0.4-2.6,1.3-4.6,3-5.8c2.2-1.6,5.2-2.4,8.9-2.4
							c4.1,0,7.2,0.8,9.4,2.4c2.2,1.6,3.7,3.9,4.5,6.8c0.5,1.8,0.7,5.6,0.6,11.3c-3.8-4.5-8.6-6.8-14.3-6.8
							c-7.1,0-12.7,2.6-16.6,7.7s-5.9,11.3-5.9,18.5c0,4.9,0.9,9.5,2.7,13.7c1.8,4.2,4.4,7.4,7.8,9.7c3.4,2.3,7.4,3.4,12,3.4
							c6.1,0,11.2-2.5,15.1-7.4v6.3h8.1V7c0-8.1-0.8-13.8-2.5-17.2c-1.6-3.4-4.2-6-7.8-8c-3.6-2-7.9-2.9-13.2-2.9
							c-6.2,0-11.2,1.4-15,4.2S-1862.5-9.9-1862.4-4.3z M-1855.1,26.9c0-6.8,1.3-11.8,4-14.9c2.7-3.1,6.1-4.7,10.2-4.7
							c4,0,7.4,1.6,10.1,4.7c2.7,3.1,4.1,8,4.1,14.6c0,6.3-1.4,11.1-4.2,14.3c-2.8,3.2-6.2,4.8-10.2,4.8c-3.9,0-7.2-1.6-10-4.8
							C-1853.8,37.8-1855.1,33.1-1855.1,26.9z"/>
					</g>
					<g>
						<path id="ArialMT-20_6_" class="st2" d="M-1811.8,0"/>
					</g>
					<g>
						<path id="ArialMT-53_1_" class="st2" d="M-1779.5,23l8.9,0.8c0.4-3.6,1.4-6.5,3-8.8c1.6-2.3,4-4.1,7.2-5.6
							c3.3-1.4,6.9-2.1,11-2.1c3.6,0,6.8,0.5,9.6,1.6c2.8,1.1,4.8,2.5,6.2,4.4c1.4,1.9,2,3.9,2,6.1c0,2.2-0.7,4.2-2,5.9
							c-1.3,1.7-3.4,3.1-6.4,4.2c-1.9,0.8-6.2,1.9-12.8,3.5c-6.6,1.6-11.2,3.1-13.8,4.5c-3.4,1.8-6,4-7.7,6.7
							c-1.7,2.7-2.5,5.6-2.5,8.9c0,3.6,1,7,3.1,10.1c2.1,3.1,5,5.5,9,7.2c3.9,1.6,8.3,2.4,13.1,2.4c5.3,0,10-0.9,14-2.6
							c4.1-1.7,7.2-4.2,9.4-7.5c2.2-3.3,3.3-7.1,3.5-11.3l-9.1-0.7c-0.5,4.5-2.1,7.9-5,10.2c-2.8,2.3-7,3.5-12.5,3.5
							c-5.7,0-9.9-1.1-12.5-3.2c-2.6-2.1-3.9-4.6-3.9-7.6c0-2.6,0.9-4.7,2.8-6.4c1.8-1.7,6.6-3.4,14.3-5.1c7.7-1.7,13-3.3,15.8-4.6
							c4.2-1.9,7.2-4.4,9.2-7.3c2-2.9,3-6.3,3-10.2c0-3.8-1.1-7.4-3.3-10.8c-2.2-3.4-5.3-6-9.4-7.9c-4.1-1.9-8.7-2.8-13.8-2.8
							c-6.5,0-11.9,0.9-16.3,2.8c-4.4,1.9-7.8,4.7-10.3,8.5C-1778.1,13.9-1779.4,18.2-1779.5,23z"/>
					</g>
					<g>
						<path id="ArialMT-63_1_" class="st2" d="M-1676.9,19l8.6-1.1c-0.9-6-3.4-10.6-7.3-14c-3.9-3.4-8.7-5-14.3-5
							c-7.1,0-12.8,2.3-17.1,7c-4.3,4.6-6.5,11.3-6.5,20c0,5.6,0.9,10.5,2.8,14.7c1.9,4.2,4.7,7.4,8.5,9.5c3.8,2.1,7.9,3.2,12.4,3.2
							c5.6,0,10.2-1.4,13.8-4.3c3.6-2.8,5.9-6.9,6.9-12.1l-8.5-1.3c-0.8,3.5-2.3,6.1-4.3,7.9c-2.1,1.8-4.6,2.6-7.5,2.6
							c-4.4,0-8-1.6-10.8-4.8c-2.8-3.2-4.1-8.2-4.1-15c0-7,1.3-12,4-15.2c2.7-3.2,6.2-4.7,10.5-4.7c3.4,0,6.3,1.1,8.6,3.2
							S-1677.5,14.6-1676.9,19z"/>
					</g>
					<g>
						<path id="ArialMT-61_4_" class="st2" d="M-1626.9,6.4c-3.3-2.8-6.4-4.7-9.4-5.9c-3-1.1-6.2-1.7-9.7-1.7
							c-5.7,0-10.1,1.4-13.1,4.2s-4.6,6.3-4.6,10.7c0,2.5,0.6,4.9,1.7,7c1.2,2.1,2.7,3.8,4.5,5.1s4,2.2,6.3,2.9
							c1.7,0.5,4.3,0.9,7.8,1.3c7.1,0.8,12.3,1.8,15.7,3c0,1.2,0,2,0,2.3c0,3.6-0.8,6.1-2.5,7.6c-2.2,2-5.6,3-10,3
							c-4.1,0-7.2-0.7-9.2-2.2s-3.4-4-4.4-7.7l-8.6,1.2c0.8,3.7,2.1,6.6,3.9,8.9s4.4,4,7.8,5.2c3.4,1.2,7.3,1.8,11.8,1.8
							c4.4,0,8-0.5,10.8-1.6c2.8-1,4.8-2.4,6.1-3.9c1.3-1.6,2.2-3.6,2.7-6c0.3-1.5,0.4-4.2,0.4-8.1V21.7c0-8.2,0.2-13.3,0.6-15.5
							c0.4-2.2,1.1-4.2,2.2-6.2h-9.2C-1626,1.8-1626.6,4-1626.9,6.4z M-1627.6,26c-3.2-1.3-8-2.4-14.4-3.3c-3.6-0.5-6.2-1.1-7.7-1.8
							c-1.5-0.6-2.6-1.6-3.5-2.8c-0.8-1.3-1.2-2.6-1.2-4.2c0-2.3,0.9-4.3,2.7-5.9c1.8-1.6,4.4-2.3,7.8-2.3c3.4,0,6.4,0.7,9,2.2
							s4.6,3.5,5.8,6.1c0.9,2,1.4,4.9,1.4,8.8V26z"/>
					</g>
					<g>
						<path id="ArialMT-6c_3_" class="st2" d="M-1605.3,0v71.6h8.8V0H-1605.3z"/>
					</g>
					<g>
						<path id="ArialMT-65_4_" class="st2" d="M-1547.4,16.7l9.1-1.1c-1.4-5.3-4.1-9.4-8-12.4c-3.9-2.9-8.8-4.4-14.8-4.4
							c-7.6,0-13.6,2.3-18,7c-4.4,4.7-6.7,11.2-6.7,19.7c0,8.7,2.2,15.5,6.7,20.3c4.5,4.8,10.3,7.2,17.5,7.2c6.9,0,12.6-2.4,17-7.1
							s6.6-11.4,6.6-19.9c0-0.5,0-1.3,0-2.3h-38.7c0.3-5.7,1.9-10.1,4.8-13.1c2.9-3,6.5-4.5,10.8-4.5c3.2,0,6,0.8,8.3,2.5
							C-1550.5,10.3-1548.7,13-1547.4,16.7z M-1576.2,30.9h29c-0.4,4.4-1.5,7.6-3.3,9.8c-2.8,3.4-6.4,5.1-10.9,5.1
							c-4,0-7.4-1.3-10.2-4S-1575.9,35.4-1576.2,30.9z"/>
					</g>
					<g>
						<path id="ArialMT-29_2_" class="st2" d="M-1521.5-21h-6.3c9.7,15.6,14.6,31.3,14.6,46.9c0,6.1-0.7,12.2-2.1,18.2
							c-1.1,4.9-2.7,9.6-4.6,14.1c-1.3,2.9-3.9,7.8-7.9,14.6h6.3c6.1-8.2,10.6-16.4,13.6-24.6c2.5-7.1,3.8-14.5,3.8-22.3
							c0-8.8-1.7-17.3-5.1-25.5C-1512.6-7.8-1516.7-14.9-1521.5-21z"/>
					</g>
				</g>
			</g>
		</g>
		<g id="matplotlib.axis_4">
			<g id="ytick_6">
				<g id="line2d_13">
					<g>
						<defs>
							<rect id="SVGID_29_" x="66.5" y="32.6" width="310.6" height="273.5"/>
						</defs>
						<clipPath id="SVGID_30_">
							<use xlink:href="#SVGID_29_"  style="overflow:visible;"/>
						</clipPath>
						<path class="st11" d="M66.5,287.8h310.6"/>
					</g>
				</g>
			</g>
			<g id="ytick_7">
				<g id="line2d_14">
					<g>
						<defs>
							<rect id="SVGID_31_" x="66.5" y="32.6" width="310.6" height="273.5"/>
						</defs>
						<clipPath id="SVGID_32_">
							<use xlink:href="#SVGID_31_"  style="overflow:visible;"/>
						</clipPath>
						<path class="st12" d="M66.5,233.1h310.6"/>
					</g>
				</g>
			</g>
			<g id="ytick_8">
				<g id="line2d_15">
					<g>
						<defs>
							<rect id="SVGID_33_" x="66.5" y="32.6" width="310.6" height="273.5"/>
						</defs>
						<clipPath id="SVGID_34_">
							<use xlink:href="#SVGID_33_"  style="overflow:visible;"/>
						</clipPath>
						<path class="st13" d="M66.5,178.4h310.6"/>
					</g>
				</g>
			</g>
			<g id="ytick_9">
				<g id="line2d_16">
					<g>
						<defs>
							<rect id="SVGID_35_" x="66.5" y="32.6" width="310.6" height="273.5"/>
						</defs>
						<clipPath id="SVGID_36_">
							<use xlink:href="#SVGID_35_"  style="overflow:visible;"/>
						</clipPath>
						<path class="st14" d="M66.5,123.8h310.6"/>
					</g>
				</g>
			</g>
			<g id="ytick_10">
				<g id="line2d_17">
					<g>
						<defs>
							<rect id="SVGID_37_" x="66.5" y="32.6" width="310.6" height="273.5"/>
						</defs>
						<clipPath id="SVGID_38_">
							<use xlink:href="#SVGID_37_"  style="overflow:visible;"/>
						</clipPath>
						<path class="st15" d="M66.5,69.1h310.6"/>
					</g>
				</g>
			</g>
		</g>
		<g id="PathCollection_2">
			<g>
				<defs>
					<rect id="SVGID_39_" x="66.5" y="32.6" width="310.6" height="273.5"/>
				</defs>
				<clipPath id="SVGID_40_">
					<use xlink:href="#SVGID_39_"  style="overflow:visible;"/>
				</clipPath>
				<g class="st16">
					<g>
						<path id="mbf92c7a230" class="st17" d="M81.1,84.2c0.6,0,1.2-0.3,1.7-0.7c0.5-0.5,0.7-1.1,0.7-1.7s-0.3-1.2-0.7-1.7
							c-0.5-0.5-1.1-0.7-1.7-0.7c-0.6,0-1.2,0.3-1.7,0.7c-0.5,0.5-0.7,1.1-0.7,1.7s0.3,1.2,0.7,1.7C79.9,84,80.5,84.2,81.1,84.2z"/>
					</g>
					<g>
						<path id="mbf92c7a230_1_" class="st17" d="M274.1,92.7c0.6,0,1.2-0.3,1.7-0.7c0.5-0.5,0.7-1.1,0.7-1.7s-0.3-1.2-0.7-1.7
							c-0.5-0.5-1.1-0.7-1.7-0.7c-0.6,0-1.2,0.3-1.7,0.7c-0.5,0.5-0.7,1.1-0.7,1.7s0.3,1.2,0.7,1.7
							C272.8,92.5,273.4,92.7,274.1,92.7z"/>
					</g>
					<g>
						<path id="mbf92c7a230_2_" class="st17" d="M273.9,109.5c0.6,0,1.2-0.3,1.7-0.7c0.5-0.5,0.7-1.1,0.7-1.7s-0.3-1.2-0.7-1.7
							c-0.5-0.5-1.1-0.7-1.7-0.7c-0.6,0-1.2,0.3-1.7,0.7c-0.5,0.5-0.7,1.1-0.7,1.7s0.3,1.2,0.7,1.7
							C272.7,109.2,273.3,109.5,273.9,109.5z"/>
					</g>
					<g>
						<path id="mbf92c7a230_3_" class="st17" d="M289.1,97.6c0.6,0,1.2-0.3,1.7-0.7c0.5-0.5,0.7-1.1,0.7-1.7s-0.3-1.2-0.7-1.7
							c-0.5-0.5-1.1-0.7-1.7-0.7c-0.6,0-1.2,0.3-1.7,0.7c-0.5,0.5-0.7,1.1-0.7,1.7s0.3,1.2,0.7,1.7
							C287.9,97.4,288.5,97.6,289.1,97.6z"/>
					</g>
					<g>
						<path id="mbf92c7a230_4_" class="st17" d="M156.9,119.5c0.6,0,1.2-0.3,1.7-0.7c0.5-0.5,0.7-1.1,0.7-1.7s-0.3-1.2-0.7-1.7
							c-0.5-0.5-1.1-0.7-1.7-0.7c-0.6,0-1.2,0.3-1.7,0.7c-0.5,0.5-0.7,1.1-0.7,1.7s0.3,1.2,0.7,1.7
							C155.7,119.2,156.3,119.5,156.9,119.5z"/>
					</g>
					<g>
						<path id="mbf92c7a230_5_" class="st17" d="M81.7,145.7c0.6,0,1.2-0.3,1.7-0.7c0.5-0.5,0.7-1.1,0.7-1.7s-0.3-1.2-0.7-1.7
							c-0.5-0.5-1.1-0.7-1.7-0.7c-0.6,0-1.2,0.3-1.7,0.7c-0.5,0.5-0.7,1.1-0.7,1.7s0.3,1.2,0.7,1.7
							C80.4,145.4,81.1,145.7,81.7,145.7z"/>
					</g>
					<g>
						<path id="mbf92c7a230_6_" class="st17" d="M317.1,89.5c0.6,0,1.2-0.3,1.7-0.7c0.5-0.5,0.7-1.1,0.7-1.7s-0.3-1.2-0.7-1.7
							c-0.5-0.5-1.1-0.7-1.7-0.7c-0.6,0-1.2,0.3-1.7,0.7c-0.5,0.5-0.7,1.1-0.7,1.7s0.3,1.2,0.7,1.7
							C315.9,89.2,316.5,89.5,317.1,89.5z"/>
					</g>
					<g>
						<path id="mbf92c7a230_7_" class="st17" d="M222.4,90.3c0.6,0,1.2-0.3,1.7-0.7c0.5-0.5,0.7-1.1,0.7-1.7s-0.3-1.2-0.7-1.7
							c-0.5-0.5-1.1-0.7-1.7-0.7c-0.6,0-1.2,0.3-1.7,0.7c-0.5,0.5-0.7,1.1-0.7,1.7s0.3,1.2,0.7,1.7C221.2,90,221.8,90.3,222.4,90.3z
							"/>
					</g>
					<g>
						<path id="mbf92c7a230_8_" class="st17" d="M195.8,95.6c0.6,0,1.2-0.3,1.7-0.7c0.5-0.5,0.7-1.1,0.7-1.7s-0.3-1.2-0.7-1.7
							c-0.5-0.5-1.1-0.7-1.7-0.7c-0.6,0-1.2,0.3-1.7,0.7c-0.5,0.5-0.7,1.1-0.7,1.7s0.3,1.2,0.7,1.7
							C194.5,95.3,195.1,95.6,195.8,95.6z"/>
					</g>
					<g>
						<path id="mbf92c7a230_9_" class="st17" d="M161.5,95.2c0.6,0,1.2-0.3,1.7-0.7c0.5-0.5,0.7-1.1,0.7-1.7s-0.3-1.2-0.7-1.7
							c-0.5-0.5-1.1-0.7-1.7-0.7c-0.6,0-1.2,0.3-1.7,0.7c-0.5,0.5-0.7,1.1-0.7,1.7s0.3,1.2,0.7,1.7C160.3,95,160.9,95.2,161.5,95.2z
							"/>
					</g>
					<g>
						<path id="mbf92c7a230_10_" class="st17" d="M140.6,121.8c0.6,0,1.2-0.3,1.7-0.7c0.5-0.5,0.7-1.1,0.7-1.7s-0.3-1.2-0.7-1.7
							c-0.5-0.5-1.1-0.7-1.7-0.7c-0.6,0-1.2,0.3-1.7,0.7c-0.5,0.5-0.7,1.1-0.7,1.7s0.3,1.2,0.7,1.7
							C139.4,121.6,140,121.8,140.6,121.8z"/>
					</g>
					<g>
						<path id="mbf92c7a230_11_" class="st17" d="M120.7,97.1c0.6,0,1.2-0.3,1.7-0.7c0.5-0.5,0.7-1.1,0.7-1.7s-0.3-1.2-0.7-1.7
							c-0.5-0.5-1.1-0.7-1.7-0.7c-0.6,0-1.2,0.3-1.7,0.7c-0.5,0.5-0.7,1.1-0.7,1.7s0.3,1.2,0.7,1.7C119.4,96.9,120,97.1,120.7,97.1z
							"/>
					</g>
					<g>
						<path id="mbf92c7a230_12_" class="st17" d="M233.1,91.2c0.6,0,1.2-0.3,1.7-0.7c0.5-0.5,0.7-1.1,0.7-1.7s-0.3-1.2-0.7-1.7
							c-0.5-0.5-1.1-0.7-1.7-0.7c-0.6,0-1.2,0.3-1.7,0.7c-0.5,0.5-0.7,1.1-0.7,1.7s0.3,1.2,0.7,1.7C231.8,91,232.4,91.2,233.1,91.2z
							"/>
					</g>
					<g>
						<path id="mbf92c7a230_13_" class="st17" d="M274.9,209.8c0.6,0,1.2-0.3,1.7-0.7c0.5-0.5,0.7-1.1,0.7-1.7s-0.3-1.2-0.7-1.7
							c-0.5-0.5-1.1-0.7-1.7-0.7c-0.6,0-1.2,0.3-1.7,0.7c-0.5,0.5-0.7,1.1-0.7,1.7s0.3,1.2,0.7,1.7
							C273.7,209.5,274.3,209.8,274.9,209.8z"/>
					</g>
					<g>
						<path id="mbf92c7a230_14_" class="st17" d="M123.1,81c0.6,0,1.2-0.3,1.7-0.7c0.5-0.5,0.7-1.1,0.7-1.7s-0.3-1.2-0.7-1.7
							c-0.5-0.5-1.1-0.7-1.7-0.7c-0.6,0-1.2,0.3-1.7,0.7c-0.5,0.5-0.7,1.1-0.7,1.7s0.3,1.2,0.7,1.7C121.9,80.8,122.5,81,123.1,81z"
							/>
					</g>
					<g>
						<path id="mbf92c7a230_15_" class="st17" d="M163,168.3c0.6,0,1.2-0.3,1.7-0.7c0.5-0.5,0.7-1.1,0.7-1.7s-0.3-1.2-0.7-1.7
							c-0.5-0.5-1.1-0.7-1.7-0.7c-0.6,0-1.2,0.3-1.7,0.7c-0.5,0.5-0.7,1.1-0.7,1.7s0.3,1.2,0.7,1.7
							C161.8,168.1,162.4,168.3,163,168.3z"/>
					</g>
					<g>
						<path id="mbf92c7a230_16_" class="st17" d="M130.7,104.5c0.6,0,1.2-0.3,1.7-0.7c0.5-0.5,0.7-1.1,0.7-1.7s-0.3-1.2-0.7-1.7
							c-0.5-0.5-1.1-0.7-1.7-0.7c-0.6,0-1.2,0.3-1.7,0.7c-0.5,0.5-0.7,1.1-0.7,1.7s0.3,1.2,0.7,1.7
							C129.5,104.3,130.1,104.5,130.7,104.5z"/>
					</g>
					<g>
						<path id="mbf92c7a230_17_" class="st17" d="M113.1,107.1c0.6,0,1.2-0.3,1.7-0.7c0.5-0.5,0.7-1.1,0.7-1.7s-0.3-1.2-0.7-1.7
							c-0.5-0.5-1.1-0.7-1.7-0.7c-0.6,0-1.2,0.3-1.7,0.7c-0.5,0.5-0.7,1.1-0.7,1.7s0.3,1.2,0.7,1.7
							C111.8,106.9,112.4,107.1,113.1,107.1z"/>
					</g>
					<g>
						<path id="mbf92c7a230_18_" class="st17" d="M110.1,86.9c0.6,0,1.2-0.3,1.7-0.7c0.5-0.5,0.7-1.1,0.7-1.7s-0.3-1.2-0.7-1.7
							c-0.5-0.5-1.1-0.7-1.7-0.7c-0.6,0-1.2,0.3-1.7,0.7c-0.5,0.5-0.7,1.1-0.7,1.7s0.3,1.2,0.7,1.7
							C108.8,86.7,109.4,86.9,110.1,86.9z"/>
					</g>
					<g>
						<path id="mbf92c7a230_19_" class="st17" d="M229.4,127c0.6,0,1.2-0.3,1.7-0.7c0.5-0.5,0.7-1.1,0.7-1.7s-0.3-1.2-0.7-1.7
							c-0.5-0.5-1.1-0.7-1.7-0.7c-0.6,0-1.2,0.3-1.7,0.7c-0.5,0.5-0.7,1.1-0.7,1.7s0.3,1.2,0.7,1.7C228.2,126.7,228.8,127,229.4,127
							z"/>
					</g>
					<g>
						<path id="mbf92c7a230_20_" class="st17" d="M190.5,84.6c0.6,0,1.2-0.3,1.7-0.7c0.5-0.5,0.7-1.1,0.7-1.7s-0.3-1.2-0.7-1.7
							c-0.5-0.5-1.1-0.7-1.7-0.7c-0.6,0-1.2,0.3-1.7,0.7c-0.5,0.5-0.7,1.1-0.7,1.7s0.3,1.2,0.7,1.7
							C189.2,84.4,189.8,84.6,190.5,84.6z"/>
					</g>
					<g>
						<path id="mbf92c7a230_21_" class="st17" d="M116.5,109.9c0.6,0,1.2-0.3,1.7-0.7c0.5-0.5,0.7-1.1,0.7-1.7s-0.3-1.2-0.7-1.7
							c-0.5-0.5-1.1-0.7-1.7-0.7c-0.6,0-1.2,0.3-1.7,0.7c-0.5,0.5-0.7,1.1-0.7,1.7s0.3,1.2,0.7,1.7
							C115.2,109.7,115.8,109.9,116.5,109.9z"/>
					</g>
					<g>
						<path id="mbf92c7a230_22_" class="st17" d="M145.1,144.2c0.6,0,1.2-0.3,1.7-0.7c0.5-0.5,0.7-1.1,0.7-1.7s-0.3-1.2-0.7-1.7
							c-0.5-0.5-1.1-0.7-1.7-0.7c-0.6,0-1.2,0.3-1.7,0.7c-0.5,0.5-0.7,1.1-0.7,1.7s0.3,1.2,0.7,1.7
							C143.8,144,144.4,144.2,145.1,144.2z"/>
					</g>
					<g>
						<path id="mbf92c7a230_23_" class="st17" d="M219.2,171.2c0.6,0,1.2-0.3,1.7-0.7c0.5-0.5,0.7-1.1,0.7-1.7s-0.3-1.2-0.7-1.7
							c-0.5-0.5-1.1-0.7-1.7-0.7c-0.6,0-1.2,0.3-1.7,0.7c-0.5,0.5-0.7,1.1-0.7,1.7s0.3,1.2,0.7,1.7
							C217.9,170.9,218.5,171.2,219.2,171.2z"/>
					</g>
					<g>
						<path id="mbf92c7a230_24_" class="st17" d="M105.4,120.8c0.6,0,1.2-0.3,1.7-0.7c0.5-0.5,0.7-1.1,0.7-1.7s-0.3-1.2-0.7-1.7
							c-0.5-0.5-1.1-0.7-1.7-0.7c-0.6,0-1.2,0.3-1.7,0.7c-0.5,0.5-0.7,1.1-0.7,1.7s0.3,1.2,0.7,1.7
							C104.2,120.6,104.8,120.8,105.4,120.8z"/>
					</g>
					<g>
						<path id="mbf92c7a230_25_" class="st17" d="M219.9,103c0.6,0,1.2-0.3,1.7-0.7c0.5-0.5,0.7-1.1,0.7-1.7s-0.3-1.2-0.7-1.7
							c-0.5-0.5-1.1-0.7-1.7-0.7c-0.6,0-1.2,0.3-1.7,0.7c-0.5,0.5-0.7,1.1-0.7,1.7s0.3,1.2,0.7,1.7C218.6,102.8,219.3,103,219.9,103
							z"/>
					</g>
					<g>
						<path id="mbf92c7a230_26_" class="st17" d="M132.1,120.2c0.6,0,1.2-0.3,1.7-0.7c0.5-0.5,0.7-1.1,0.7-1.7s-0.3-1.2-0.7-1.7
							c-0.5-0.5-1.1-0.7-1.7-0.7c-0.6,0-1.2,0.3-1.7,0.7c-0.5,0.5-0.7,1.1-0.7,1.7s0.3,1.2,0.7,1.7
							C130.9,120,131.5,120.2,132.1,120.2z"/>
					</g>
					<g>
						<path id="mbf92c7a230_27_" class="st17" d="M123.3,95.6c0.6,0,1.2-0.3,1.7-0.7c0.5-0.5,0.7-1.1,0.7-1.7s-0.3-1.2-0.7-1.7
							c-0.5-0.5-1.1-0.7-1.7-0.7c-0.6,0-1.2,0.3-1.7,0.7c-0.5,0.5-0.7,1.1-0.7,1.7s0.3,1.2,0.7,1.7C122,95.4,122.6,95.6,123.3,95.6z
							"/>
					</g>
					<g>
						<path id="mbf92c7a230_28_" class="st17" d="M267.8,99.4c0.6,0,1.2-0.3,1.7-0.7c0.5-0.5,0.7-1.1,0.7-1.7s-0.3-1.2-0.7-1.7
							c-0.5-0.5-1.1-0.7-1.7-0.7c-0.6,0-1.2,0.3-1.7,0.7c-0.5,0.5-0.7,1.1-0.7,1.7s0.3,1.2,0.7,1.7
							C266.5,99.1,267.1,99.4,267.8,99.4z"/>
					</g>
					<g>
						<path id="mbf92c7a230_29_" class="st17" d="M157.4,102.7c0.6,0,1.2-0.3,1.7-0.7c0.5-0.5,0.7-1.1,0.7-1.7s-0.3-1.2-0.7-1.7
							c-0.5-0.5-1.1-0.7-1.7-0.7c-0.6,0-1.2,0.3-1.7,0.7c-0.5,0.5-0.7,1.1-0.7,1.7s0.3,1.2,0.7,1.7
							C156.2,102.5,156.8,102.7,157.4,102.7z"/>
					</g>
					<g>
						<path id="mbf92c7a230_30_" class="st17" d="M143.3,107.8c0.6,0,1.2-0.3,1.7-0.7c0.5-0.5,0.7-1.1,0.7-1.7s-0.3-1.2-0.7-1.7
							c-0.5-0.5-1.1-0.7-1.7-0.7c-0.6,0-1.2,0.3-1.7,0.7c-0.5,0.5-0.7,1.1-0.7,1.7s0.3,1.2,0.7,1.7
							C142,107.5,142.6,107.8,143.3,107.8z"/>
					</g>
					<g>
						<path id="mbf92c7a230_31_" class="st17" d="M80.6,181c0.6,0,1.2-0.3,1.7-0.7c0.5-0.5,0.7-1.1,0.7-1.7s-0.3-1.2-0.7-1.7
							c-0.5-0.5-1.1-0.7-1.7-0.7c-0.6,0-1.2,0.3-1.7,0.7c-0.5,0.5-0.7,1.1-0.7,1.7s0.3,1.2,0.7,1.7C79.4,180.7,80,181,80.6,181z"/>
					</g>
					<g>
						<path id="mbf92c7a230_32_" class="st17" d="M159.8,157.1c0.6,0,1.2-0.3,1.7-0.7c0.5-0.5,0.7-1.1,0.7-1.7s-0.3-1.2-0.7-1.7
							c-0.5-0.5-1.1-0.7-1.7-0.7c-0.6,0-1.2,0.3-1.7,0.7c-0.5,0.5-0.7,1.1-0.7,1.7s0.3,1.2,0.7,1.7
							C158.6,156.8,159.2,157.1,159.8,157.1z"/>
					</g>
					<g>
						<path id="mbf92c7a230_33_" class="st17" d="M163.6,200.1c0.6,0,1.2-0.3,1.7-0.7c0.5-0.5,0.7-1.1,0.7-1.7s-0.3-1.2-0.7-1.7
							c-0.5-0.5-1.1-0.7-1.7-0.7c-0.6,0-1.2,0.3-1.7,0.7c-0.5,0.5-0.7,1.1-0.7,1.7s0.3,1.2,0.7,1.7
							C162.3,199.8,163,200.1,163.6,200.1z"/>
					</g>
					<g>
						<path id="mbf92c7a230_34_" class="st17" d="M200.1,110.6c0.6,0,1.2-0.3,1.7-0.7c0.5-0.5,0.7-1.1,0.7-1.7s-0.3-1.2-0.7-1.7
							c-0.5-0.5-1.1-0.7-1.7-0.7c-0.6,0-1.2,0.3-1.7,0.7c-0.5,0.5-0.7,1.1-0.7,1.7s0.3,1.2,0.7,1.7
							C198.9,110.4,199.5,110.6,200.1,110.6z"/>
					</g>
					<g>
						<path id="mbf92c7a230_35_" class="st17" d="M289.2,112.6c0.6,0,1.2-0.3,1.7-0.7c0.5-0.5,0.7-1.1,0.7-1.7s-0.3-1.2-0.7-1.7
							c-0.5-0.5-1.1-0.7-1.7-0.7c-0.6,0-1.2,0.3-1.7,0.7c-0.5,0.5-0.7,1.1-0.7,1.7s0.3,1.2,0.7,1.7
							C287.9,112.4,288.6,112.6,289.2,112.6z"/>
					</g>
					<g>
						<path id="mbf92c7a230_36_" class="st17" d="M127.6,83.3c0.6,0,1.2-0.3,1.7-0.7c0.5-0.5,0.7-1.1,0.7-1.7s-0.3-1.2-0.7-1.7
							c-0.5-0.5-1.1-0.7-1.7-0.7s-1.2,0.3-1.7,0.7c-0.5,0.5-0.7,1.1-0.7,1.7s0.3,1.2,0.7,1.7C126.3,83.1,126.9,83.3,127.6,83.3z"/>
					</g>
					<g>
						<path id="mbf92c7a230_37_" class="st17" d="M125.3,95.6c0.6,0,1.2-0.3,1.7-0.7c0.5-0.5,0.7-1.1,0.7-1.7s-0.3-1.2-0.7-1.7
							c-0.5-0.5-1.1-0.7-1.7-0.7c-0.6,0-1.2,0.3-1.7,0.7c-0.5,0.5-0.7,1.1-0.7,1.7s0.3,1.2,0.7,1.7
							C124.1,95.4,124.7,95.6,125.3,95.6z"/>
					</g>
					<g>
						<path id="mbf92c7a230_38_" class="st17" d="M117.6,91.5c0.6,0,1.2-0.3,1.7-0.7c0.5-0.5,0.7-1.1,0.7-1.7s-0.3-1.2-0.7-1.7
							c-0.5-0.5-1.1-0.7-1.7-0.7c-0.6,0-1.2,0.3-1.7,0.7c-0.5,0.5-0.7,1.1-0.7,1.7s0.3,1.2,0.7,1.7C116.4,91.3,117,91.5,117.6,91.5z
							"/>
					</g>
					<g>
						<path id="mbf92c7a230_39_" class="st17" d="M140.1,85.2c0.6,0,1.2-0.3,1.7-0.7c0.5-0.5,0.7-1.1,0.7-1.7s-0.3-1.2-0.7-1.7
							c-0.5-0.5-1.1-0.7-1.7-0.7c-0.6,0-1.2,0.3-1.7,0.7c-0.5,0.5-0.7,1.1-0.7,1.7s0.3,1.2,0.7,1.7C138.8,85,139.4,85.2,140.1,85.2z
							"/>
					</g>
					<g>
						<path id="mbf92c7a230_40_" class="st17" d="M276.9,110c0.6,0,1.2-0.3,1.7-0.7c0.5-0.5,0.7-1.1,0.7-1.7s-0.3-1.2-0.7-1.7
							c-0.5-0.5-1.1-0.7-1.7-0.7c-0.6,0-1.2,0.3-1.7,0.7c-0.5,0.5-0.7,1.1-0.7,1.7s0.3,1.2,0.7,1.7C275.6,109.8,276.2,110,276.9,110
							z"/>
					</g>
					<g>
						<path id="mbf92c7a230_41_" class="st17" d="M159.3,102.2c0.6,0,1.2-0.3,1.7-0.7c0.5-0.5,0.7-1.1,0.7-1.7s-0.3-1.2-0.7-1.7
							c-0.5-0.5-1.1-0.7-1.7-0.7c-0.6,0-1.2,0.3-1.7,0.7c-0.5,0.5-0.7,1.1-0.7,1.7s0.3,1.2,0.7,1.7
							C158,101.9,158.7,102.2,159.3,102.2z"/>
					</g>
					<g>
						<path id="mbf92c7a230_42_" class="st17" d="M209.1,93.7c0.6,0,1.2-0.3,1.7-0.7c0.5-0.5,0.7-1.1,0.7-1.7s-0.3-1.2-0.7-1.7
							c-0.5-0.5-1.1-0.7-1.7-0.7c-0.6,0-1.2,0.3-1.7,0.7c-0.5,0.5-0.7,1.1-0.7,1.7s0.3,1.2,0.7,1.7
							C207.8,93.4,208.4,93.7,209.1,93.7z"/>
					</g>
					<g>
						<path id="mbf92c7a230_43_" class="st17" d="M317.3,92.7c0.6,0,1.2-0.3,1.7-0.7c0.5-0.5,0.7-1.1,0.7-1.7s-0.3-1.2-0.7-1.7
							c-0.5-0.5-1.1-0.7-1.7-0.7c-0.6,0-1.2,0.3-1.7,0.7c-0.5,0.5-0.7,1.1-0.7,1.7s0.3,1.2,0.7,1.7
							C316.1,92.5,316.7,92.7,317.3,92.7z"/>
					</g>
					<g>
						<path id="mbf92c7a230_44_" class="st17" d="M124.1,79.6c0.6,0,1.2-0.3,1.7-0.7c0.5-0.5,0.7-1.1,0.7-1.7s-0.3-1.2-0.7-1.7
							c-0.5-0.5-1.1-0.7-1.7-0.7c-0.6,0-1.2,0.3-1.7,0.7c-0.5,0.5-0.7,1.1-0.7,1.7s0.3,1.2,0.7,1.7
							C122.9,79.3,123.5,79.6,124.1,79.6z"/>
					</g>
					<g>
						<path id="mbf92c7a230_45_" class="st17" d="M316.5,86.1c0.6,0,1.2-0.3,1.7-0.7c0.5-0.5,0.7-1.1,0.7-1.7s-0.3-1.2-0.7-1.7
							c-0.5-0.5-1.1-0.7-1.7-0.7c-0.6,0-1.2,0.3-1.7,0.7c-0.5,0.5-0.7,1.1-0.7,1.7s0.3,1.2,0.7,1.7
							C315.2,85.9,315.8,86.1,316.5,86.1z"/>
					</g>
					<g>
						<path id="mbf92c7a230_46_" class="st17" d="M267.2,92.1c0.6,0,1.2-0.3,1.7-0.7c0.5-0.5,0.7-1.1,0.7-1.7s-0.3-1.2-0.7-1.7
							c-0.5-0.5-1.1-0.7-1.7-0.7c-0.6,0-1.2,0.3-1.7,0.7c-0.5,0.5-0.7,1.1-0.7,1.7s0.3,1.2,0.7,1.7C266,91.8,266.6,92.1,267.2,92.1z
							"/>
					</g>
					<g>
						<path id="mbf92c7a230_47_" class="st17" d="M234.3,94.5c0.6,0,1.2-0.3,1.7-0.7c0.5-0.5,0.7-1.1,0.7-1.7s-0.3-1.2-0.7-1.7
							c-0.5-0.5-1.1-0.7-1.7-0.7c-0.6,0-1.2,0.3-1.7,0.7c-0.5,0.5-0.7,1.1-0.7,1.7s0.3,1.2,0.7,1.7C233,94.2,233.6,94.5,234.3,94.5z
							"/>
					</g>
					<g>
						<path id="mbf92c7a230_48_" class="st17" d="M363,98.3c0.6,0,1.2-0.3,1.7-0.7c0.5-0.5,0.7-1.1,0.7-1.7s-0.3-1.2-0.7-1.7
							c-0.5-0.5-1.1-0.7-1.7-0.7c-0.6,0-1.2,0.3-1.7,0.7c-0.5,0.5-0.7,1.1-0.7,1.7s0.3,1.2,0.7,1.7C361.8,98,362.4,98.3,363,98.3z"
							/>
					</g>
					<g>
						<path id="mbf92c7a230_49_" class="st17" d="M219.9,102.8c0.6,0,1.2-0.3,1.7-0.7c0.5-0.5,0.7-1.1,0.7-1.7s-0.3-1.2-0.7-1.7
							c-0.5-0.5-1.1-0.7-1.7-0.7c-0.6,0-1.2,0.3-1.7,0.7c-0.5,0.5-0.7,1.1-0.7,1.7s0.3,1.2,0.7,1.7
							C218.7,102.6,219.3,102.8,219.9,102.8z"/>
					</g>
					<g>
						<path id="mbf92c7a230_50_" class="st17" d="M245.2,124.9c0.6,0,1.2-0.3,1.7-0.7c0.5-0.5,0.7-1.1,0.7-1.7s-0.3-1.2-0.7-1.7
							c-0.5-0.5-1.1-0.7-1.7-0.7c-0.6,0-1.2,0.3-1.7,0.7c-0.5,0.5-0.7,1.1-0.7,1.7s0.3,1.2,0.7,1.7
							C244,124.6,244.6,124.9,245.2,124.9z"/>
					</g>
					<g>
						<path id="mbf92c7a230_51_" class="st17" d="M146.9,159.5c0.6,0,1.2-0.3,1.7-0.7c0.5-0.5,0.7-1.1,0.7-1.7s-0.3-1.2-0.7-1.7
							c-0.5-0.5-1.1-0.7-1.7-0.7c-0.6,0-1.2,0.3-1.7,0.7c-0.5,0.5-0.7,1.1-0.7,1.7s0.3,1.2,0.7,1.7
							C145.6,159.3,146.2,159.5,146.9,159.5z"/>
					</g>
					<g>
						<path id="mbf92c7a230_52_" class="st17" d="M81.4,213.2c0.6,0,1.2-0.3,1.7-0.7c0.5-0.5,0.7-1.1,0.7-1.7s-0.3-1.2-0.7-1.7
							c-0.5-0.5-1.1-0.7-1.7-0.7c-0.6,0-1.2,0.3-1.7,0.7c-0.5,0.5-0.7,1.1-0.7,1.7s0.3,1.2,0.7,1.7C80.2,213,80.8,213.2,81.4,213.2z
							"/>
					</g>
					<g>
						<path id="mbf92c7a230_53_" class="st17" d="M278.4,81.7c0.6,0,1.2-0.3,1.7-0.7c0.5-0.5,0.7-1.1,0.7-1.7s-0.3-1.2-0.7-1.7
							c-0.5-0.5-1.1-0.7-1.7-0.7c-0.6,0-1.2,0.3-1.7,0.7c-0.5,0.5-0.7,1.1-0.7,1.7s0.3,1.2,0.7,1.7
							C277.1,81.5,277.7,81.7,278.4,81.7z"/>
					</g>
					<g>
						<path id="mbf92c7a230_54_" class="st17" d="M93.4,93.8c0.6,0,1.2-0.3,1.7-0.7c0.5-0.5,0.7-1.1,0.7-1.7s-0.3-1.2-0.7-1.7
							C94.6,89.3,94,89,93.4,89c-0.6,0-1.2,0.3-1.7,0.7c-0.5,0.5-0.7,1.1-0.7,1.7s0.3,1.2,0.7,1.7C92.1,93.6,92.7,93.8,93.4,93.8z"
							/>
					</g>
					<g>
						<path id="mbf92c7a230_55_" class="st17" d="M225.5,105.6c0.6,0,1.2-0.3,1.7-0.7c0.5-0.5,0.7-1.1,0.7-1.7s-0.3-1.2-0.7-1.7
							c-0.5-0.5-1.1-0.7-1.7-0.7c-0.6,0-1.2,0.3-1.7,0.7c-0.5,0.5-0.7,1.1-0.7,1.7s0.3,1.2,0.7,1.7
							C224.2,105.3,224.8,105.6,225.5,105.6z"/>
					</g>
					<g>
						<path id="mbf92c7a230_56_" class="st17" d="M184.8,103.1c0.6,0,1.2-0.3,1.7-0.7c0.5-0.5,0.7-1.1,0.7-1.7s-0.3-1.2-0.7-1.7
							c-0.5-0.5-1.1-0.7-1.7-0.7c-0.6,0-1.2,0.3-1.7,0.7c-0.5,0.5-0.7,1.1-0.7,1.7s0.3,1.2,0.7,1.7
							C183.6,102.8,184.2,103.1,184.8,103.1z"/>
					</g>
					<g>
						<path id="mbf92c7a230_57_" class="st17" d="M307.5,107.2c0.6,0,1.2-0.3,1.7-0.7c0.5-0.5,0.7-1.1,0.7-1.7s-0.3-1.2-0.7-1.7
							c-0.5-0.5-1.1-0.7-1.7-0.7c-0.6,0-1.2,0.3-1.7,0.7c-0.5,0.5-0.7,1.1-0.7,1.7s0.3,1.2,0.7,1.7
							C306.2,106.9,306.8,107.2,307.5,107.2z"/>
					</g>
					<g>
						<path id="mbf92c7a230_58_" class="st17" d="M108.8,93.8c0.6,0,1.2-0.3,1.7-0.7c0.5-0.5,0.7-1.1,0.7-1.7s-0.3-1.2-0.7-1.7
							c-0.5-0.5-1.1-0.7-1.7-0.7c-0.6,0-1.2,0.3-1.7,0.7c-0.5,0.5-0.7,1.1-0.7,1.7s0.3,1.2,0.7,1.7
							C107.6,93.5,108.2,93.8,108.8,93.8z"/>
					</g>
					<g>
						<path id="mbf92c7a230_59_" class="st17" d="M229.1,95.5c0.6,0,1.2-0.3,1.7-0.7c0.5-0.5,0.7-1.1,0.7-1.7s-0.3-1.2-0.7-1.7
							c-0.5-0.5-1.1-0.7-1.7-0.7c-0.6,0-1.2,0.3-1.7,0.7c-0.5,0.5-0.7,1.1-0.7,1.7s0.3,1.2,0.7,1.7
							C227.8,95.3,228.5,95.5,229.1,95.5z"/>
					</g>
					<g>
						<path id="mbf92c7a230_60_" class="st17" d="M200.3,296c0.6,0,1.2-0.3,1.7-0.7s0.7-1.1,0.7-1.7s-0.3-1.2-0.7-1.7
							s-1.1-0.7-1.7-0.7c-0.6,0-1.2,0.3-1.7,0.7c-0.5,0.5-0.7,1.1-0.7,1.7s0.3,1.2,0.7,1.7C199,295.7,199.7,296,200.3,296z"/>
					</g>
					<g>
						<path id="mbf92c7a230_61_" class="st17" d="M184.8,91.8c0.6,0,1.2-0.3,1.7-0.7c0.5-0.5,0.7-1.1,0.7-1.7s-0.3-1.2-0.7-1.7
							c-0.5-0.5-1.1-0.7-1.7-0.7c-0.6,0-1.2,0.3-1.7,0.7c-0.5,0.5-0.7,1.1-0.7,1.7s0.3,1.2,0.7,1.7
							C183.6,91.6,184.2,91.8,184.8,91.8z"/>
					</g>
					<g>
						<path id="mbf92c7a230_62_" class="st17" d="M267.4,108.9c0.6,0,1.2-0.3,1.7-0.7c0.5-0.5,0.7-1.1,0.7-1.7s-0.3-1.2-0.7-1.7
							c-0.5-0.5-1.1-0.7-1.7-0.7c-0.6,0-1.2,0.3-1.7,0.7c-0.5,0.5-0.7,1.1-0.7,1.7s0.3,1.2,0.7,1.7
							C266.2,108.6,266.8,108.9,267.4,108.9z"/>
					</g>
					<g>
						<path id="mbf92c7a230_63_" class="st17" d="M113.4,130.7c0.6,0,1.2-0.3,1.7-0.7c0.5-0.5,0.7-1.1,0.7-1.7s-0.3-1.2-0.7-1.7
							c-0.5-0.5-1.1-0.7-1.7-0.7c-0.6,0-1.2,0.3-1.7,0.7c-0.5,0.5-0.7,1.1-0.7,1.7s0.3,1.2,0.7,1.7
							C112.2,130.4,112.8,130.7,113.4,130.7z"/>
					</g>
					<g>
						<path id="mbf92c7a230_64_" class="st17" d="M210.7,93.9c0.6,0,1.2-0.3,1.7-0.7c0.5-0.5,0.7-1.1,0.7-1.7s-0.3-1.2-0.7-1.7
							c-0.5-0.5-1.1-0.7-1.7-0.7c-0.6,0-1.2,0.3-1.7,0.7c-0.5,0.5-0.7,1.1-0.7,1.7s0.3,1.2,0.7,1.7C209.4,93.6,210,93.9,210.7,93.9z
							"/>
					</g>
					<g>
						<path id="mbf92c7a230_65_" class="st17" d="M186.7,90.9c0.6,0,1.2-0.3,1.7-0.7c0.5-0.5,0.7-1.1,0.7-1.7s-0.3-1.2-0.7-1.7
							c-0.5-0.5-1.1-0.7-1.7-0.7c-0.6,0-1.2,0.3-1.7,0.7c-0.5,0.5-0.7,1.1-0.7,1.7s0.3,1.2,0.7,1.7
							C185.5,90.6,186.1,90.9,186.7,90.9z"/>
					</g>
					<g>
						<path id="mbf92c7a230_66_" class="st17" d="M338.8,116.6c0.6,0,1.2-0.3,1.7-0.7c0.5-0.5,0.7-1.1,0.7-1.7s-0.3-1.2-0.7-1.7
							c-0.5-0.5-1.1-0.7-1.7-0.7c-0.6,0-1.2,0.3-1.7,0.7c-0.5,0.5-0.7,1.1-0.7,1.7s0.3,1.2,0.7,1.7
							C337.6,116.3,338.2,116.6,338.8,116.6z"/>
					</g>
					<g>
						<path id="mbf92c7a230_67_" class="st17" d="M194.1,119.3c0.6,0,1.2-0.3,1.7-0.7c0.5-0.5,0.7-1.1,0.7-1.7s-0.3-1.2-0.7-1.7
							c-0.5-0.5-1.1-0.7-1.7-0.7c-0.6,0-1.2,0.3-1.7,0.7c-0.5,0.5-0.7,1.1-0.7,1.7s0.3,1.2,0.7,1.7
							C192.9,119,193.5,119.3,194.1,119.3z"/>
					</g>
					<g>
						<path id="mbf92c7a230_68_" class="st17" d="M137.3,96.9c0.6,0,1.2-0.3,1.7-0.7c0.5-0.5,0.7-1.1,0.7-1.7s-0.3-1.2-0.7-1.7
							c-0.5-0.5-1.1-0.7-1.7-0.7c-0.6,0-1.2,0.3-1.7,0.7c-0.5,0.5-0.7,1.1-0.7,1.7s0.3,1.2,0.7,1.7C136,96.6,136.6,96.9,137.3,96.9z
							"/>
					</g>
					<g>
						<path id="mbf92c7a230_69_" class="st17" d="M254.5,103.4c0.6,0,1.2-0.3,1.7-0.7c0.5-0.5,0.7-1.1,0.7-1.7s-0.3-1.2-0.7-1.7
							c-0.5-0.5-1.1-0.7-1.7-0.7c-0.6,0-1.2,0.3-1.7,0.7c-0.5,0.5-0.7,1.1-0.7,1.7s0.3,1.2,0.7,1.7
							C253.2,103.1,253.8,103.4,254.5,103.4z"/>
					</g>
					<g>
						<path id="mbf92c7a230_70_" class="st17" d="M203.9,95.3c0.6,0,1.2-0.3,1.7-0.7c0.5-0.5,0.7-1.1,0.7-1.7s-0.3-1.2-0.7-1.7
							c-0.5-0.5-1.1-0.7-1.7-0.7c-0.6,0-1.2,0.3-1.7,0.7c-0.5,0.5-0.7,1.1-0.7,1.7s0.3,1.2,0.7,1.7
							C202.6,95.1,203.2,95.3,203.9,95.3z"/>
					</g>
					<g>
						<path id="mbf92c7a230_71_" class="st17" d="M230,77.9c0.6,0,1.2-0.3,1.7-0.7c0.5-0.5,0.7-1.1,0.7-1.7s-0.3-1.2-0.7-1.7
							c-0.5-0.5-1.1-0.7-1.7-0.7c-0.6,0-1.2,0.3-1.7,0.7c-0.5,0.5-0.7,1.1-0.7,1.7s0.3,1.2,0.7,1.7C228.8,77.6,229.4,77.9,230,77.9z
							"/>
					</g>
					<g>
						<path id="mbf92c7a230_72_" class="st17" d="M135.8,89.1c0.6,0,1.2-0.3,1.7-0.7c0.5-0.5,0.7-1.1,0.7-1.7s-0.3-1.2-0.7-1.7
							c-0.5-0.5-1.1-0.7-1.7-0.7c-0.6,0-1.2,0.3-1.7,0.7c-0.5,0.5-0.7,1.1-0.7,1.7s0.3,1.2,0.7,1.7
							C134.6,88.9,135.2,89.1,135.8,89.1z"/>
					</g>
					<g>
						<path id="mbf92c7a230_73_" class="st17" d="M89,102.9c0.6,0,1.2-0.3,1.7-0.7c0.5-0.5,0.7-1.1,0.7-1.7s-0.3-1.2-0.7-1.7
							c-0.5-0.5-1.1-0.7-1.7-0.7c-0.6,0-1.2,0.3-1.7,0.7c-0.5,0.5-0.7,1.1-0.7,1.7s0.3,1.2,0.7,1.7C87.8,102.6,88.4,102.9,89,102.9z
							"/>
					</g>
					<g>
						<path id="mbf92c7a230_74_" class="st17" d="M267.5,82.6c0.6,0,1.2-0.3,1.7-0.7c0.5-0.5,0.7-1.1,0.7-1.7s-0.3-1.2-0.7-1.7
							c-0.5-0.5-1.1-0.7-1.7-0.7c-0.6,0-1.2,0.3-1.7,0.7c-0.5,0.5-0.7,1.1-0.7,1.7s0.3,1.2,0.7,1.7
							C266.3,82.4,266.9,82.6,267.5,82.6z"/>
					</g>
				</g>
			</g>
		</g>
		<g id="PolyCollection_2">
			<g>
				<defs>
					<rect id="SVGID_41_" x="66.5" y="32.6" width="310.6" height="273.5"/>
				</defs>
				<clipPath id="SVGID_42_">
					<use xlink:href="#SVGID_41_"  style="overflow:visible;"/>
				</clipPath>
				<g class="st18">
					<g>
						<path id="ma72124b9ef" class="st19" d="M80.6,103.2v20l56.3-0.6l27-0.5l18-0.4l13.5-0.6l10.8-0.6l9-0.5l7.7-0.5l6.8-0.3l6-0.2
							l5.4-0.4l4.9-0.3l4.5-0.3l4.2-0.3l3.9-0.4l3.6-0.4l3.4-0.4l3.2-0.2l3-0.4l2.9-0.3l2.7-0.4l2.6-0.3l2.5-0.4l2.4-0.2l2.3-0.2
							l2.2-0.2l2.1-0.1l2-0.1l1.9-0.2l1.9-0.3l1.8-0.2l1.7-0.3l1.7-0.2l1.6-0.2l1.6,0l1.5,0l1.5-0.1l1.5-0.1l1.4-0.1l1.4-0.2
							l1.4-0.1l1.3-0.2l1.3-0.2l1.3-0.2l1.2-0.2l1.2-0.2l1.2-0.2l1.2,0.1l1.1-0.2l1.1,0l1.1-0.1l1.1-0.1l1,0l1-0.1l1-0.1l1,0.1l1,0
							l1-0.1l0.9,0l0.9,0l0.9,0l0.9,0l0.9,0l0.9,0l0.8,0l0.8,0l0.8,0l0.8,0l0.8,0l0.8,0l0.8,0l0.8,0l0.8,0l0.7,0l0.7,0l0.7,0
							l0.7-0.1l0.7-0.1l0.7-0.1l0.7-0.1l0.7-0.1l0.7-0.1l0.7,0l0.7,0.1l0.6,0.1l0.6,0.1l0.6,0.1l0.6,0.1l0.6,0l0.6,0l0.6,0l0.6,0
							l0.6,0l0.6,0l0.6,0l0.6,0l0.6,0l0.6,0l0.6,0l0.5,0V47.5l0,0l-0.5,0.7l-0.6,0.7l-0.6,0.7l-0.6,0.7l-0.6,0.7l-0.6,0.7l-0.6,0.7
							l-0.6,0.7l-0.6,0.7l-0.6,0.7l-0.6,0.7l-0.6,0.7l-0.6,0.7l-0.6,0.7l-0.6,0.7l-0.6,0.7l-0.7,0.7l-0.7,0.7l-0.7,0.7l-0.7,0.7
							l-0.7,0.7l-0.7,0.7l-0.7,0.7l-0.7,0.7l-0.7,0.7l-0.7,0.7l-0.7,0.7l-0.8,0.7l-0.8,0.7l-0.8,0.7l-0.8,0.7l-0.8,0.7l-0.8,0.7
							l-0.8,0.7l-0.8,0.7l-0.8,0.7l-0.9,0.7l-0.9,0.7l-0.9,0.6l-0.9,0.6l-0.9,0.6l-0.9,0.7l-1,0.7l-1,0.6l-1,0.7l-1,0.5l-1,0.6
							l-1,0.8l-1.1,0.8l-1.1,0.8l-1.1,0.6l-1.1,0.6l-1.2,0.6l-1.2,0.6l-1.2,0.6l-1.2,0.6l-1.3,0.6l-1.3,0.8l-1.3,0.7l-1.4,0.6
							l-1.4,0.5l-1.4,0.4l-1.5,0.5l-1.5,0.7l-1.5,0.8l-1.6,0.5l-1.6,0.5l-1.7,0.6l-1.7,0.5l-1.8,0.5l-1.9,0.6l-1.9,0.6l-2,0.7
							l-2.1,0.8L287,98l-2.3,0.4l-2.4,0.5l-2.5,0.2l-2.6,0.5l-2.7,0.3l-2.9,0.2l-3,0.3l-3.2,0.2l-3.4,0.3l-3.6,0.2l-3.9,0.3
							l-4.2,0.2l-4.5,0.2l-4.9,0.2l-5.4,0.1l-6,0l-6.8,0.2l-7.7,0.1l-9,0.1l-10.8,0.1l-13.5,0.1l-18,0.1l-27,0.1L80.6,103.2z"/>
					</g>
				</g>
			</g>
		</g>
		<g id="line2d_18">
			<g>
				<defs>
					<rect id="SVGID_43_" x="66.5" y="32.6" width="310.6" height="273.5"/>
				</defs>
				<clipPath id="SVGID_44_">
					<use xlink:href="#SVGID_43_"  style="overflow:visible;"/>
				</clipPath>
				<path class="st20" d="M80.6,112.3l56.3-0.3l27-0.3l18-0.3l13.5-0.3l10.8-0.3l9-0.3l7.7-0.3l6.8-0.3l6-0.3l5.4-0.3l4.9-0.3
					l4.5-0.3l4.2-0.3l3.9-0.3l3.6-0.3l3.4-0.3l3.2-0.3l3-0.3l2.9-0.3l2.7-0.3l2.6-0.3l2.5-0.3l2.4-0.3l2.3-0.3l2.2-0.3l2.1-0.3
					l2-0.3l1.9-0.3l1.9-0.3l1.8-0.3l1.7-0.3l1.7-0.3l1.6-0.3l1.6-0.3l1.5-0.3l1.5-0.3l1.5-0.3l1.4-0.3l1.4-0.3l1.4-0.3l1.3-0.3
					l1.3-0.3l1.3-0.3l1.2-0.3l1.2-0.3l1.2-0.3l1.2-0.3l1.1-0.3l1.1-0.3l1.1-0.3l1.1-0.3l1-0.3l1-0.3l1-0.3l1-0.3l1-0.3l1-0.3
					l0.9-0.3l0.9-0.3l0.9-0.3l0.9-0.3l0.9-0.3l0.9-0.3l0.8-0.3l0.8-0.3l0.8-0.3l0.8-0.3l0.8-0.3l0.8-0.3l0.8-0.3l0.8-0.3l0.8-0.3
					l0.7-0.3l0.7-0.3l0.7-0.3l0.7-0.3l0.7-0.3l0.7-0.3l0.7-0.3l0.7-0.3l0.7-0.3l0.7-0.3l0.7-0.3l0.6-0.3l0.6-0.3l0.6-0.3l0.6-0.3
					l0.6-0.3l0.6-0.3l0.6-0.3l0.6-0.3l0.6-0.3l0.6-0.3l0.6-0.3l0.6-0.3l0.6-0.3l0.6-0.3l0.6-0.3l0.5-0.3"/>
			</g>
		</g>
		<g id="patch_6">
			<path class="st7" d="M66.5,306V32.6"/>
		</g>
		<g id="patch_7">
			<path class="st7" d="M66.5,306h310.6"/>
		</g>
		<g id="text_16">
			<g transform="translate(443.165 26.552)scale(0.144 -0.144)">
				<g>
					<path id="ArialMT-4d_2_" class="st2" d="M-1987.9,0v71.6h14.3l16.9-50.7c1.6-4.7,2.7-8.3,3.4-10.6c0.8,2.6,2.1,6.4,3.8,11.5
						l17.1,49.8h12.8V0h-9.1v59.9L-1949.6,0h-8.5l-20.7,60.9V0H-1987.9z"/>
				</g>
				<g>
					<path id="ArialMT-6f_5_" class="st2" d="M-1908.7,25.9c0,9.6,2.7,16.7,8,21.3c4.5,3.8,9.9,5.8,16.3,5.8c7.1,0,12.9-2.3,17.5-7
						c4.5-4.7,6.8-11.1,6.8-19.4c0-6.7-1-11.9-3-15.7c-2-3.8-4.9-6.8-8.8-8.9c-3.8-2.1-8-3.2-12.5-3.2c-7.3,0-13.1,2.3-17.6,7
						C-1906.5,10.5-1908.7,17.2-1908.7,25.9z M-1899.7,25.9c0-6.6,1.4-11.6,4.3-14.9s6.5-5,10.9-5c4.4,0,8,1.7,10.9,5
						c2.9,3.3,4.3,8.4,4.3,15.2c0,6.4-1.5,11.3-4.4,14.6s-6.5,5-10.9,5c-4.4,0-8-1.6-10.9-4.9C-1898.3,37.5-1899.7,32.6-1899.7,25.9
						z"/>
				</g>
				<g>
					<path id="ArialMT-64_2_" class="st2" d="M-1816.2,0v6.5c-3.3-5.1-8.1-7.7-14.5-7.7c-4.1,0-7.9,1.1-11.4,3.4s-6.2,5.5-8.1,9.5
						c-1.9,4.1-2.8,8.8-2.8,14.1c0,5.2,0.9,9.9,2.6,14.1c1.7,4.2,4.3,7.4,7.8,9.7c3.5,2.3,7.3,3.4,11.6,3.4c3.1,0,5.9-0.7,8.3-2
						c2.4-1.3,4.4-3,6-5.1v25.7h8.7V0H-1816.2z M-1844,25.9c0-6.6,1.4-11.6,4.2-14.9c2.8-3.3,6.1-4.9,9.9-4.9c3.8,0,7.1,1.6,9.8,4.7
						c2.7,3.1,4,7.9,4,14.4c0,7.1-1.4,12.3-4.1,15.6c-2.7,3.3-6.1,5-10.1,5c-3.9,0-7.2-1.6-9.8-4.8
						C-1842.7,37.8-1844,32.8-1844,25.9z"/>
				</g>
				<g>
					<path id="ArialMT-65_5_" class="st2" d="M-1758.7,16.7l9.1-1.1c-1.4-5.3-4.1-9.4-8-12.4c-3.9-2.9-8.8-4.4-14.8-4.4
						c-7.6,0-13.6,2.3-18,7c-4.4,4.7-6.7,11.2-6.7,19.7c0,8.7,2.2,15.5,6.7,20.3c4.5,4.8,10.3,7.2,17.5,7.2c6.9,0,12.6-2.4,17-7.1
						c4.4-4.7,6.6-11.4,6.6-19.9c0-0.5,0-1.3,0-2.3h-38.7c0.3-5.7,1.9-10.1,4.8-13.1c2.9-3,6.5-4.5,10.8-4.5c3.2,0,6,0.8,8.3,2.5
						C-1761.9,10.3-1760.1,13-1758.7,16.7z M-1787.6,30.9h29c-0.4,4.4-1.5,7.6-3.3,9.8c-2.8,3.4-6.4,5.1-10.9,5.1
						c-4,0-7.4-1.3-10.2-4S-1787.3,35.4-1787.6,30.9z"/>
				</g>
				<g>
					<path id="ArialMT-6c_4_" class="st2" d="M-1738.8,0v71.6h8.8V0H-1738.8z"/>
				</g>
				<g>
					<path id="ArialMT-20_7_" class="st2" d="M-1723,0"/>
				</g>
				<g>
					<path id="ArialMT-3d_1_" class="st2" d="M-1642.4,42.1h-47.3v8.2h47.3V42.1z M-1642.4,20.4h-47.3v8.2h47.3V20.4z"/>
				</g>
				<g>
					<path id="ArialMT-20_8_" class="st2" d="M-1636.8,0"/>
				</g>
				<g>
					<path id="ArialMT-41_1_" class="st2" d="M-1614.7,0l27.5,71.6h10.2l29.3-71.6h-10.8l-8.4,21.7h-29.9l-7.9-21.7H-1614.7z
						 M-1594,29.4h24.3l-7.5,19.8c-2.3,6-4,11-5.1,14.8c-0.9-4.6-2.2-9.2-3.9-13.7L-1594,29.4z"/>
				</g>
				<g>
					<path id="ArialMT-6c_5_" class="st2" d="M-1541.5,0v71.6h8.8V0H-1541.5z"/>
				</g>
				<g>
					<path id="ArialMT-65_6_" class="st2" d="M-1483.5,16.7l9.1-1.1c-1.4-5.3-4.1-9.4-8-12.4c-3.9-2.9-8.8-4.4-14.8-4.4
						c-7.6,0-13.6,2.3-18,7c-4.4,4.7-6.7,11.2-6.7,19.7c0,8.7,2.2,15.5,6.7,20.3c4.5,4.8,10.3,7.2,17.5,7.2c6.9,0,12.6-2.4,17-7.1
						c4.4-4.7,6.6-11.4,6.6-19.9c0-0.5,0-1.3,0-2.3h-38.7c0.3-5.7,1.9-10.1,4.8-13.1c2.9-3,6.5-4.5,10.8-4.5c3.2,0,6,0.8,8.3,2.5
						C-1486.7,10.3-1484.9,13-1483.5,16.7z M-1512.4,30.9h29c-0.4,4.4-1.5,7.6-3.3,9.8c-2.8,3.4-6.4,5.1-10.9,5.1
						c-4,0-7.4-1.3-10.2-4S-1512.1,35.4-1512.4,30.9z"/>
				</g>
				<g>
					<path id="ArialMT-70_1_" class="st2" d="M-1463.4-19.9v71.7h8v-6.7c1.9,2.6,4,4.6,6.4,5.9c2.4,1.3,5.3,2,8.6,2
						c4.4,0,8.3-1.1,11.7-3.4c3.4-2.3,5.9-5.5,7.7-9.7c1.7-4.1,2.6-8.7,2.6-13.6c0-5.3-1-10.1-2.9-14.3c-1.9-4.2-4.7-7.5-8.3-9.8
						c-3.6-2.3-7.4-3.4-11.5-3.4c-2.9,0-5.6,0.6-7.9,1.9c-2.3,1.2-4.2,2.8-5.7,4.7v-25.3H-1463.4z M-1455.5,25.6
						c0-6.7,1.3-11.6,4-14.8c2.7-3.2,6-4.8,9.8-4.8c3.9,0,7.3,1.7,10,5s4.2,8.4,4.2,15.4c0,6.6-1.4,11.5-4.1,14.8
						c-2.7,3.3-6,4.9-9.7,4.9c-3.8,0-7.1-1.8-10-5.3C-1454,37.4-1455.5,32.3-1455.5,25.6z"/>
				</g>
				<g>
					<path id="ArialMT-68_1_" class="st2" d="M-1407.8,0v71.6h8.8V45.9c4.1,4.8,9.3,7.1,15.5,7.1c3.8,0,7.2-0.8,10-2.3
						c2.8-1.5,4.9-3.6,6.1-6.3s1.8-6.5,1.8-11.6V0h-8.8v32.9c0,4.4-1,7.6-2.9,9.6s-4.6,3-8.1,3c-2.6,0-5.1-0.7-7.4-2
						c-2.3-1.3-3.9-3.2-4.9-5.5c-1-2.3-1.5-5.5-1.5-9.6V0H-1407.8z"/>
				</g>
				<g>
					<path id="ArialMT-42_1_" class="st2" d="M-1351.5,0v71.6h26.9c5.5,0,9.9-0.7,13.2-2.2c3.3-1.4,5.9-3.7,7.8-6.7
						c1.9-3,2.8-6.2,2.8-9.5c0-3.1-0.8-5.9-2.5-8.6c-1.7-2.7-4.2-4.9-7.5-6.5c4.3-1.3,7.6-3.4,10-6.5c2.3-3.1,3.5-6.7,3.5-10.8
						c0-3.4-0.7-6.5-2.1-9.4c-1.4-2.9-3.2-5.1-5.3-6.7c-2.1-1.6-4.7-2.7-7.8-3.5c-3.1-0.8-7-1.2-11.5-1.2H-1351.5z M-1342,41.5h15.5
						c4.2,0,7.2,0.3,9,0.8c2.4,0.7,4.2,1.9,5.4,3.6c1.2,1.7,1.8,3.8,1.8,6.3c0,2.4-0.6,4.5-1.7,6.3c-1.1,1.8-2.8,3.1-4.9,3.7
						c-2.1,0.7-5.7,1-10.9,1h-14.3V41.5z M-1342,8.5h17.8c3.1,0,5.2,0.1,6.4,0.3c2.2,0.4,4,1,5.5,1.9c1.5,0.9,2.7,2.2,3.6,4
						c0.9,1.7,1.4,3.7,1.4,6c0,2.7-0.7,5-2,7c-1.4,2-3.3,3.4-5.7,4.2c-2.4,0.8-5.9,1.2-10.5,1.2h-16.5V8.5z"/>
				</g>
				<g>
					<path id="ArialMT-45_1_" class="st2" d="M-1284.2,0v71.6h51.8v-8.4h-42.3V41.2h39.6v-8.4h-39.6V8.5h43.9V0H-1284.2z"/>
				</g>
				<g>
					<path id="ArialMT-52_3_" class="st2" d="M-1217.5,0v71.6h31.7c6.4,0,11.2-0.6,14.5-1.9c3.3-1.3,6-3.6,8-6.8c2-3.3,3-6.8,3-10.8
						c0-5.1-1.6-9.4-4.9-12.8c-3.3-3.5-8.4-5.7-15.2-6.6c2.5-1.2,4.4-2.4,5.7-3.6c2.8-2.5,5.4-5.7,7.9-9.5l12.5-19.5h-11.9
						l-9.5,14.9c-2.8,4.3-5.1,7.6-6.8,9.9c-1.8,2.3-3.4,3.9-4.8,4.8c-1.4,0.9-2.9,1.6-4.3,1.9c-1.1,0.2-2.8,0.3-5.3,0.3h-11V0
						H-1217.5z M-1208.1,40h20.4c4.3,0,7.7,0.4,10.1,1.3c2.4,0.9,4.3,2.3,5.6,4.3c1.3,2,1.9,4.1,1.9,6.4c0,3.4-1.2,6.2-3.7,8.3
						c-2.5,2.2-6.3,3.3-11.7,3.3h-22.7V40z"/>
				</g>
				<g>
					<path id="ArialMT-54_1_" class="st2" d="M-1129,0v63.1h-23.6v8.4h56.7v-8.4h-23.7V0H-1129z"/>
				</g>
				<g>
					<path id="ArialMT-20_9_" class="st2" d="M-1095.6,0"/>
				</g>
			</g>
		</g>
	</g>
</g>
</svg>
