<?xml version="1.0" encoding="utf-8" standalone="no"?>
<!DOCTYPE svg PUBLIC "-//W3C//DTD SVG 1.1//EN"
  "http://www.w3.org/Graphics/SVG/1.1/DTD/svg11.dtd">
<svg xmlns:xlink="http://www.w3.org/1999/xlink" width="720pt" height="360pt" viewBox="0 0 720 360" xmlns="http://www.w3.org/2000/svg" version="1.1">
 <metadata>
  <rdf:RDF xmlns:dc="http://purl.org/dc/elements/1.1/" xmlns:cc="http://creativecommons.org/ns#" xmlns:rdf="http://www.w3.org/1999/02/22-rdf-syntax-ns#">
   <cc:Work>
    <dc:type rdf:resource="http://purl.org/dc/dcmitype/StillImage"/>
    <dc:date>2022-01-14T16:24:49.042519</dc:date>
    <dc:format>image/svg+xml</dc:format>
    <dc:creator>
     <cc:Agent>
      <dc:title>Matplotlib v3.5.0, https://matplotlib.org/</dc:title>
     </cc:Agent>
    </dc:creator>
   </cc:Work>
  </rdf:RDF>
 </metadata>
 <defs>
  <style type="text/css">*{stroke-linejoin: round; stroke-linecap: butt}</style>
 </defs>
 <g id="figure_1">
  <g id="patch_1">
   <path d="M 0 360 
L 720 360 
L 720 0 
L 0 0 
z
" style="fill: #ffffff"/>
  </g>
  <g id="axes_1">
   <g id="patch_2">
    <path d="M 67.727 306.007375 
L 378.3115 306.007375 
L 378.3115 32.552 
L 67.727 32.552 
z
" style="fill: #ffffff"/>
   </g>
   <g id="matplotlib.axis_1">
    <g id="xtick_1">
     <g id="line2d_1">
      <path d="M 80.02869 306.007375 
L 80.02869 32.552 
" clip-path="url(#p87f1df3c84)" style="fill: none; stroke: #cccccc; stroke-width: 0.8; stroke-linecap: round"/>
     </g>
     <g id="text_1">
      <!-- 1:1 -->
      <g style="fill: #262626" transform="translate(70.85469 323.755688)scale(0.132 -0.132)">
       <defs>
        <path id="ArialMT-31" d="M 2384 0 
L 1822 0 
L 1822 3584 
Q 1619 3391 1289 3197 
Q 959 3003 697 2906 
L 697 3450 
Q 1169 3672 1522 3987 
Q 1875 4303 2022 4600 
L 2384 4600 
L 2384 0 
z
" transform="scale(0.015625)"/>
        <path id="ArialMT-3a" d="M 578 2678 
L 578 3319 
L 1219 3319 
L 1219 2678 
L 578 2678 
z
M 578 0 
L 578 641 
L 1219 641 
L 1219 0 
L 578 0 
z
" transform="scale(0.015625)"/>
       </defs>
       <use xlink:href="#ArialMT-31"/>
       <use xlink:href="#ArialMT-3a" x="55.615234"/>
       <use xlink:href="#ArialMT-31" x="83.398438"/>
      </g>
     </g>
    </g>
    <g id="xtick_2">
     <g id="line2d_2">
      <path d="M 205.078243 306.007375 
L 205.078243 32.552 
" clip-path="url(#p87f1df3c84)" style="fill: none; stroke: #cccccc; stroke-width: 0.8; stroke-linecap: round"/>
     </g>
     <g id="text_2">
      <!-- 1:10 -->
      <g style="fill: #262626" transform="translate(192.234024 323.755688)scale(0.132 -0.132)">
       <defs>
        <path id="ArialMT-30" d="M 266 2259 
Q 266 3072 433 3567 
Q 600 4063 929 4331 
Q 1259 4600 1759 4600 
Q 2128 4600 2406 4451 
Q 2684 4303 2865 4023 
Q 3047 3744 3150 3342 
Q 3253 2941 3253 2259 
Q 3253 1453 3087 958 
Q 2922 463 2592 192 
Q 2263 -78 1759 -78 
Q 1097 -78 719 397 
Q 266 969 266 2259 
z
M 844 2259 
Q 844 1131 1108 757 
Q 1372 384 1759 384 
Q 2147 384 2411 759 
Q 2675 1134 2675 2259 
Q 2675 3391 2411 3762 
Q 2147 4134 1753 4134 
Q 1366 4134 1134 3806 
Q 844 3388 844 2259 
z
" transform="scale(0.015625)"/>
       </defs>
       <use xlink:href="#ArialMT-31"/>
       <use xlink:href="#ArialMT-3a" x="55.615234"/>
       <use xlink:href="#ArialMT-31" x="83.398438"/>
       <use xlink:href="#ArialMT-30" x="139.013672"/>
      </g>
     </g>
    </g>
    <g id="xtick_3">
     <g id="line2d_3">
      <path d="M 330.127795 306.007375 
L 330.127795 32.552 
" clip-path="url(#p87f1df3c84)" style="fill: none; stroke: #cccccc; stroke-width: 0.8; stroke-linecap: round"/>
     </g>
     <g id="text_3">
      <!-- 1:100 -->
      <g style="fill: #262626" transform="translate(313.613358 323.755688)scale(0.132 -0.132)">
       <use xlink:href="#ArialMT-31"/>
       <use xlink:href="#ArialMT-3a" x="55.615234"/>
       <use xlink:href="#ArialMT-31" x="83.398438"/>
       <use xlink:href="#ArialMT-30" x="139.013672"/>
       <use xlink:href="#ArialMT-30" x="194.628906"/>
      </g>
     </g>
    </g>
    <g id="xtick_4"/>
    <g id="xtick_5"/>
    <g id="xtick_6"/>
    <g id="xtick_7"/>
    <g id="xtick_8"/>
    <g id="xtick_9"/>
    <g id="xtick_10"/>
    <g id="xtick_11"/>
    <g id="xtick_12"/>
    <g id="xtick_13"/>
    <g id="xtick_14"/>
    <g id="xtick_15"/>
    <g id="xtick_16"/>
    <g id="xtick_17"/>
    <g id="xtick_18"/>
    <g id="xtick_19"/>
    <g id="xtick_20"/>
    <g id="xtick_21"/>
    <g id="xtick_22"/>
    <g id="text_4">
     <!-- Ratio (Log Scale) -->
     <g style="fill: #262626" transform="translate(167.39475 340.861938)scale(0.144 -0.144)">
      <defs>
       <path id="ArialMT-52" d="M 503 0 
L 503 4581 
L 2534 4581 
Q 3147 4581 3465 4457 
Q 3784 4334 3975 4021 
Q 4166 3709 4166 3331 
Q 4166 2844 3850 2509 
Q 3534 2175 2875 2084 
Q 3116 1969 3241 1856 
Q 3506 1613 3744 1247 
L 4541 0 
L 3778 0 
L 3172 953 
Q 2906 1366 2734 1584 
Q 2563 1803 2427 1890 
Q 2291 1978 2150 2013 
Q 2047 2034 1813 2034 
L 1109 2034 
L 1109 0 
L 503 0 
z
M 1109 2559 
L 2413 2559 
Q 2828 2559 3062 2645 
Q 3297 2731 3419 2920 
Q 3541 3109 3541 3331 
Q 3541 3656 3305 3865 
Q 3069 4075 2559 4075 
L 1109 4075 
L 1109 2559 
z
" transform="scale(0.015625)"/>
       <path id="ArialMT-61" d="M 2588 409 
Q 2275 144 1986 34 
Q 1697 -75 1366 -75 
Q 819 -75 525 192 
Q 231 459 231 875 
Q 231 1119 342 1320 
Q 453 1522 633 1644 
Q 813 1766 1038 1828 
Q 1203 1872 1538 1913 
Q 2219 1994 2541 2106 
Q 2544 2222 2544 2253 
Q 2544 2597 2384 2738 
Q 2169 2928 1744 2928 
Q 1347 2928 1158 2789 
Q 969 2650 878 2297 
L 328 2372 
Q 403 2725 575 2942 
Q 747 3159 1072 3276 
Q 1397 3394 1825 3394 
Q 2250 3394 2515 3294 
Q 2781 3194 2906 3042 
Q 3031 2891 3081 2659 
Q 3109 2516 3109 2141 
L 3109 1391 
Q 3109 606 3145 398 
Q 3181 191 3288 0 
L 2700 0 
Q 2613 175 2588 409 
z
M 2541 1666 
Q 2234 1541 1622 1453 
Q 1275 1403 1131 1340 
Q 988 1278 909 1158 
Q 831 1038 831 891 
Q 831 666 1001 516 
Q 1172 366 1500 366 
Q 1825 366 2078 508 
Q 2331 650 2450 897 
Q 2541 1088 2541 1459 
L 2541 1666 
z
" transform="scale(0.015625)"/>
       <path id="ArialMT-74" d="M 1650 503 
L 1731 6 
Q 1494 -44 1306 -44 
Q 1000 -44 831 53 
Q 663 150 594 308 
Q 525 466 525 972 
L 525 2881 
L 113 2881 
L 113 3319 
L 525 3319 
L 525 4141 
L 1084 4478 
L 1084 3319 
L 1650 3319 
L 1650 2881 
L 1084 2881 
L 1084 941 
Q 1084 700 1114 631 
Q 1144 563 1211 522 
Q 1278 481 1403 481 
Q 1497 481 1650 503 
z
" transform="scale(0.015625)"/>
       <path id="ArialMT-69" d="M 425 3934 
L 425 4581 
L 988 4581 
L 988 3934 
L 425 3934 
z
M 425 0 
L 425 3319 
L 988 3319 
L 988 0 
L 425 0 
z
" transform="scale(0.015625)"/>
       <path id="ArialMT-6f" d="M 213 1659 
Q 213 2581 725 3025 
Q 1153 3394 1769 3394 
Q 2453 3394 2887 2945 
Q 3322 2497 3322 1706 
Q 3322 1066 3130 698 
Q 2938 331 2570 128 
Q 2203 -75 1769 -75 
Q 1072 -75 642 372 
Q 213 819 213 1659 
z
M 791 1659 
Q 791 1022 1069 705 
Q 1347 388 1769 388 
Q 2188 388 2466 706 
Q 2744 1025 2744 1678 
Q 2744 2294 2464 2611 
Q 2184 2928 1769 2928 
Q 1347 2928 1069 2612 
Q 791 2297 791 1659 
z
" transform="scale(0.015625)"/>
       <path id="ArialMT-20" transform="scale(0.015625)"/>
       <path id="ArialMT-28" d="M 1497 -1347 
Q 1031 -759 709 28 
Q 388 816 388 1659 
Q 388 2403 628 3084 
Q 909 3875 1497 4659 
L 1900 4659 
Q 1522 4009 1400 3731 
Q 1209 3300 1100 2831 
Q 966 2247 966 1656 
Q 966 153 1900 -1347 
L 1497 -1347 
z
" transform="scale(0.015625)"/>
       <path id="ArialMT-4c" d="M 469 0 
L 469 4581 
L 1075 4581 
L 1075 541 
L 3331 541 
L 3331 0 
L 469 0 
z
" transform="scale(0.015625)"/>
       <path id="ArialMT-67" d="M 319 -275 
L 866 -356 
Q 900 -609 1056 -725 
Q 1266 -881 1628 -881 
Q 2019 -881 2231 -725 
Q 2444 -569 2519 -288 
Q 2563 -116 2559 434 
Q 2191 0 1641 0 
Q 956 0 581 494 
Q 206 988 206 1678 
Q 206 2153 378 2554 
Q 550 2956 876 3175 
Q 1203 3394 1644 3394 
Q 2231 3394 2613 2919 
L 2613 3319 
L 3131 3319 
L 3131 450 
Q 3131 -325 2973 -648 
Q 2816 -972 2473 -1159 
Q 2131 -1347 1631 -1347 
Q 1038 -1347 672 -1080 
Q 306 -813 319 -275 
z
M 784 1719 
Q 784 1066 1043 766 
Q 1303 466 1694 466 
Q 2081 466 2343 764 
Q 2606 1063 2606 1700 
Q 2606 2309 2336 2618 
Q 2066 2928 1684 2928 
Q 1309 2928 1046 2623 
Q 784 2319 784 1719 
z
" transform="scale(0.015625)"/>
       <path id="ArialMT-53" d="M 288 1472 
L 859 1522 
Q 900 1178 1048 958 
Q 1197 738 1509 602 
Q 1822 466 2213 466 
Q 2559 466 2825 569 
Q 3091 672 3220 851 
Q 3350 1031 3350 1244 
Q 3350 1459 3225 1620 
Q 3100 1781 2813 1891 
Q 2628 1963 1997 2114 
Q 1366 2266 1113 2400 
Q 784 2572 623 2826 
Q 463 3081 463 3397 
Q 463 3744 659 4045 
Q 856 4347 1234 4503 
Q 1613 4659 2075 4659 
Q 2584 4659 2973 4495 
Q 3363 4331 3572 4012 
Q 3781 3694 3797 3291 
L 3216 3247 
Q 3169 3681 2898 3903 
Q 2628 4125 2100 4125 
Q 1550 4125 1298 3923 
Q 1047 3722 1047 3438 
Q 1047 3191 1225 3031 
Q 1400 2872 2139 2705 
Q 2878 2538 3153 2413 
Q 3553 2228 3743 1945 
Q 3934 1663 3934 1294 
Q 3934 928 3725 604 
Q 3516 281 3123 101 
Q 2731 -78 2241 -78 
Q 1619 -78 1198 103 
Q 778 284 539 648 
Q 300 1013 288 1472 
z
" transform="scale(0.015625)"/>
       <path id="ArialMT-63" d="M 2588 1216 
L 3141 1144 
Q 3050 572 2676 248 
Q 2303 -75 1759 -75 
Q 1078 -75 664 370 
Q 250 816 250 1647 
Q 250 2184 428 2587 
Q 606 2991 970 3192 
Q 1334 3394 1763 3394 
Q 2303 3394 2647 3120 
Q 2991 2847 3088 2344 
L 2541 2259 
Q 2463 2594 2264 2762 
Q 2066 2931 1784 2931 
Q 1359 2931 1093 2626 
Q 828 2322 828 1663 
Q 828 994 1084 691 
Q 1341 388 1753 388 
Q 2084 388 2306 591 
Q 2528 794 2588 1216 
z
" transform="scale(0.015625)"/>
       <path id="ArialMT-6c" d="M 409 0 
L 409 4581 
L 972 4581 
L 972 0 
L 409 0 
z
" transform="scale(0.015625)"/>
       <path id="ArialMT-65" d="M 2694 1069 
L 3275 997 
Q 3138 488 2766 206 
Q 2394 -75 1816 -75 
Q 1088 -75 661 373 
Q 234 822 234 1631 
Q 234 2469 665 2931 
Q 1097 3394 1784 3394 
Q 2450 3394 2872 2941 
Q 3294 2488 3294 1666 
Q 3294 1616 3291 1516 
L 816 1516 
Q 847 969 1125 678 
Q 1403 388 1819 388 
Q 2128 388 2347 550 
Q 2566 713 2694 1069 
z
M 847 1978 
L 2700 1978 
Q 2663 2397 2488 2606 
Q 2219 2931 1791 2931 
Q 1403 2931 1139 2672 
Q 875 2413 847 1978 
z
" transform="scale(0.015625)"/>
       <path id="ArialMT-29" d="M 791 -1347 
L 388 -1347 
Q 1322 153 1322 1656 
Q 1322 2244 1188 2822 
Q 1081 3291 891 3722 
Q 769 4003 388 4659 
L 791 4659 
Q 1378 3875 1659 3084 
Q 1900 2403 1900 1659 
Q 1900 816 1576 28 
Q 1253 -759 791 -1347 
z
" transform="scale(0.015625)"/>
      </defs>
      <use xlink:href="#ArialMT-52"/>
      <use xlink:href="#ArialMT-61" x="72.216797"/>
      <use xlink:href="#ArialMT-74" x="127.832031"/>
      <use xlink:href="#ArialMT-69" x="155.615234"/>
      <use xlink:href="#ArialMT-6f" x="177.832031"/>
      <use xlink:href="#ArialMT-20" x="233.447266"/>
      <use xlink:href="#ArialMT-28" x="261.230469"/>
      <use xlink:href="#ArialMT-4c" x="294.53125"/>
      <use xlink:href="#ArialMT-6f" x="350.146484"/>
      <use xlink:href="#ArialMT-67" x="405.761719"/>
      <use xlink:href="#ArialMT-20" x="461.376953"/>
      <use xlink:href="#ArialMT-53" x="489.160156"/>
      <use xlink:href="#ArialMT-63" x="555.859375"/>
      <use xlink:href="#ArialMT-61" x="605.859375"/>
      <use xlink:href="#ArialMT-6c" x="661.474609"/>
      <use xlink:href="#ArialMT-65" x="683.691406"/>
      <use xlink:href="#ArialMT-29" x="739.306641"/>
     </g>
    </g>
   </g>
   <g id="matplotlib.axis_2">
    <g id="ytick_1">
     <g id="line2d_4">
      <path d="M 67.727 287.951027 
L 378.3115 287.951027 
" clip-path="url(#p87f1df3c84)" style="fill: none; stroke: #cccccc; stroke-width: 0.8; stroke-linecap: round"/>
     </g>
     <g id="text_5">
      <!-- 0.80 -->
      <g style="fill: #262626" transform="translate(33.738563 292.675184)scale(0.132 -0.132)">
       <defs>
        <path id="ArialMT-2e" d="M 581 0 
L 581 641 
L 1222 641 
L 1222 0 
L 581 0 
z
" transform="scale(0.015625)"/>
        <path id="ArialMT-38" d="M 1131 2484 
Q 781 2613 612 2850 
Q 444 3088 444 3419 
Q 444 3919 803 4259 
Q 1163 4600 1759 4600 
Q 2359 4600 2725 4251 
Q 3091 3903 3091 3403 
Q 3091 3084 2923 2848 
Q 2756 2613 2416 2484 
Q 2838 2347 3058 2040 
Q 3278 1734 3278 1309 
Q 3278 722 2862 322 
Q 2447 -78 1769 -78 
Q 1091 -78 675 323 
Q 259 725 259 1325 
Q 259 1772 486 2073 
Q 713 2375 1131 2484 
z
M 1019 3438 
Q 1019 3113 1228 2906 
Q 1438 2700 1772 2700 
Q 2097 2700 2305 2904 
Q 2513 3109 2513 3406 
Q 2513 3716 2298 3927 
Q 2084 4138 1766 4138 
Q 1444 4138 1231 3931 
Q 1019 3725 1019 3438 
z
M 838 1322 
Q 838 1081 952 856 
Q 1066 631 1291 507 
Q 1516 384 1775 384 
Q 2178 384 2440 643 
Q 2703 903 2703 1303 
Q 2703 1709 2433 1975 
Q 2163 2241 1756 2241 
Q 1359 2241 1098 1978 
Q 838 1716 838 1322 
z
" transform="scale(0.015625)"/>
       </defs>
       <use xlink:href="#ArialMT-30"/>
       <use xlink:href="#ArialMT-2e" x="55.615234"/>
       <use xlink:href="#ArialMT-38" x="83.398438"/>
       <use xlink:href="#ArialMT-30" x="139.013672"/>
      </g>
     </g>
    </g>
    <g id="ytick_2">
     <g id="line2d_5">
      <path d="M 67.727 234.96642 
L 378.3115 234.96642 
" clip-path="url(#p87f1df3c84)" style="fill: none; stroke: #cccccc; stroke-width: 0.8; stroke-linecap: round"/>
     </g>
     <g id="text_6">
      <!-- 0.85 -->
      <g style="fill: #262626" transform="translate(33.738563 239.690576)scale(0.132 -0.132)">
       <defs>
        <path id="ArialMT-35" d="M 266 1200 
L 856 1250 
Q 922 819 1161 601 
Q 1400 384 1738 384 
Q 2144 384 2425 690 
Q 2706 997 2706 1503 
Q 2706 1984 2436 2262 
Q 2166 2541 1728 2541 
Q 1456 2541 1237 2417 
Q 1019 2294 894 2097 
L 366 2166 
L 809 4519 
L 3088 4519 
L 3088 3981 
L 1259 3981 
L 1013 2750 
Q 1425 3038 1878 3038 
Q 2478 3038 2890 2622 
Q 3303 2206 3303 1553 
Q 3303 931 2941 478 
Q 2500 -78 1738 -78 
Q 1113 -78 717 272 
Q 322 622 266 1200 
z
" transform="scale(0.015625)"/>
       </defs>
       <use xlink:href="#ArialMT-30"/>
       <use xlink:href="#ArialMT-2e" x="55.615234"/>
       <use xlink:href="#ArialMT-38" x="83.398438"/>
       <use xlink:href="#ArialMT-35" x="139.013672"/>
      </g>
     </g>
    </g>
    <g id="ytick_3">
     <g id="line2d_6">
      <path d="M 67.727 181.981813 
L 378.3115 181.981813 
" clip-path="url(#p87f1df3c84)" style="fill: none; stroke: #cccccc; stroke-width: 0.8; stroke-linecap: round"/>
     </g>
     <g id="text_7">
      <!-- 0.90 -->
      <g style="fill: #262626" transform="translate(33.738563 186.705969)scale(0.132 -0.132)">
       <defs>
        <path id="ArialMT-39" d="M 350 1059 
L 891 1109 
Q 959 728 1153 556 
Q 1347 384 1650 384 
Q 1909 384 2104 503 
Q 2300 622 2425 820 
Q 2550 1019 2634 1356 
Q 2719 1694 2719 2044 
Q 2719 2081 2716 2156 
Q 2547 1888 2255 1720 
Q 1963 1553 1622 1553 
Q 1053 1553 659 1965 
Q 266 2378 266 3053 
Q 266 3750 677 4175 
Q 1088 4600 1706 4600 
Q 2153 4600 2523 4359 
Q 2894 4119 3086 3673 
Q 3278 3228 3278 2384 
Q 3278 1506 3087 986 
Q 2897 466 2520 194 
Q 2144 -78 1638 -78 
Q 1100 -78 759 220 
Q 419 519 350 1059 
z
M 2653 3081 
Q 2653 3566 2395 3850 
Q 2138 4134 1775 4134 
Q 1400 4134 1122 3828 
Q 844 3522 844 3034 
Q 844 2597 1108 2323 
Q 1372 2050 1759 2050 
Q 2150 2050 2401 2323 
Q 2653 2597 2653 3081 
z
" transform="scale(0.015625)"/>
       </defs>
       <use xlink:href="#ArialMT-30"/>
       <use xlink:href="#ArialMT-2e" x="55.615234"/>
       <use xlink:href="#ArialMT-39" x="83.398438"/>
       <use xlink:href="#ArialMT-30" x="139.013672"/>
      </g>
     </g>
    </g>
    <g id="ytick_4">
     <g id="line2d_7">
      <path d="M 67.727 128.997205 
L 378.3115 128.997205 
" clip-path="url(#p87f1df3c84)" style="fill: none; stroke: #cccccc; stroke-width: 0.8; stroke-linecap: round"/>
     </g>
     <g id="text_8">
      <!-- 0.95 -->
      <g style="fill: #262626" transform="translate(33.738563 133.721361)scale(0.132 -0.132)">
       <use xlink:href="#ArialMT-30"/>
       <use xlink:href="#ArialMT-2e" x="55.615234"/>
       <use xlink:href="#ArialMT-39" x="83.398438"/>
       <use xlink:href="#ArialMT-35" x="139.013672"/>
      </g>
     </g>
    </g>
    <g id="ytick_5">
     <g id="line2d_8">
      <path d="M 67.727 76.012598 
L 378.3115 76.012598 
" clip-path="url(#p87f1df3c84)" style="fill: none; stroke: #cccccc; stroke-width: 0.8; stroke-linecap: round"/>
     </g>
     <g id="text_9">
      <!-- 1.00 -->
      <g style="fill: #262626" transform="translate(33.738563 80.736754)scale(0.132 -0.132)">
       <use xlink:href="#ArialMT-31"/>
       <use xlink:href="#ArialMT-2e" x="55.615234"/>
       <use xlink:href="#ArialMT-30" x="83.398438"/>
       <use xlink:href="#ArialMT-30" x="139.013672"/>
      </g>
     </g>
    </g>
    <g id="text_10">
     <!-- F1 -->
     <g style="fill: #262626" transform="translate(26.876562 177.681188)rotate(-90)scale(0.144 -0.144)">
      <defs>
       <path id="ArialMT-46" d="M 525 0 
L 525 4581 
L 3616 4581 
L 3616 4041 
L 1131 4041 
L 1131 2622 
L 3281 2622 
L 3281 2081 
L 1131 2081 
L 1131 0 
L 525 0 
z
" transform="scale(0.015625)"/>
      </defs>
      <use xlink:href="#ArialMT-46"/>
      <use xlink:href="#ArialMT-31" x="61.083984"/>
     </g>
    </g>
   </g>
   <g id="PathCollection_1">
    <defs>
     <path id="ma9d2c3b952" d="M 0 2.4 
C 0.636487 2.4 1.246992 2.147121 1.697056 1.697056 
C 2.147121 1.246992 2.4 0.636487 2.4 0 
C 2.4 -0.636487 2.147121 -1.246992 1.697056 -1.697056 
C 1.246992 -2.147121 0.636487 -2.4 0 -2.4 
C -0.636487 -2.4 -1.246992 -2.147121 -1.697056 -1.697056 
C -2.147121 -1.246992 -2.4 -0.636487 -2.4 0 
C -2.4 0.636487 -2.147121 1.246992 -1.697056 1.697056 
C -1.246992 2.147121 -0.636487 2.4 0 2.4 
z
" style="stroke: #0173b2; stroke-opacity: 0.8"/>
    </defs>
    <g clip-path="url(#p87f1df3c84)">
     <use xlink:href="#ma9d2c3b952" x="82.315135" y="89.397786" style="fill: #0173b2; fill-opacity: 0.8; stroke: #0173b2; stroke-opacity: 0.8"/>
     <use xlink:href="#ma9d2c3b952" x="275.248196" y="98.173425" style="fill: #0173b2; fill-opacity: 0.8; stroke: #0173b2; stroke-opacity: 0.8"/>
     <use xlink:href="#ma9d2c3b952" x="275.143664" y="116.95519" style="fill: #0173b2; fill-opacity: 0.8; stroke: #0173b2; stroke-opacity: 0.8"/>
     <use xlink:href="#ma9d2c3b952" x="290.305609" y="106.154527" style="fill: #0173b2; fill-opacity: 0.8; stroke: #0173b2; stroke-opacity: 0.8"/>
     <use xlink:href="#ma9d2c3b952" x="158.120681" y="115.993798" style="fill: #0173b2; fill-opacity: 0.8; stroke: #0173b2; stroke-opacity: 0.8"/>
     <use xlink:href="#ma9d2c3b952" x="82.884899" y="146.863117" style="fill: #0173b2; fill-opacity: 0.8; stroke: #0173b2; stroke-opacity: 0.8"/>
     <use xlink:href="#ma9d2c3b952" x="318.34289" y="90.16949" style="fill: #0173b2; fill-opacity: 0.8; stroke: #0173b2; stroke-opacity: 0.8"/>
     <use xlink:href="#ma9d2c3b952" x="223.626213" y="94.797148" style="fill: #0173b2; fill-opacity: 0.8; stroke: #0173b2; stroke-opacity: 0.8"/>
     <use xlink:href="#ma9d2c3b952" x="196.981945" y="103.464699" style="fill: #0173b2; fill-opacity: 0.8; stroke: #0173b2; stroke-opacity: 0.8"/>
     <use xlink:href="#ma9d2c3b952" x="162.705184" y="103.499129" style="fill: #0173b2; fill-opacity: 0.8; stroke: #0173b2; stroke-opacity: 0.8"/>
     <use xlink:href="#ma9d2c3b952" x="141.805092" y="128.464703" style="fill: #0173b2; fill-opacity: 0.8; stroke: #0173b2; stroke-opacity: 0.8"/>
     <use xlink:href="#ma9d2c3b952" x="121.877119" y="105.700314" style="fill: #0173b2; fill-opacity: 0.8; stroke: #0173b2; stroke-opacity: 0.8"/>
     <use xlink:href="#ma9d2c3b952" x="234.258747" y="97.71575" style="fill: #0173b2; fill-opacity: 0.8; stroke: #0173b2; stroke-opacity: 0.8"/>
     <use xlink:href="#ma9d2c3b952" x="276.131614" y="201.442545" style="fill: #0173b2; fill-opacity: 0.8; stroke: #0173b2; stroke-opacity: 0.8"/>
     <use xlink:href="#ma9d2c3b952" x="124.333817" y="85.178935" style="fill: #0173b2; fill-opacity: 0.8; stroke: #0173b2; stroke-opacity: 0.8"/>
     <use xlink:href="#ma9d2c3b952" x="164.201183" y="162.30908" style="fill: #0173b2; fill-opacity: 0.8; stroke: #0173b2; stroke-opacity: 0.8"/>
     <use xlink:href="#ma9d2c3b952" x="131.920922" y="105.530662" style="fill: #0173b2; fill-opacity: 0.8; stroke: #0173b2; stroke-opacity: 0.8"/>
     <use xlink:href="#ma9d2c3b952" x="114.283112" y="113.02271" style="fill: #0173b2; fill-opacity: 0.8; stroke: #0173b2; stroke-opacity: 0.8"/>
     <use xlink:href="#ma9d2c3b952" x="111.282545" y="93.125676" style="fill: #0173b2; fill-opacity: 0.8; stroke: #0173b2; stroke-opacity: 0.8"/>
     <use xlink:href="#ma9d2c3b952" x="230.603355" y="129.8843" style="fill: #0173b2; fill-opacity: 0.8; stroke: #0173b2; stroke-opacity: 0.8"/>
     <use xlink:href="#ma9d2c3b952" x="191.68211" y="89.341066" style="fill: #0173b2; fill-opacity: 0.8; stroke: #0173b2; stroke-opacity: 0.8"/>
     <use xlink:href="#ma9d2c3b952" x="117.672357" y="115.371947" style="fill: #0173b2; fill-opacity: 0.8; stroke: #0173b2; stroke-opacity: 0.8"/>
     <use xlink:href="#ma9d2c3b952" x="146.249765" y="143.926669" style="fill: #0173b2; fill-opacity: 0.8; stroke: #0173b2; stroke-opacity: 0.8"/>
     <use xlink:href="#ma9d2c3b952" x="220.361284" y="171.489234" style="fill: #0173b2; fill-opacity: 0.8; stroke: #0173b2; stroke-opacity: 0.8"/>
     <use xlink:href="#ma9d2c3b952" x="106.629251" y="120.063728" style="fill: #0173b2; fill-opacity: 0.8; stroke: #0173b2; stroke-opacity: 0.8"/>
     <use xlink:href="#ma9d2c3b952" x="221.090047" y="109.170954" style="fill: #0173b2; fill-opacity: 0.8; stroke: #0173b2; stroke-opacity: 0.8"/>
     <use xlink:href="#ma9d2c3b952" x="133.302678" y="124.311715" style="fill: #0173b2; fill-opacity: 0.8; stroke: #0173b2; stroke-opacity: 0.8"/>
     <use xlink:href="#ma9d2c3b952" x="124.477744" y="99.406447" style="fill: #0173b2; fill-opacity: 0.8; stroke: #0173b2; stroke-opacity: 0.8"/>
     <use xlink:href="#ma9d2c3b952" x="268.975279" y="111.850395" style="fill: #0173b2; fill-opacity: 0.8; stroke: #0173b2; stroke-opacity: 0.8"/>
     <use xlink:href="#ma9d2c3b952" x="158.608445" y="108.620349" style="fill: #0173b2; fill-opacity: 0.8; stroke: #0173b2; stroke-opacity: 0.8"/>
     <use xlink:href="#ma9d2c3b952" x="144.472214" y="113.076476" style="fill: #0173b2; fill-opacity: 0.8; stroke: #0173b2; stroke-opacity: 0.8"/>
     <use xlink:href="#ma9d2c3b952" x="81.844477" y="184.782197" style="fill: #0173b2; fill-opacity: 0.8; stroke: #0173b2; stroke-opacity: 0.8"/>
     <use xlink:href="#ma9d2c3b952" x="161.032545" y="162.364674" style="fill: #0173b2; fill-opacity: 0.8; stroke: #0173b2; stroke-opacity: 0.8"/>
     <use xlink:href="#ma9d2c3b952" x="164.78595" y="196.183075" style="fill: #0173b2; fill-opacity: 0.8; stroke: #0173b2; stroke-opacity: 0.8"/>
     <use xlink:href="#ma9d2c3b952" x="201.329416" y="113.37087" style="fill: #0173b2; fill-opacity: 0.8; stroke: #0173b2; stroke-opacity: 0.8"/>
     <use xlink:href="#ma9d2c3b952" x="290.392598" y="116.816749" style="fill: #0173b2; fill-opacity: 0.8; stroke: #0173b2; stroke-opacity: 0.8"/>
     <use xlink:href="#ma9d2c3b952" x="128.782329" y="88.029656" style="fill: #0173b2; fill-opacity: 0.8; stroke: #0173b2; stroke-opacity: 0.8"/>
     <use xlink:href="#ma9d2c3b952" x="126.499846" y="102.346179" style="fill: #0173b2; fill-opacity: 0.8; stroke: #0173b2; stroke-opacity: 0.8"/>
     <use xlink:href="#ma9d2c3b952" x="118.801022" y="92.288913" style="fill: #0173b2; fill-opacity: 0.8; stroke: #0173b2; stroke-opacity: 0.8"/>
     <use xlink:href="#ma9d2c3b952" x="141.262617" y="90.387385" style="fill: #0173b2; fill-opacity: 0.8; stroke: #0173b2; stroke-opacity: 0.8"/>
     <use xlink:href="#ma9d2c3b952" x="278.073592" y="115.523985" style="fill: #0173b2; fill-opacity: 0.8; stroke: #0173b2; stroke-opacity: 0.8"/>
     <use xlink:href="#ma9d2c3b952" x="160.49216" y="106.807194" style="fill: #0173b2; fill-opacity: 0.8; stroke: #0173b2; stroke-opacity: 0.8"/>
     <use xlink:href="#ma9d2c3b952" x="210.25438" y="95.705643" style="fill: #0173b2; fill-opacity: 0.8; stroke: #0173b2; stroke-opacity: 0.8"/>
     <use xlink:href="#ma9d2c3b952" x="318.51601" y="92.976324" style="fill: #0173b2; fill-opacity: 0.8; stroke: #0173b2; stroke-opacity: 0.8"/>
     <use xlink:href="#ma9d2c3b952" x="125.333385" y="82.983085" style="fill: #0173b2; fill-opacity: 0.8; stroke: #0173b2; stroke-opacity: 0.8"/>
     <use xlink:href="#ma9d2c3b952" x="317.668749" y="88.757362" style="fill: #0173b2; fill-opacity: 0.8; stroke: #0173b2; stroke-opacity: 0.8"/>
     <use xlink:href="#ma9d2c3b952" x="268.435078" y="100.112698" style="fill: #0173b2; fill-opacity: 0.8; stroke: #0173b2; stroke-opacity: 0.8"/>
     <use xlink:href="#ma9d2c3b952" x="235.482454" y="99.935447" style="fill: #0173b2; fill-opacity: 0.8; stroke: #0173b2; stroke-opacity: 0.8"/>
     <use xlink:href="#ma9d2c3b952" x="364.194023" y="102.101916" style="fill: #0173b2; fill-opacity: 0.8; stroke: #0173b2; stroke-opacity: 0.8"/>
     <use xlink:href="#ma9d2c3b952" x="221.134514" y="106.683072" style="fill: #0173b2; fill-opacity: 0.8; stroke: #0173b2; stroke-opacity: 0.8"/>
     <use xlink:href="#ma9d2c3b952" x="246.396337" y="119.223803" style="fill: #0173b2; fill-opacity: 0.8; stroke: #0173b2; stroke-opacity: 0.8"/>
     <use xlink:href="#ma9d2c3b952" x="148.064156" y="155.012647" style="fill: #0173b2; fill-opacity: 0.8; stroke: #0173b2; stroke-opacity: 0.8"/>
     <use xlink:href="#ma9d2c3b952" x="82.626656" y="211.193044" style="fill: #0173b2; fill-opacity: 0.8; stroke: #0173b2; stroke-opacity: 0.8"/>
     <use xlink:href="#ma9d2c3b952" x="279.568206" y="85.236369" style="fill: #0173b2; fill-opacity: 0.8; stroke: #0173b2; stroke-opacity: 0.8"/>
     <use xlink:href="#ma9d2c3b952" x="94.568901" y="95.592087" style="fill: #0173b2; fill-opacity: 0.8; stroke: #0173b2; stroke-opacity: 0.8"/>
     <use xlink:href="#ma9d2c3b952" x="226.676759" y="109.58533" style="fill: #0173b2; fill-opacity: 0.8; stroke: #0173b2; stroke-opacity: 0.8"/>
     <use xlink:href="#ma9d2c3b952" x="186.017272" y="108.727016" style="fill: #0173b2; fill-opacity: 0.8; stroke: #0173b2; stroke-opacity: 0.8"/>
     <use xlink:href="#ma9d2c3b952" x="308.676002" y="109.987381" style="fill: #0173b2; fill-opacity: 0.8; stroke: #0173b2; stroke-opacity: 0.8"/>
     <use xlink:href="#ma9d2c3b952" x="110.01555" y="102.19996" style="fill: #0173b2; fill-opacity: 0.8; stroke: #0173b2; stroke-opacity: 0.8"/>
     <use xlink:href="#ma9d2c3b952" x="230.283353" y="94.985999" style="fill: #0173b2; fill-opacity: 0.8; stroke: #0173b2; stroke-opacity: 0.8"/>
     <use xlink:href="#ma9d2c3b952" x="201.486301" y="248.148761" style="fill: #0173b2; fill-opacity: 0.8; stroke: #0173b2; stroke-opacity: 0.8"/>
     <use xlink:href="#ma9d2c3b952" x="186.032698" y="98.408176" style="fill: #0173b2; fill-opacity: 0.8; stroke: #0173b2; stroke-opacity: 0.8"/>
     <use xlink:href="#ma9d2c3b952" x="268.603942" y="117.079424" style="fill: #0173b2; fill-opacity: 0.8; stroke: #0173b2; stroke-opacity: 0.8"/>
     <use xlink:href="#ma9d2c3b952" x="114.600115" y="135.52876" style="fill: #0173b2; fill-opacity: 0.8; stroke: #0173b2; stroke-opacity: 0.8"/>
     <use xlink:href="#ma9d2c3b952" x="211.874047" y="95.449343" style="fill: #0173b2; fill-opacity: 0.8; stroke: #0173b2; stroke-opacity: 0.8"/>
     <use xlink:href="#ma9d2c3b952" x="187.942172" y="95.815088" style="fill: #0173b2; fill-opacity: 0.8; stroke: #0173b2; stroke-opacity: 0.8"/>
     <use xlink:href="#ma9d2c3b952" x="340.029375" y="117.399308" style="fill: #0173b2; fill-opacity: 0.8; stroke: #0173b2; stroke-opacity: 0.8"/>
     <use xlink:href="#ma9d2c3b952" x="195.330681" y="122.351806" style="fill: #0173b2; fill-opacity: 0.8; stroke: #0173b2; stroke-opacity: 0.8"/>
     <use xlink:href="#ma9d2c3b952" x="138.465855" y="100.631365" style="fill: #0173b2; fill-opacity: 0.8; stroke: #0173b2; stroke-opacity: 0.8"/>
     <use xlink:href="#ma9d2c3b952" x="255.653319" y="106.21853" style="fill: #0173b2; fill-opacity: 0.8; stroke: #0173b2; stroke-opacity: 0.8"/>
     <use xlink:href="#ma9d2c3b952" x="205.078243" y="97.803261" style="fill: #0173b2; fill-opacity: 0.8; stroke: #0173b2; stroke-opacity: 0.8"/>
     <use xlink:href="#ma9d2c3b952" x="231.194128" y="82.191099" style="fill: #0173b2; fill-opacity: 0.8; stroke: #0173b2; stroke-opacity: 0.8"/>
     <use xlink:href="#ma9d2c3b952" x="137.040062" y="94.096823" style="fill: #0173b2; fill-opacity: 0.8; stroke: #0173b2; stroke-opacity: 0.8"/>
     <use xlink:href="#ma9d2c3b952" x="90.246148" y="107.064398" style="fill: #0173b2; fill-opacity: 0.8; stroke: #0173b2; stroke-opacity: 0.8"/>
     <use xlink:href="#ma9d2c3b952" x="268.730246" y="85.322146" style="fill: #0173b2; fill-opacity: 0.8; stroke: #0173b2; stroke-opacity: 0.8"/>
    </g>
   </g>
   <g id="PolyCollection_1">
    <defs>
     <path id="m9079328b6a" d="M 81.844477 -250.489005 
L 81.844477 -233.892344 
L 138.13097 -234.481305 
L 165.17164 -235.030408 
L 183.141483 -235.50288 
L 196.620658 -235.942265 
L 207.410741 -236.38165 
L 216.40827 -236.733411 
L 224.124845 -237.261275 
L 230.880156 -237.730404 
L 236.887382 -238.199103 
L 242.295814 -238.620983 
L 247.21408 -239.060416 
L 251.723691 -239.468014 
L 255.887377 -239.788996 
L 259.75445 -240.073483 
L 263.364374 -240.280041 
L 266.749225 -240.632292 
L 269.935431 -240.953312 
L 272.94502 -241.204215 
L 275.796549 -241.52943 
L 278.505794 -241.761279 
L 281.086282 -242.002526 
L 283.549699 -242.086568 
L 285.906207 -242.307042 
L 288.164702 -242.528041 
L 290.333012 -242.827278 
L 292.418063 -243.030303 
L 294.426015 -243.113346 
L 296.362365 -243.216266 
L 298.232046 -243.401387 
L 300.039495 -243.488036 
L 301.788723 -243.700681 
L 303.483363 -243.869252 
L 305.12672 -243.800472 
L 306.721806 -243.975509 
L 308.271377 -244.155312 
L 309.777958 -244.331879 
L 311.24387 -244.475153 
L 312.671251 -244.444327 
L 314.062076 -244.421397 
L 315.418169 -244.51601 
L 316.741224 -244.562387 
L 318.032811 -244.555889 
L 319.294394 -244.551528 
L 320.527334 -244.648497 
L 321.732903 -244.606475 
L 322.912291 -244.564453 
L 324.06661 -244.522431 
L 325.196903 -244.50962 
L 326.304152 -244.435423 
L 327.389275 -244.390571 
L 328.453142 -244.348387 
L 329.496567 -244.306202 
L 330.520323 -244.264017 
L 331.525136 -244.221832 
L 332.511696 -244.196585 
L 333.480653 -244.181827 
L 334.432625 -244.16707 
L 335.368196 -244.152312 
L 336.287923 -244.137555 
L 337.192334 -244.122797 
L 338.081929 -244.108039 
L 338.957187 -244.093282 
L 339.818562 -244.078524 
L 340.666489 -244.06408 
L 341.501379 -244.050008 
L 342.323629 -244.035936 
L 343.133615 -244.021863 
L 343.931698 -244.007791 
L 344.718222 -243.993719 
L 345.493518 -243.909874 
L 346.257902 -243.818273 
L 347.011676 -243.726673 
L 347.755131 -243.733204 
L 348.488545 -243.800539 
L 349.212187 -243.685908 
L 349.926314 -243.618437 
L 350.631172 -243.602148 
L 351.326998 -243.58799 
L 352.014022 -243.597916 
L 352.692464 -243.634495 
L 353.362534 -243.671074 
L 354.024438 -243.707653 
L 354.678371 -243.744231 
L 355.324524 -243.78081 
L 355.963079 -243.768562 
L 356.594214 -243.75449 
L 357.218098 -243.740417 
L 357.834896 -243.726345 
L 358.444768 -243.712273 
L 359.047867 -243.698201 
L 359.644342 -243.684128 
L 360.234337 -243.670056 
L 360.817991 -243.655984 
L 361.395439 -243.641911 
L 361.966812 -243.627839 
L 362.532236 -243.613767 
L 363.091834 -243.599694 
L 363.645724 -243.585622 
L 364.194023 -243.57155 
L 364.194023 -307.914507 
L 364.194023 -307.914507 
L 363.645724 -307.198728 
L 363.091834 -306.482948 
L 362.532236 -305.767169 
L 361.966812 -305.05139 
L 361.395439 -304.334946 
L 360.817991 -303.618174 
L 360.234337 -302.901403 
L 359.644342 -302.184632 
L 359.047867 -301.46786 
L 358.444768 -300.751089 
L 357.834896 -300.034318 
L 357.218098 -299.317546 
L 356.594214 -298.600775 
L 355.963079 -297.884004 
L 355.324524 -297.169409 
L 354.678371 -296.505202 
L 354.024438 -295.840996 
L 353.362534 -295.17679 
L 352.692464 -294.512583 
L 352.014022 -293.848377 
L 351.326998 -293.184171 
L 350.631172 -292.519964 
L 349.926314 -291.855758 
L 349.212187 -291.191552 
L 348.488545 -290.527345 
L 347.755131 -289.863139 
L 347.011676 -289.198933 
L 346.257902 -288.534726 
L 345.493518 -287.87052 
L 344.718222 -287.175859 
L 343.931698 -286.454342 
L 343.133615 -285.731306 
L 342.323629 -285.00691 
L 341.501379 -284.265654 
L 340.666489 -283.489168 
L 339.818562 -282.712681 
L 338.957187 -282.05563 
L 338.081929 -281.392326 
L 337.192334 -280.672262 
L 336.287923 -279.952198 
L 335.368196 -279.232134 
L 334.432625 -278.551823 
L 333.480653 -277.89852 
L 332.511696 -277.245217 
L 331.525136 -276.591914 
L 330.520323 -275.939828 
L 329.496567 -275.289934 
L 328.453142 -274.503572 
L 327.389275 -273.654948 
L 326.304152 -272.908224 
L 325.196903 -272.247756 
L 324.06661 -271.595816 
L 322.912291 -270.943875 
L 321.732903 -270.291935 
L 320.527334 -269.639995 
L 319.294394 -269.017934 
L 318.032811 -268.420256 
L 316.741224 -267.818465 
L 315.418169 -267.059496 
L 314.062076 -266.375146 
L 312.671251 -265.7507 
L 311.24387 -265.142697 
L 309.777958 -264.449923 
L 308.271377 -263.88159 
L 306.721806 -263.307957 
L 305.12672 -262.544571 
L 303.483363 -261.814182 
L 301.788723 -261.164232 
L 300.039495 -260.509892 
L 298.232046 -259.94199 
L 296.362365 -259.501181 
L 294.426015 -258.999379 
L 292.418063 -258.321425 
L 290.333012 -257.863204 
L 288.164702 -257.386856 
L 285.906207 -256.516392 
L 283.549699 -255.761301 
L 281.086282 -255.240421 
L 278.505794 -254.710338 
L 275.796549 -254.371422 
L 272.94502 -253.981024 
L 269.935431 -253.725788 
L 266.749225 -253.420118 
L 263.364374 -253.095486 
L 259.75445 -252.906707 
L 255.887377 -252.580539 
L 251.723691 -252.354309 
L 247.21408 -252.142783 
L 242.295814 -251.926407 
L 236.887382 -251.706214 
L 230.880156 -251.539621 
L 224.124845 -251.425686 
L 216.40827 -251.205399 
L 207.410741 -250.982283 
L 196.620658 -250.759857 
L 183.141483 -250.607696 
L 165.17164 -250.519973 
L 138.13097 -250.515365 
L 81.844477 -250.489005 
z
" style="stroke: #ffffff; stroke-opacity: 0.15; stroke-width: 0.8"/>
    </defs>
    <g clip-path="url(#p87f1df3c84)">
     <use xlink:href="#m9079328b6a" x="0" y="360" style="fill: #0173b2; fill-opacity: 0.15; stroke: #ffffff; stroke-opacity: 0.15; stroke-width: 0.8"/>
    </g>
   </g>
   <g id="line2d_9">
    <path d="M 81.844477 117.466791 
L 138.13097 117.210843 
L 165.17164 116.954895 
L 183.141483 116.698947 
L 196.620658 116.442999 
L 207.410741 116.187051 
L 216.40827 115.931103 
L 224.124845 115.675155 
L 230.880156 115.419207 
L 236.887382 115.16326 
L 242.295814 114.907312 
L 247.21408 114.651364 
L 251.723691 114.395416 
L 255.887377 114.139468 
L 259.75445 113.88352 
L 263.364374 113.627572 
L 266.749225 113.371624 
L 269.935431 113.115676 
L 272.94502 112.859728 
L 275.796549 112.60378 
L 278.505794 112.347832 
L 281.086282 112.091884 
L 283.549699 111.835937 
L 285.906207 111.579989 
L 288.164702 111.324041 
L 290.333012 111.068093 
L 292.418063 110.812145 
L 294.426015 110.556197 
L 296.362365 110.300249 
L 298.232046 110.044301 
L 300.039495 109.788353 
L 301.788723 109.532405 
L 303.483363 109.276457 
L 305.12672 109.020509 
L 306.721806 108.764561 
L 308.271377 108.508614 
L 309.777958 108.252666 
L 311.24387 107.996718 
L 312.671251 107.74077 
L 314.062076 107.484822 
L 315.418169 107.228874 
L 316.741224 106.972926 
L 318.032811 106.716978 
L 319.294394 106.46103 
L 320.527334 106.205082 
L 321.732903 105.949134 
L 322.912291 105.693186 
L 324.06661 105.437238 
L 325.196903 105.181291 
L 326.304152 104.925343 
L 327.389275 104.669395 
L 328.453142 104.413447 
L 329.496567 104.157499 
L 330.520323 103.901551 
L 331.525136 103.645603 
L 332.511696 103.389655 
L 333.480653 103.133707 
L 334.432625 102.877759 
L 335.368196 102.621811 
L 336.287923 102.365863 
L 337.192334 102.109915 
L 338.081929 101.853968 
L 338.957187 101.59802 
L 339.818562 101.342072 
L 340.666489 101.086124 
L 341.501379 100.830176 
L 342.323629 100.574228 
L 343.133615 100.31828 
L 343.931698 100.062332 
L 344.718222 99.806384 
L 345.493518 99.550436 
L 346.257902 99.294488 
L 347.011676 99.03854 
L 347.755131 98.782592 
L 348.488545 98.526645 
L 349.212187 98.270697 
L 349.926314 98.014749 
L 350.631172 97.758801 
L 351.326998 97.502853 
L 352.014022 97.246905 
L 352.692464 96.990957 
L 353.362534 96.735009 
L 354.024438 96.479061 
L 354.678371 96.223113 
L 355.324524 95.967165 
L 355.963079 95.711217 
L 356.594214 95.455269 
L 357.218098 95.199322 
L 357.834896 94.943374 
L 358.444768 94.687426 
L 359.047867 94.431478 
L 359.644342 94.17553 
L 360.234337 93.919582 
L 360.817991 93.663634 
L 361.395439 93.407686 
L 361.966812 93.151738 
L 362.532236 92.89579 
L 363.091834 92.639842 
L 363.645724 92.383894 
L 364.194023 92.127946 
" clip-path="url(#p87f1df3c84)" style="fill: none; stroke: #0173b2; stroke-width: 1.8; stroke-linecap: round"/>
   </g>
   <g id="patch_3">
    <path d="M 67.727 306.007375 
L 67.727 32.552 
" style="fill: none; stroke: #cccccc; stroke-linejoin: miter; stroke-linecap: square"/>
   </g>
   <g id="patch_4">
    <path d="M 67.727 306.007375 
L 378.3115 306.007375 
" style="fill: none; stroke: #cccccc; stroke-linejoin: miter; stroke-linecap: square"/>
   </g>
   <g id="text_11">
    <!-- Model = AlephBERT (Masked) -->
    <g style="fill: #262626" transform="translate(126.232125 26.552)scale(0.144 -0.144)">
     <defs>
      <path id="ArialMT-4d" d="M 475 0 
L 475 4581 
L 1388 4581 
L 2472 1338 
Q 2622 884 2691 659 
Q 2769 909 2934 1394 
L 4031 4581 
L 4847 4581 
L 4847 0 
L 4263 0 
L 4263 3834 
L 2931 0 
L 2384 0 
L 1059 3900 
L 1059 0 
L 475 0 
z
" transform="scale(0.015625)"/>
      <path id="ArialMT-64" d="M 2575 0 
L 2575 419 
Q 2259 -75 1647 -75 
Q 1250 -75 917 144 
Q 584 363 401 755 
Q 219 1147 219 1656 
Q 219 2153 384 2558 
Q 550 2963 881 3178 
Q 1213 3394 1622 3394 
Q 1922 3394 2156 3267 
Q 2391 3141 2538 2938 
L 2538 4581 
L 3097 4581 
L 3097 0 
L 2575 0 
z
M 797 1656 
Q 797 1019 1065 703 
Q 1334 388 1700 388 
Q 2069 388 2326 689 
Q 2584 991 2584 1609 
Q 2584 2291 2321 2609 
Q 2059 2928 1675 2928 
Q 1300 2928 1048 2622 
Q 797 2316 797 1656 
z
" transform="scale(0.015625)"/>
      <path id="ArialMT-3d" d="M 3381 2694 
L 356 2694 
L 356 3219 
L 3381 3219 
L 3381 2694 
z
M 3381 1303 
L 356 1303 
L 356 1828 
L 3381 1828 
L 3381 1303 
z
" transform="scale(0.015625)"/>
      <path id="ArialMT-41" d="M -9 0 
L 1750 4581 
L 2403 4581 
L 4278 0 
L 3588 0 
L 3053 1388 
L 1138 1388 
L 634 0 
L -9 0 
z
M 1313 1881 
L 2866 1881 
L 2388 3150 
Q 2169 3728 2063 4100 
Q 1975 3659 1816 3225 
L 1313 1881 
z
" transform="scale(0.015625)"/>
      <path id="ArialMT-70" d="M 422 -1272 
L 422 3319 
L 934 3319 
L 934 2888 
Q 1116 3141 1344 3267 
Q 1572 3394 1897 3394 
Q 2322 3394 2647 3175 
Q 2972 2956 3137 2557 
Q 3303 2159 3303 1684 
Q 3303 1175 3120 767 
Q 2938 359 2589 142 
Q 2241 -75 1856 -75 
Q 1575 -75 1351 44 
Q 1128 163 984 344 
L 984 -1272 
L 422 -1272 
z
M 931 1641 
Q 931 1000 1190 694 
Q 1450 388 1819 388 
Q 2194 388 2461 705 
Q 2728 1022 2728 1688 
Q 2728 2322 2467 2637 
Q 2206 2953 1844 2953 
Q 1484 2953 1207 2617 
Q 931 2281 931 1641 
z
" transform="scale(0.015625)"/>
      <path id="ArialMT-68" d="M 422 0 
L 422 4581 
L 984 4581 
L 984 2938 
Q 1378 3394 1978 3394 
Q 2347 3394 2619 3248 
Q 2891 3103 3008 2847 
Q 3125 2591 3125 2103 
L 3125 0 
L 2563 0 
L 2563 2103 
Q 2563 2525 2380 2717 
Q 2197 2909 1863 2909 
Q 1613 2909 1392 2779 
Q 1172 2650 1078 2428 
Q 984 2206 984 1816 
L 984 0 
L 422 0 
z
" transform="scale(0.015625)"/>
      <path id="ArialMT-42" d="M 469 0 
L 469 4581 
L 2188 4581 
Q 2713 4581 3030 4442 
Q 3347 4303 3526 4014 
Q 3706 3725 3706 3409 
Q 3706 3116 3547 2856 
Q 3388 2597 3066 2438 
Q 3481 2316 3704 2022 
Q 3928 1728 3928 1328 
Q 3928 1006 3792 729 
Q 3656 453 3456 303 
Q 3256 153 2954 76 
Q 2653 0 2216 0 
L 469 0 
z
M 1075 2656 
L 2066 2656 
Q 2469 2656 2644 2709 
Q 2875 2778 2992 2937 
Q 3109 3097 3109 3338 
Q 3109 3566 3000 3739 
Q 2891 3913 2687 3977 
Q 2484 4041 1991 4041 
L 1075 4041 
L 1075 2656 
z
M 1075 541 
L 2216 541 
Q 2509 541 2628 563 
Q 2838 600 2978 687 
Q 3119 775 3209 942 
Q 3300 1109 3300 1328 
Q 3300 1584 3169 1773 
Q 3038 1963 2805 2039 
Q 2572 2116 2134 2116 
L 1075 2116 
L 1075 541 
z
" transform="scale(0.015625)"/>
      <path id="ArialMT-45" d="M 506 0 
L 506 4581 
L 3819 4581 
L 3819 4041 
L 1113 4041 
L 1113 2638 
L 3647 2638 
L 3647 2100 
L 1113 2100 
L 1113 541 
L 3925 541 
L 3925 0 
L 506 0 
z
" transform="scale(0.015625)"/>
      <path id="ArialMT-54" d="M 1659 0 
L 1659 4041 
L 150 4041 
L 150 4581 
L 3781 4581 
L 3781 4041 
L 2266 4041 
L 2266 0 
L 1659 0 
z
" transform="scale(0.015625)"/>
      <path id="ArialMT-73" d="M 197 991 
L 753 1078 
Q 800 744 1014 566 
Q 1228 388 1613 388 
Q 2000 388 2187 545 
Q 2375 703 2375 916 
Q 2375 1106 2209 1216 
Q 2094 1291 1634 1406 
Q 1016 1563 777 1677 
Q 538 1791 414 1992 
Q 291 2194 291 2438 
Q 291 2659 392 2848 
Q 494 3038 669 3163 
Q 800 3259 1026 3326 
Q 1253 3394 1513 3394 
Q 1903 3394 2198 3281 
Q 2494 3169 2634 2976 
Q 2775 2784 2828 2463 
L 2278 2388 
Q 2241 2644 2061 2787 
Q 1881 2931 1553 2931 
Q 1166 2931 1000 2803 
Q 834 2675 834 2503 
Q 834 2394 903 2306 
Q 972 2216 1119 2156 
Q 1203 2125 1616 2013 
Q 2213 1853 2448 1751 
Q 2684 1650 2818 1456 
Q 2953 1263 2953 975 
Q 2953 694 2789 445 
Q 2625 197 2315 61 
Q 2006 -75 1616 -75 
Q 969 -75 630 194 
Q 291 463 197 991 
z
" transform="scale(0.015625)"/>
      <path id="ArialMT-6b" d="M 425 0 
L 425 4581 
L 988 4581 
L 988 1969 
L 2319 3319 
L 3047 3319 
L 1778 2088 
L 3175 0 
L 2481 0 
L 1384 1697 
L 988 1316 
L 988 0 
L 425 0 
z
" transform="scale(0.015625)"/>
     </defs>
     <use xlink:href="#ArialMT-4d"/>
     <use xlink:href="#ArialMT-6f" x="83.300781"/>
     <use xlink:href="#ArialMT-64" x="138.916016"/>
     <use xlink:href="#ArialMT-65" x="194.53125"/>
     <use xlink:href="#ArialMT-6c" x="250.146484"/>
     <use xlink:href="#ArialMT-20" x="272.363281"/>
     <use xlink:href="#ArialMT-3d" x="300.146484"/>
     <use xlink:href="#ArialMT-20" x="358.544922"/>
     <use xlink:href="#ArialMT-41" x="380.828125"/>
     <use xlink:href="#ArialMT-6c" x="447.527344"/>
     <use xlink:href="#ArialMT-65" x="469.744141"/>
     <use xlink:href="#ArialMT-70" x="525.359375"/>
     <use xlink:href="#ArialMT-68" x="580.974609"/>
     <use xlink:href="#ArialMT-42" x="636.589844"/>
     <use xlink:href="#ArialMT-45" x="703.289062"/>
     <use xlink:href="#ArialMT-52" x="769.988281"/>
     <use xlink:href="#ArialMT-54" x="840.455078"/>
     <use xlink:href="#ArialMT-20" x="899.789062"/>
     <use xlink:href="#ArialMT-28" x="927.572266"/>
     <use xlink:href="#ArialMT-4d" x="960.873047"/>
     <use xlink:href="#ArialMT-61" x="1044.173828"/>
     <use xlink:href="#ArialMT-73" x="1099.789062"/>
     <use xlink:href="#ArialMT-6b" x="1149.789062"/>
     <use xlink:href="#ArialMT-65" x="1199.789062"/>
     <use xlink:href="#ArialMT-64" x="1255.404297"/>
     <use xlink:href="#ArialMT-29" x="1311.019531"/>
    </g>
   </g>
  </g>
  <g id="axes_2">
   <g id="patch_5">
    <path d="M 393.8635 306.007375 
L 704.448 306.007375 
L 704.448 32.552 
L 393.8635 32.552 
z
" style="fill: #ffffff"/>
   </g>
   <g id="matplotlib.axis_3">
    <g id="xtick_23">
     <g id="line2d_10">
      <path d="M 406.16519 306.007375 
L 406.16519 32.552 
" clip-path="url(#p90847dac7f)" style="fill: none; stroke: #cccccc; stroke-width: 0.8; stroke-linecap: round"/>
     </g>
     <g id="text_12">
      <!-- 1:1 -->
      <g style="fill: #262626" transform="translate(396.99119 323.755688)scale(0.132 -0.132)">
       <use xlink:href="#ArialMT-31"/>
       <use xlink:href="#ArialMT-3a" x="55.615234"/>
       <use xlink:href="#ArialMT-31" x="83.398438"/>
      </g>
     </g>
    </g>
    <g id="xtick_24">
     <g id="line2d_11">
      <path d="M 531.214743 306.007375 
L 531.214743 32.552 
" clip-path="url(#p90847dac7f)" style="fill: none; stroke: #cccccc; stroke-width: 0.8; stroke-linecap: round"/>
     </g>
     <g id="text_13">
      <!-- 1:10 -->
      <g style="fill: #262626" transform="translate(518.370524 323.755688)scale(0.132 -0.132)">
       <use xlink:href="#ArialMT-31"/>
       <use xlink:href="#ArialMT-3a" x="55.615234"/>
       <use xlink:href="#ArialMT-31" x="83.398438"/>
       <use xlink:href="#ArialMT-30" x="139.013672"/>
      </g>
     </g>
    </g>
    <g id="xtick_25">
     <g id="line2d_12">
      <path d="M 656.264295 306.007375 
L 656.264295 32.552 
" clip-path="url(#p90847dac7f)" style="fill: none; stroke: #cccccc; stroke-width: 0.8; stroke-linecap: round"/>
     </g>
     <g id="text_14">
      <!-- 1:100 -->
      <g style="fill: #262626" transform="translate(639.749858 323.755688)scale(0.132 -0.132)">
       <use xlink:href="#ArialMT-31"/>
       <use xlink:href="#ArialMT-3a" x="55.615234"/>
       <use xlink:href="#ArialMT-31" x="83.398438"/>
       <use xlink:href="#ArialMT-30" x="139.013672"/>
       <use xlink:href="#ArialMT-30" x="194.628906"/>
      </g>
     </g>
    </g>
    <g id="xtick_26"/>
    <g id="xtick_27"/>
    <g id="xtick_28"/>
    <g id="xtick_29"/>
    <g id="xtick_30"/>
    <g id="xtick_31"/>
    <g id="xtick_32"/>
    <g id="xtick_33"/>
    <g id="xtick_34"/>
    <g id="xtick_35"/>
    <g id="xtick_36"/>
    <g id="xtick_37"/>
    <g id="xtick_38"/>
    <g id="xtick_39"/>
    <g id="xtick_40"/>
    <g id="xtick_41"/>
    <g id="xtick_42"/>
    <g id="xtick_43"/>
    <g id="xtick_44"/>
    <g id="text_15">
     <!-- Ratio (Log Scale) -->
     <g style="fill: #262626" transform="translate(493.53125 340.861938)scale(0.144 -0.144)">
      <use xlink:href="#ArialMT-52"/>
      <use xlink:href="#ArialMT-61" x="72.216797"/>
      <use xlink:href="#ArialMT-74" x="127.832031"/>
      <use xlink:href="#ArialMT-69" x="155.615234"/>
      <use xlink:href="#ArialMT-6f" x="177.832031"/>
      <use xlink:href="#ArialMT-20" x="233.447266"/>
      <use xlink:href="#ArialMT-28" x="261.230469"/>
      <use xlink:href="#ArialMT-4c" x="294.53125"/>
      <use xlink:href="#ArialMT-6f" x="350.146484"/>
      <use xlink:href="#ArialMT-67" x="405.761719"/>
      <use xlink:href="#ArialMT-20" x="461.376953"/>
      <use xlink:href="#ArialMT-53" x="489.160156"/>
      <use xlink:href="#ArialMT-63" x="555.859375"/>
      <use xlink:href="#ArialMT-61" x="605.859375"/>
      <use xlink:href="#ArialMT-6c" x="661.474609"/>
      <use xlink:href="#ArialMT-65" x="683.691406"/>
      <use xlink:href="#ArialMT-29" x="739.306641"/>
     </g>
    </g>
   </g>
   <g id="matplotlib.axis_4">
    <g id="ytick_6">
     <g id="line2d_13">
      <path d="M 393.8635 287.951027 
L 704.448 287.951027 
" clip-path="url(#p90847dac7f)" style="fill: none; stroke: #cccccc; stroke-width: 0.8; stroke-linecap: round"/>
     </g>
    </g>
    <g id="ytick_7">
     <g id="line2d_14">
      <path d="M 393.8635 234.96642 
L 704.448 234.96642 
" clip-path="url(#p90847dac7f)" style="fill: none; stroke: #cccccc; stroke-width: 0.8; stroke-linecap: round"/>
     </g>
    </g>
    <g id="ytick_8">
     <g id="line2d_15">
      <path d="M 393.8635 181.981813 
L 704.448 181.981813 
" clip-path="url(#p90847dac7f)" style="fill: none; stroke: #cccccc; stroke-width: 0.8; stroke-linecap: round"/>
     </g>
    </g>
    <g id="ytick_9">
     <g id="line2d_16">
      <path d="M 393.8635 128.997205 
L 704.448 128.997205 
" clip-path="url(#p90847dac7f)" style="fill: none; stroke: #cccccc; stroke-width: 0.8; stroke-linecap: round"/>
     </g>
    </g>
    <g id="ytick_10">
     <g id="line2d_17">
      <path d="M 393.8635 76.012598 
L 704.448 76.012598 
" clip-path="url(#p90847dac7f)" style="fill: none; stroke: #cccccc; stroke-width: 0.8; stroke-linecap: round"/>
     </g>
    </g>
   </g>
   <g id="PathCollection_2">
    <defs>
     <path id="m9331a34bd4" d="M 0 2.4 
C 0.636487 2.4 1.246992 2.147121 1.697056 1.697056 
C 2.147121 1.246992 2.4 0.636487 2.4 0 
C 2.4 -0.636487 2.147121 -1.246992 1.697056 -1.697056 
C 1.246992 -2.147121 0.636487 -2.4 0 -2.4 
C -0.636487 -2.4 -1.246992 -2.147121 -1.697056 -1.697056 
C -2.147121 -1.246992 -2.4 -0.636487 -2.4 0 
C -2.4 0.636487 -2.147121 1.246992 -1.697056 1.697056 
C -1.246992 2.147121 -0.636487 2.4 0 2.4 
z
" style="stroke: #de8f05; stroke-opacity: 0.8"/>
    </defs>
    <g clip-path="url(#p90847dac7f)">
     <use xlink:href="#m9331a34bd4" x="408.451635" y="88.358279" style="fill: #de8f05; fill-opacity: 0.8; stroke: #de8f05; stroke-opacity: 0.8"/>
     <use xlink:href="#m9331a34bd4" x="601.384696" y="96.583378" style="fill: #de8f05; fill-opacity: 0.8; stroke: #de8f05; stroke-opacity: 0.8"/>
     <use xlink:href="#m9331a34bd4" x="601.280164" y="112.81647" style="fill: #de8f05; fill-opacity: 0.8; stroke: #de8f05; stroke-opacity: 0.8"/>
     <use xlink:href="#m9331a34bd4" x="616.442109" y="101.343217" style="fill: #de8f05; fill-opacity: 0.8; stroke: #de8f05; stroke-opacity: 0.8"/>
     <use xlink:href="#m9331a34bd4" x="484.257181" y="122.534968" style="fill: #de8f05; fill-opacity: 0.8; stroke: #de8f05; stroke-opacity: 0.8"/>
     <use xlink:href="#m9331a34bd4" x="409.021399" y="147.914978" style="fill: #de8f05; fill-opacity: 0.8; stroke: #de8f05; stroke-opacity: 0.8"/>
     <use xlink:href="#m9331a34bd4" x="644.47939" y="93.422465" style="fill: #de8f05; fill-opacity: 0.8; stroke: #de8f05; stroke-opacity: 0.8"/>
     <use xlink:href="#m9331a34bd4" x="549.762713" y="94.213173" style="fill: #de8f05; fill-opacity: 0.8; stroke: #de8f05; stroke-opacity: 0.8"/>
     <use xlink:href="#m9331a34bd4" x="523.118445" y="99.353784" style="fill: #de8f05; fill-opacity: 0.8; stroke: #de8f05; stroke-opacity: 0.8"/>
     <use xlink:href="#m9331a34bd4" x="488.841684" y="99.010895" style="fill: #de8f05; fill-opacity: 0.8; stroke: #de8f05; stroke-opacity: 0.8"/>
     <use xlink:href="#m9331a34bd4" x="467.941592" y="124.793545" style="fill: #de8f05; fill-opacity: 0.8; stroke: #de8f05; stroke-opacity: 0.8"/>
     <use xlink:href="#m9331a34bd4" x="448.013619" y="100.848457" style="fill: #de8f05; fill-opacity: 0.8; stroke: #de8f05; stroke-opacity: 0.8"/>
     <use xlink:href="#m9331a34bd4" x="560.395247" y="95.161317" style="fill: #de8f05; fill-opacity: 0.8; stroke: #de8f05; stroke-opacity: 0.8"/>
     <use xlink:href="#m9331a34bd4" x="602.268114" y="210.042326" style="fill: #de8f05; fill-opacity: 0.8; stroke: #de8f05; stroke-opacity: 0.8"/>
     <use xlink:href="#m9331a34bd4" x="450.470317" y="85.236885" style="fill: #de8f05; fill-opacity: 0.8; stroke: #de8f05; stroke-opacity: 0.8"/>
     <use xlink:href="#m9331a34bd4" x="490.337683" y="169.842215" style="fill: #de8f05; fill-opacity: 0.8; stroke: #de8f05; stroke-opacity: 0.8"/>
     <use xlink:href="#m9331a34bd4" x="458.057422" y="108.01756" style="fill: #de8f05; fill-opacity: 0.8; stroke: #de8f05; stroke-opacity: 0.8"/>
     <use xlink:href="#m9331a34bd4" x="440.419612" y="110.53533" style="fill: #de8f05; fill-opacity: 0.8; stroke: #de8f05; stroke-opacity: 0.8"/>
     <use xlink:href="#m9331a34bd4" x="437.419045" y="90.969205" style="fill: #de8f05; fill-opacity: 0.8; stroke: #de8f05; stroke-opacity: 0.8"/>
     <use xlink:href="#m9331a34bd4" x="556.739855" y="129.811126" style="fill: #de8f05; fill-opacity: 0.8; stroke: #de8f05; stroke-opacity: 0.8"/>
     <use xlink:href="#m9331a34bd4" x="517.81861" y="88.740243" style="fill: #de8f05; fill-opacity: 0.8; stroke: #de8f05; stroke-opacity: 0.8"/>
     <use xlink:href="#m9331a34bd4" x="443.808857" y="113.247694" style="fill: #de8f05; fill-opacity: 0.8; stroke: #de8f05; stroke-opacity: 0.8"/>
     <use xlink:href="#m9331a34bd4" x="472.386265" y="146.507012" style="fill: #de8f05; fill-opacity: 0.8; stroke: #de8f05; stroke-opacity: 0.8"/>
     <use xlink:href="#m9331a34bd4" x="546.497784" y="172.638972" style="fill: #de8f05; fill-opacity: 0.8; stroke: #de8f05; stroke-opacity: 0.8"/>
     <use xlink:href="#m9331a34bd4" x="432.765751" y="123.807785" style="fill: #de8f05; fill-opacity: 0.8; stroke: #de8f05; stroke-opacity: 0.8"/>
     <use xlink:href="#m9331a34bd4" x="547.226547" y="106.582159" style="fill: #de8f05; fill-opacity: 0.8; stroke: #de8f05; stroke-opacity: 0.8"/>
     <use xlink:href="#m9331a34bd4" x="459.439178" y="123.253362" style="fill: #de8f05; fill-opacity: 0.8; stroke: #de8f05; stroke-opacity: 0.8"/>
     <use xlink:href="#m9331a34bd4" x="450.614244" y="99.389248" style="fill: #de8f05; fill-opacity: 0.8; stroke: #de8f05; stroke-opacity: 0.8"/>
     <use xlink:href="#m9331a34bd4" x="595.111779" y="103.028988" style="fill: #de8f05; fill-opacity: 0.8; stroke: #de8f05; stroke-opacity: 0.8"/>
     <use xlink:href="#m9331a34bd4" x="484.744945" y="106.282498" style="fill: #de8f05; fill-opacity: 0.8; stroke: #de8f05; stroke-opacity: 0.8"/>
     <use xlink:href="#m9331a34bd4" x="470.608714" y="111.197377" style="fill: #de8f05; fill-opacity: 0.8; stroke: #de8f05; stroke-opacity: 0.8"/>
     <use xlink:href="#m9331a34bd4" x="407.980977" y="182.105683" style="fill: #de8f05; fill-opacity: 0.8; stroke: #de8f05; stroke-opacity: 0.8"/>
     <use xlink:href="#m9331a34bd4" x="487.169045" y="158.967062" style="fill: #de8f05; fill-opacity: 0.8; stroke: #de8f05; stroke-opacity: 0.8"/>
     <use xlink:href="#m9331a34bd4" x="490.92245" y="200.619062" style="fill: #de8f05; fill-opacity: 0.8; stroke: #de8f05; stroke-opacity: 0.8"/>
     <use xlink:href="#m9331a34bd4" x="527.465916" y="113.960613" style="fill: #de8f05; fill-opacity: 0.8; stroke: #de8f05; stroke-opacity: 0.8"/>
     <use xlink:href="#m9331a34bd4" x="616.529098" y="115.906052" style="fill: #de8f05; fill-opacity: 0.8; stroke: #de8f05; stroke-opacity: 0.8"/>
     <use xlink:href="#m9331a34bd4" x="454.918829" y="87.464555" style="fill: #de8f05; fill-opacity: 0.8; stroke: #de8f05; stroke-opacity: 0.8"/>
     <use xlink:href="#m9331a34bd4" x="452.636346" y="99.428335" style="fill: #de8f05; fill-opacity: 0.8; stroke: #de8f05; stroke-opacity: 0.8"/>
     <use xlink:href="#m9331a34bd4" x="444.937522" y="95.413532" style="fill: #de8f05; fill-opacity: 0.8; stroke: #de8f05; stroke-opacity: 0.8"/>
     <use xlink:href="#m9331a34bd4" x="467.399117" y="89.348897" style="fill: #de8f05; fill-opacity: 0.8; stroke: #de8f05; stroke-opacity: 0.8"/>
     <use xlink:href="#m9331a34bd4" x="604.210092" y="113.352503" style="fill: #de8f05; fill-opacity: 0.8; stroke: #de8f05; stroke-opacity: 0.8"/>
     <use xlink:href="#m9331a34bd4" x="486.62866" y="105.747464" style="fill: #de8f05; fill-opacity: 0.8; stroke: #de8f05; stroke-opacity: 0.8"/>
     <use xlink:href="#m9331a34bd4" x="536.39088" y="97.543158" style="fill: #de8f05; fill-opacity: 0.8; stroke: #de8f05; stroke-opacity: 0.8"/>
     <use xlink:href="#m9331a34bd4" x="644.65251" y="96.6109" style="fill: #de8f05; fill-opacity: 0.8; stroke: #de8f05; stroke-opacity: 0.8"/>
     <use xlink:href="#m9331a34bd4" x="451.469885" y="83.855046" style="fill: #de8f05; fill-opacity: 0.8; stroke: #de8f05; stroke-opacity: 0.8"/>
     <use xlink:href="#m9331a34bd4" x="643.805249" y="90.190874" style="fill: #de8f05; fill-opacity: 0.8; stroke: #de8f05; stroke-opacity: 0.8"/>
     <use xlink:href="#m9331a34bd4" x="594.571578" y="95.976764" style="fill: #de8f05; fill-opacity: 0.8; stroke: #de8f05; stroke-opacity: 0.8"/>
     <use xlink:href="#m9331a34bd4" x="561.618954" y="98.276546" style="fill: #de8f05; fill-opacity: 0.8; stroke: #de8f05; stroke-opacity: 0.8"/>
     <use xlink:href="#m9331a34bd4" x="690.330523" y="101.975055" style="fill: #de8f05; fill-opacity: 0.8; stroke: #de8f05; stroke-opacity: 0.8"/>
     <use xlink:href="#m9331a34bd4" x="547.271014" y="106.367551" style="fill: #de8f05; fill-opacity: 0.8; stroke: #de8f05; stroke-opacity: 0.8"/>
     <use xlink:href="#m9331a34bd4" x="572.532837" y="127.779154" style="fill: #de8f05; fill-opacity: 0.8; stroke: #de8f05; stroke-opacity: 0.8"/>
     <use xlink:href="#m9331a34bd4" x="474.200656" y="161.318323" style="fill: #de8f05; fill-opacity: 0.8; stroke: #de8f05; stroke-opacity: 0.8"/>
     <use xlink:href="#m9331a34bd4" x="408.763156" y="213.373835" style="fill: #de8f05; fill-opacity: 0.8; stroke: #de8f05; stroke-opacity: 0.8"/>
     <use xlink:href="#m9331a34bd4" x="605.704706" y="85.949172" style="fill: #de8f05; fill-opacity: 0.8; stroke: #de8f05; stroke-opacity: 0.8"/>
     <use xlink:href="#m9331a34bd4" x="420.705401" y="97.646201" style="fill: #de8f05; fill-opacity: 0.8; stroke: #de8f05; stroke-opacity: 0.8"/>
     <use xlink:href="#m9331a34bd4" x="552.813259" y="109.062089" style="fill: #de8f05; fill-opacity: 0.8; stroke: #de8f05; stroke-opacity: 0.8"/>
     <use xlink:href="#m9331a34bd4" x="512.153772" y="106.644138" style="fill: #de8f05; fill-opacity: 0.8; stroke: #de8f05; stroke-opacity: 0.8"/>
     <use xlink:href="#m9331a34bd4" x="634.812502" y="110.583941" style="fill: #de8f05; fill-opacity: 0.8; stroke: #de8f05; stroke-opacity: 0.8"/>
     <use xlink:href="#m9331a34bd4" x="436.15205" y="97.591028" style="fill: #de8f05; fill-opacity: 0.8; stroke: #de8f05; stroke-opacity: 0.8"/>
     <use xlink:href="#m9331a34bd4" x="556.419853" y="99.299656" style="fill: #de8f05; fill-opacity: 0.8; stroke: #de8f05; stroke-opacity: 0.8"/>
     <use xlink:href="#m9331a34bd4" x="527.622801" y="293.577585" style="fill: #de8f05; fill-opacity: 0.8; stroke: #de8f05; stroke-opacity: 0.8"/>
     <use xlink:href="#m9331a34bd4" x="512.169198" y="95.729353" style="fill: #de8f05; fill-opacity: 0.8; stroke: #de8f05; stroke-opacity: 0.8"/>
     <use xlink:href="#m9331a34bd4" x="594.740442" y="112.261291" style="fill: #de8f05; fill-opacity: 0.8; stroke: #de8f05; stroke-opacity: 0.8"/>
     <use xlink:href="#m9331a34bd4" x="440.736615" y="133.378047" style="fill: #de8f05; fill-opacity: 0.8; stroke: #de8f05; stroke-opacity: 0.8"/>
     <use xlink:href="#m9331a34bd4" x="538.010547" y="97.719618" style="fill: #de8f05; fill-opacity: 0.8; stroke: #de8f05; stroke-opacity: 0.8"/>
     <use xlink:href="#m9331a34bd4" x="514.078672" y="94.813871" style="fill: #de8f05; fill-opacity: 0.8; stroke: #de8f05; stroke-opacity: 0.8"/>
     <use xlink:href="#m9331a34bd4" x="666.165875" y="119.691799" style="fill: #de8f05; fill-opacity: 0.8; stroke: #de8f05; stroke-opacity: 0.8"/>
     <use xlink:href="#m9331a34bd4" x="521.467181" y="122.335739" style="fill: #de8f05; fill-opacity: 0.8; stroke: #de8f05; stroke-opacity: 0.8"/>
     <use xlink:href="#m9331a34bd4" x="464.602355" y="100.631456" style="fill: #de8f05; fill-opacity: 0.8; stroke: #de8f05; stroke-opacity: 0.8"/>
     <use xlink:href="#m9331a34bd4" x="581.789819" y="106.932417" style="fill: #de8f05; fill-opacity: 0.8; stroke: #de8f05; stroke-opacity: 0.8"/>
     <use xlink:href="#m9331a34bd4" x="531.214743" y="99.128041" style="fill: #de8f05; fill-opacity: 0.8; stroke: #de8f05; stroke-opacity: 0.8"/>
     <use xlink:href="#m9331a34bd4" x="557.330628" y="82.186782" style="fill: #de8f05; fill-opacity: 0.8; stroke: #de8f05; stroke-opacity: 0.8"/>
     <use xlink:href="#m9331a34bd4" x="463.176562" y="93.129047" style="fill: #de8f05; fill-opacity: 0.8; stroke: #de8f05; stroke-opacity: 0.8"/>
     <use xlink:href="#m9331a34bd4" x="416.382648" y="106.430952" style="fill: #de8f05; fill-opacity: 0.8; stroke: #de8f05; stroke-opacity: 0.8"/>
     <use xlink:href="#m9331a34bd4" x="594.866746" y="86.789887" style="fill: #de8f05; fill-opacity: 0.8; stroke: #de8f05; stroke-opacity: 0.8"/>
    </g>
   </g>
   <g id="PolyCollection_2">
    <defs>
     <path id="m9712beadee" d="M 407.980977 -250.828431 
L 407.980977 -232.517811 
L 464.26747 -232.926735 
L 491.30814 -233.312909 
L 509.277983 -233.955631 
L 522.757158 -234.4393 
L 533.547241 -234.924563 
L 542.54477 -235.475982 
L 550.261345 -235.928299 
L 557.016656 -236.367022 
L 563.023882 -236.788429 
L 568.432314 -237.046357 
L 573.35058 -237.444322 
L 577.860191 -237.754691 
L 582.023877 -238.105318 
L 585.89095 -238.50574 
L 589.500874 -238.874108 
L 592.885725 -239.088128 
L 596.071931 -239.343776 
L 599.08152 -239.519245 
L 601.933049 -239.799258 
L 604.642294 -240.063078 
L 607.222782 -240.260928 
L 609.686199 -240.494692 
L 612.042707 -240.790045 
L 614.301202 -241.022524 
L 616.469512 -241.193557 
L 618.554563 -241.271392 
L 620.562515 -241.365143 
L 622.498865 -241.60604 
L 624.368546 -241.756282 
L 626.175995 -241.88535 
L 627.925223 -241.942793 
L 629.619863 -241.963454 
L 631.26322 -242.100239 
L 632.858306 -242.265157 
L 634.407877 -242.390904 
L 635.914458 -242.494334 
L 637.38037 -242.390984 
L 638.807751 -242.511852 
L 640.198576 -242.509767 
L 641.554669 -242.483822 
L 642.877724 -242.457877 
L 644.169311 -242.525369 
L 645.430894 -242.600743 
L 646.663834 -242.676117 
L 647.869403 -242.751491 
L 649.048791 -242.827984 
L 650.20311 -242.902288 
L 651.333403 -242.977613 
L 652.440652 -243.052987 
L 653.525775 -243.128361 
L 654.589642 -243.156103 
L 655.633067 -243.235679 
L 656.656823 -243.305298 
L 657.661636 -243.379001 
L 658.648196 -243.452705 
L 659.617153 -243.422714 
L 660.569125 -243.330131 
L 661.504696 -243.321369 
L 662.424423 -243.378388 
L 663.328834 -243.520031 
L 664.218429 -243.661674 
L 665.093687 -243.771358 
L 665.955062 -243.780927 
L 666.802989 -243.790046 
L 667.637879 -243.799165 
L 668.460129 -243.808283 
L 669.270115 -243.849436 
L 670.068198 -243.862955 
L 670.854722 -243.876473 
L 671.630018 -243.889991 
L 672.394402 -243.90351 
L 673.148176 -243.917028 
L 673.891631 -243.930547 
L 674.625045 -243.944065 
L 675.348687 -243.957583 
L 676.062814 -243.971102 
L 676.767672 -243.98462 
L 677.463498 -243.998139 
L 678.150522 -244.011681 
L 678.828964 -244.025845 
L 679.499034 -244.040009 
L 680.160938 -244.054173 
L 680.814871 -244.068336 
L 681.461024 -244.0825 
L 682.099579 -244.096664 
L 682.730714 -244.125591 
L 683.354598 -244.157694 
L 683.971396 -244.162646 
L 684.581268 -244.200034 
L 685.184367 -244.165058 
L 685.780842 -244.178877 
L 686.370837 -244.191266 
L 686.954491 -244.203656 
L 687.531939 -244.216045 
L 688.103312 -244.228435 
L 688.668736 -244.24147 
L 689.228334 -244.254988 
L 689.782224 -244.268507 
L 690.330523 -244.282025 
L 690.330523 -315.01821 
L 690.330523 -315.01821 
L 689.782224 -314.216339 
L 689.228334 -313.414467 
L 688.668736 -312.612596 
L 688.103312 -311.810725 
L 687.531939 -311.008853 
L 686.954491 -310.206982 
L 686.370837 -309.456856 
L 685.780842 -308.713457 
L 685.184367 -307.970059 
L 684.581268 -307.22666 
L 683.971396 -306.483262 
L 683.354598 -305.739863 
L 682.730714 -304.996465 
L 682.099579 -304.253067 
L 681.461024 -303.509668 
L 680.814871 -302.76627 
L 680.160938 -302.022871 
L 679.499034 -301.279473 
L 678.828964 -300.536074 
L 678.150522 -299.792676 
L 677.463498 -299.049277 
L 676.767672 -298.305879 
L 676.062814 -297.562481 
L 675.348687 -296.819082 
L 674.625045 -296.075034 
L 673.891631 -295.328437 
L 673.148176 -294.515572 
L 672.394402 -293.616304 
L 671.630018 -292.716002 
L 670.854722 -291.941563 
L 670.068198 -291.050947 
L 669.270115 -290.235759 
L 668.460129 -289.48005 
L 667.637879 -288.72434 
L 666.802989 -287.968631 
L 665.955062 -287.212921 
L 665.093687 -286.457212 
L 664.218429 -285.701502 
L 663.328834 -284.975276 
L 662.424423 -284.302833 
L 661.504696 -283.546738 
L 660.569125 -282.715906 
L 659.617153 -281.930896 
L 658.648196 -281.223574 
L 657.661636 -280.403274 
L 656.656823 -279.648503 
L 655.633067 -278.893386 
L 654.589642 -278.134249 
L 653.525775 -277.352048 
L 652.440652 -276.47847 
L 651.333403 -275.604893 
L 650.20311 -274.731315 
L 649.048791 -273.857738 
L 647.869403 -273.074891 
L 646.663834 -272.434883 
L 645.430894 -271.794493 
L 644.169311 -271.154103 
L 642.877724 -270.421625 
L 641.554669 -269.626236 
L 640.198576 -268.829487 
L 638.807751 -268.032737 
L 637.38037 -267.231721 
L 635.914458 -266.430581 
L 634.407877 -265.638695 
L 632.858306 -264.844628 
L 631.26322 -264.180829 
L 629.619863 -263.63938 
L 627.925223 -262.801811 
L 626.175995 -261.984962 
L 624.368546 -261.26517 
L 622.498865 -260.558973 
L 620.562515 -259.698628 
L 618.554563 -258.839283 
L 616.469512 -257.980794 
L 614.301202 -257.295086 
L 612.042707 -256.650814 
L 609.686199 -256.004715 
L 607.222782 -255.446953 
L 604.642294 -254.969863 
L 601.933049 -254.802305 
L 599.08152 -254.235415 
L 596.071931 -253.964228 
L 592.885725 -253.717566 
L 589.500874 -253.422992 
L 585.89095 -252.984847 
L 582.023877 -252.708047 
L 577.860191 -252.57763 
L 573.35058 -252.405248 
L 568.432314 -252.279617 
L 563.023882 -252.115768 
L 557.016656 -251.77756 
L 550.261345 -251.653688 
L 542.54477 -251.472545 
L 533.547241 -251.247046 
L 522.757158 -251.14688 
L 509.277983 -251.159818 
L 491.30814 -251.14169 
L 464.26747 -250.998822 
L 407.980977 -250.828431 
z
" style="stroke: #ffffff; stroke-opacity: 0.15; stroke-width: 0.8"/>
    </defs>
    <g clip-path="url(#p90847dac7f)">
     <use xlink:href="#m9712beadee" x="0" y="360" style="fill: #de8f05; fill-opacity: 0.15; stroke: #ffffff; stroke-opacity: 0.15; stroke-width: 0.8"/>
    </g>
   </g>
   <g id="line2d_18">
    <path d="M 407.980977 117.891876 
L 464.26747 117.639886 
L 491.30814 117.387896 
L 509.277983 117.135906 
L 522.757158 116.883915 
L 533.547241 116.631925 
L 542.54477 116.379935 
L 550.261345 116.127945 
L 557.016656 115.875955 
L 563.023882 115.623965 
L 568.432314 115.371974 
L 573.35058 115.119984 
L 577.860191 114.867994 
L 582.023877 114.616004 
L 585.89095 114.364014 
L 589.500874 114.112024 
L 592.885725 113.860033 
L 596.071931 113.608043 
L 599.08152 113.356053 
L 601.933049 113.104063 
L 604.642294 112.852073 
L 607.222782 112.600083 
L 609.686199 112.348092 
L 612.042707 112.096102 
L 614.301202 111.844112 
L 616.469512 111.592122 
L 618.554563 111.340132 
L 620.562515 111.088142 
L 622.498865 110.836151 
L 624.368546 110.584161 
L 626.175995 110.332171 
L 627.925223 110.080181 
L 629.619863 109.828191 
L 631.26322 109.576201 
L 632.858306 109.32421 
L 634.407877 109.07222 
L 635.914458 108.82023 
L 637.38037 108.56824 
L 638.807751 108.31625 
L 640.198576 108.06426 
L 641.554669 107.812269 
L 642.877724 107.560279 
L 644.169311 107.308289 
L 645.430894 107.056299 
L 646.663834 106.804309 
L 647.869403 106.552319 
L 649.048791 106.300328 
L 650.20311 106.048338 
L 651.333403 105.796348 
L 652.440652 105.544358 
L 653.525775 105.292368 
L 654.589642 105.040378 
L 655.633067 104.788387 
L 656.656823 104.536397 
L 657.661636 104.284407 
L 658.648196 104.032417 
L 659.617153 103.780427 
L 660.569125 103.528437 
L 661.504696 103.276447 
L 662.424423 103.024456 
L 663.328834 102.772466 
L 664.218429 102.520476 
L 665.093687 102.268486 
L 665.955062 102.016496 
L 666.802989 101.764506 
L 667.637879 101.512515 
L 668.460129 101.260525 
L 669.270115 101.008535 
L 670.068198 100.756545 
L 670.854722 100.504555 
L 671.630018 100.252565 
L 672.394402 100.000574 
L 673.148176 99.748584 
L 673.891631 99.496594 
L 674.625045 99.244604 
L 675.348687 98.992614 
L 676.062814 98.740624 
L 676.767672 98.488633 
L 677.463498 98.236643 
L 678.150522 97.984653 
L 678.828964 97.732663 
L 679.499034 97.480673 
L 680.160938 97.228683 
L 680.814871 96.976692 
L 681.461024 96.724702 
L 682.099579 96.472712 
L 682.730714 96.220722 
L 683.354598 95.968732 
L 683.971396 95.716742 
L 684.581268 95.464751 
L 685.184367 95.212761 
L 685.780842 94.960771 
L 686.370837 94.708781 
L 686.954491 94.456791 
L 687.531939 94.204801 
L 688.103312 93.95281 
L 688.668736 93.70082 
L 689.228334 93.44883 
L 689.782224 93.19684 
L 690.330523 92.94485 
" clip-path="url(#p90847dac7f)" style="fill: none; stroke: #de8f05; stroke-width: 1.8; stroke-linecap: round"/>
   </g>
   <g id="patch_6">
    <path d="M 393.8635 306.007375 
L 393.8635 32.552 
" style="fill: none; stroke: #cccccc; stroke-linejoin: miter; stroke-linecap: square"/>
   </g>
   <g id="patch_7">
    <path d="M 393.8635 306.007375 
L 704.448 306.007375 
" style="fill: none; stroke: #cccccc; stroke-linejoin: miter; stroke-linecap: square"/>
   </g>
   <g id="text_16">
    <!-- Model = AlephBERT (Unmasked) -->
    <g style="fill: #262626" transform="translate(443.165 26.552)scale(0.144 -0.144)">
     <defs>
      <path id="ArialMT-55" d="M 3500 4581 
L 4106 4581 
L 4106 1934 
Q 4106 1244 3950 837 
Q 3794 431 3386 176 
Q 2978 -78 2316 -78 
Q 1672 -78 1262 144 
Q 853 366 678 786 
Q 503 1206 503 1934 
L 503 4581 
L 1109 4581 
L 1109 1938 
Q 1109 1341 1220 1058 
Q 1331 775 1601 622 
Q 1872 469 2263 469 
Q 2931 469 3215 772 
Q 3500 1075 3500 1938 
L 3500 4581 
z
" transform="scale(0.015625)"/>
      <path id="ArialMT-6e" d="M 422 0 
L 422 3319 
L 928 3319 
L 928 2847 
Q 1294 3394 1984 3394 
Q 2284 3394 2536 3286 
Q 2788 3178 2913 3003 
Q 3038 2828 3088 2588 
Q 3119 2431 3119 2041 
L 3119 0 
L 2556 0 
L 2556 2019 
Q 2556 2363 2490 2533 
Q 2425 2703 2258 2804 
Q 2091 2906 1866 2906 
Q 1506 2906 1245 2678 
Q 984 2450 984 1813 
L 984 0 
L 422 0 
z
" transform="scale(0.015625)"/>
      <path id="ArialMT-6d" d="M 422 0 
L 422 3319 
L 925 3319 
L 925 2853 
Q 1081 3097 1340 3245 
Q 1600 3394 1931 3394 
Q 2300 3394 2536 3241 
Q 2772 3088 2869 2813 
Q 3263 3394 3894 3394 
Q 4388 3394 4653 3120 
Q 4919 2847 4919 2278 
L 4919 0 
L 4359 0 
L 4359 2091 
Q 4359 2428 4304 2576 
Q 4250 2725 4106 2815 
Q 3963 2906 3769 2906 
Q 3419 2906 3187 2673 
Q 2956 2441 2956 1928 
L 2956 0 
L 2394 0 
L 2394 2156 
Q 2394 2531 2256 2718 
Q 2119 2906 1806 2906 
Q 1569 2906 1367 2781 
Q 1166 2656 1075 2415 
Q 984 2175 984 1722 
L 984 0 
L 422 0 
z
" transform="scale(0.015625)"/>
     </defs>
     <use xlink:href="#ArialMT-4d"/>
     <use xlink:href="#ArialMT-6f" x="83.300781"/>
     <use xlink:href="#ArialMT-64" x="138.916016"/>
     <use xlink:href="#ArialMT-65" x="194.53125"/>
     <use xlink:href="#ArialMT-6c" x="250.146484"/>
     <use xlink:href="#ArialMT-20" x="272.363281"/>
     <use xlink:href="#ArialMT-3d" x="300.146484"/>
     <use xlink:href="#ArialMT-20" x="358.544922"/>
     <use xlink:href="#ArialMT-41" x="380.828125"/>
     <use xlink:href="#ArialMT-6c" x="447.527344"/>
     <use xlink:href="#ArialMT-65" x="469.744141"/>
     <use xlink:href="#ArialMT-70" x="525.359375"/>
     <use xlink:href="#ArialMT-68" x="580.974609"/>
     <use xlink:href="#ArialMT-42" x="636.589844"/>
     <use xlink:href="#ArialMT-45" x="703.289062"/>
     <use xlink:href="#ArialMT-52" x="769.988281"/>
     <use xlink:href="#ArialMT-54" x="840.455078"/>
     <use xlink:href="#ArialMT-20" x="899.789062"/>
     <use xlink:href="#ArialMT-28" x="927.572266"/>
     <use xlink:href="#ArialMT-55" x="960.873047"/>
     <use xlink:href="#ArialMT-6e" x="1033.089844"/>
     <use xlink:href="#ArialMT-6d" x="1088.705078"/>
     <use xlink:href="#ArialMT-61" x="1172.005859"/>
     <use xlink:href="#ArialMT-73" x="1227.621094"/>
     <use xlink:href="#ArialMT-6b" x="1277.621094"/>
     <use xlink:href="#ArialMT-65" x="1327.621094"/>
     <use xlink:href="#ArialMT-64" x="1383.236328"/>
     <use xlink:href="#ArialMT-29" x="1438.851562"/>
    </g>
   </g>
  </g>
 </g>
 <defs>
  <clipPath id="p87f1df3c84">
   <rect x="67.727" y="32.552" width="310.5845" height="273.455375"/>
  </clipPath>
  <clipPath id="p90847dac7f">
   <rect x="393.8635" y="32.552" width="310.5845" height="273.455375"/>
  </clipPath>
 </defs>
</svg>
